G75*
%MOIN*%
%OFA0B0*%
%FSLAX25Y25*%
%IPPOS*%
%LPD*%
%AMOC8*
5,1,8,0,0,1.08239X$1,22.5*
%
%ADD10C,0.13398*%
%ADD11OC8,0.06600*%
%ADD12R,0.01220X0.04370*%
%ADD13R,0.27030X0.13449*%
%ADD14C,0.06600*%
%ADD15C,0.06600*%
%ADD16C,0.07400*%
%ADD17OC8,0.13200*%
%ADD18C,0.13200*%
%ADD19C,0.07731*%
%ADD20OC8,0.07100*%
%ADD21C,0.07100*%
%ADD22C,0.15800*%
%ADD23C,0.20800*%
%ADD24R,0.02000X0.04700*%
%ADD25OC8,0.07000*%
%ADD26R,0.07400X0.07400*%
%ADD27OC8,0.07400*%
%ADD28C,0.06550*%
%ADD29R,0.01575X0.04232*%
%ADD30C,0.07000*%
%ADD31C,0.07337*%
%ADD32OC8,0.06550*%
D10*
X0035000Y0027102D03*
X0434375Y0296477D03*
X0434375Y0326477D03*
X0445000Y0402102D03*
X0035000Y0402102D03*
X0445000Y0027102D03*
D11*
X0405000Y0042102D03*
X0385000Y0062102D03*
X0365000Y0062102D03*
X0352500Y0072102D03*
X0351875Y0087102D03*
X0351875Y0107102D03*
X0350000Y0117102D03*
X0340000Y0117102D03*
X0330000Y0127102D03*
X0320000Y0117102D03*
X0310000Y0117102D03*
X0300000Y0117102D03*
X0290000Y0117102D03*
X0280000Y0117102D03*
X0265000Y0117102D03*
X0255000Y0117102D03*
X0245000Y0117102D03*
X0235000Y0127102D03*
X0225000Y0117102D03*
X0215000Y0117102D03*
X0205000Y0117102D03*
X0195000Y0117102D03*
X0185000Y0117102D03*
X0170000Y0117102D03*
X0160000Y0117102D03*
X0150000Y0117102D03*
X0140000Y0127102D03*
X0130000Y0127102D03*
X0120000Y0117102D03*
X0110000Y0117102D03*
X0100000Y0117102D03*
X0090000Y0117102D03*
X0065000Y0117102D03*
X0055000Y0117102D03*
X0045000Y0117102D03*
X0035000Y0127102D03*
X0035000Y0147102D03*
X0045000Y0147102D03*
X0055000Y0147102D03*
X0065000Y0147102D03*
X0065000Y0157102D03*
X0065000Y0167102D03*
X0055000Y0167102D03*
X0045000Y0167102D03*
X0045000Y0157102D03*
X0090000Y0147102D03*
X0100000Y0147102D03*
X0110000Y0147102D03*
X0115000Y0157102D03*
X0120000Y0147102D03*
X0130000Y0147102D03*
X0140000Y0147102D03*
X0150000Y0147102D03*
X0160000Y0147102D03*
X0170000Y0147102D03*
X0170000Y0157102D03*
X0170000Y0167102D03*
X0160000Y0167102D03*
X0150000Y0167102D03*
X0150000Y0157102D03*
X0115000Y0167102D03*
X0095000Y0167102D03*
X0095000Y0157102D03*
X0095000Y0197102D03*
X0095000Y0213602D03*
X0115000Y0213602D03*
X0115000Y0197102D03*
X0150000Y0197102D03*
X0160000Y0197102D03*
X0170000Y0197102D03*
X0170000Y0213602D03*
X0150000Y0213602D03*
X0200000Y0213602D03*
X0200000Y0197102D03*
X0220000Y0197102D03*
X0220000Y0213602D03*
X0245000Y0213602D03*
X0245000Y0197102D03*
X0255000Y0197102D03*
X0265000Y0197102D03*
X0265000Y0213602D03*
X0295000Y0213602D03*
X0295000Y0197102D03*
X0315000Y0197102D03*
X0315000Y0213602D03*
X0340000Y0213602D03*
X0340000Y0197102D03*
X0350000Y0197102D03*
X0360000Y0197102D03*
X0360000Y0213602D03*
X0355625Y0237727D03*
X0341875Y0247727D03*
X0335625Y0237727D03*
X0321875Y0247727D03*
X0321875Y0256477D03*
X0324375Y0270227D03*
X0310000Y0279352D03*
X0296875Y0287102D03*
X0296875Y0267727D03*
X0296875Y0247727D03*
X0324375Y0290227D03*
X0338125Y0300852D03*
X0348750Y0300852D03*
X0359375Y0300852D03*
X0386875Y0301102D03*
X0398750Y0281477D03*
X0394375Y0271477D03*
X0418750Y0281477D03*
X0434375Y0271477D03*
X0410000Y0213602D03*
X0410000Y0197102D03*
X0390000Y0197102D03*
X0390000Y0213602D03*
X0351875Y0256477D03*
X0296875Y0307102D03*
X0293750Y0314602D03*
X0283125Y0314602D03*
X0272500Y0314602D03*
X0261875Y0314602D03*
X0250000Y0327102D03*
X0245000Y0337102D03*
X0261875Y0344602D03*
X0272500Y0344602D03*
X0283125Y0344602D03*
X0293750Y0344602D03*
X0308750Y0347727D03*
X0308750Y0327727D03*
X0335000Y0338977D03*
X0338125Y0330852D03*
X0348750Y0330852D03*
X0359375Y0330852D03*
X0365000Y0338977D03*
X0365000Y0348977D03*
X0365000Y0359602D03*
X0377500Y0363977D03*
X0387500Y0363977D03*
X0395000Y0358352D03*
X0400000Y0365852D03*
X0405000Y0358352D03*
X0416875Y0363977D03*
X0426875Y0363977D03*
X0435625Y0358352D03*
X0440625Y0365852D03*
X0445625Y0358352D03*
X0335000Y0359602D03*
X0335000Y0348977D03*
X0239375Y0316477D03*
X0223125Y0307102D03*
X0212500Y0307102D03*
X0209375Y0316477D03*
X0200000Y0317102D03*
X0190000Y0317102D03*
X0202500Y0307102D03*
X0220000Y0327102D03*
X0215000Y0337102D03*
X0229000Y0357102D03*
X0175000Y0362102D03*
X0175000Y0402102D03*
X0130000Y0377102D03*
X0130000Y0357102D03*
X0120000Y0357102D03*
X0111875Y0347102D03*
X0131875Y0347102D03*
X0170000Y0322102D03*
X0155000Y0307102D03*
X0140000Y0292102D03*
X0140000Y0272102D03*
X0170000Y0282102D03*
X0180000Y0282102D03*
X0180000Y0302102D03*
X0202500Y0277102D03*
X0212500Y0277102D03*
X0223125Y0277102D03*
X0233750Y0280227D03*
X0233750Y0260227D03*
X0239375Y0247477D03*
X0245000Y0167102D03*
X0255000Y0167102D03*
X0265000Y0167102D03*
X0265000Y0157102D03*
X0265000Y0147102D03*
X0255000Y0147102D03*
X0245000Y0147102D03*
X0235000Y0147102D03*
X0245000Y0157102D03*
X0225000Y0147102D03*
X0215000Y0147102D03*
X0205000Y0147102D03*
X0195000Y0147102D03*
X0200000Y0157102D03*
X0200000Y0167102D03*
X0220000Y0167102D03*
X0220000Y0157102D03*
X0185000Y0137102D03*
X0161250Y0107102D03*
X0161250Y0087102D03*
X0162500Y0072102D03*
X0175000Y0062102D03*
X0195000Y0062102D03*
X0215000Y0072102D03*
X0218125Y0087102D03*
X0218125Y0107102D03*
X0256875Y0107102D03*
X0256875Y0087102D03*
X0257500Y0071477D03*
X0270000Y0062102D03*
X0290000Y0062102D03*
X0310000Y0072102D03*
X0313125Y0087102D03*
X0313125Y0107102D03*
X0280000Y0137102D03*
X0290000Y0147102D03*
X0300000Y0147102D03*
X0310000Y0147102D03*
X0320000Y0147102D03*
X0330000Y0147102D03*
X0340000Y0147102D03*
X0350000Y0147102D03*
X0360000Y0147102D03*
X0360000Y0157102D03*
X0360000Y0167102D03*
X0350000Y0167102D03*
X0340000Y0167102D03*
X0340000Y0157102D03*
X0315000Y0157102D03*
X0315000Y0167102D03*
X0295000Y0167102D03*
X0295000Y0157102D03*
X0360000Y0117102D03*
X0375000Y0117102D03*
X0385000Y0117102D03*
X0395000Y0117102D03*
X0405000Y0117102D03*
X0415000Y0117102D03*
X0408125Y0107102D03*
X0408125Y0087102D03*
X0405000Y0072102D03*
X0352500Y0042102D03*
X0310000Y0042102D03*
X0257500Y0041477D03*
X0215000Y0042102D03*
X0162500Y0042102D03*
X0113125Y0087102D03*
X0110000Y0072102D03*
X0090000Y0062102D03*
X0070000Y0062102D03*
X0057500Y0072102D03*
X0056250Y0087102D03*
X0056250Y0107102D03*
X0113125Y0107102D03*
X0110000Y0042102D03*
X0057500Y0042102D03*
X0055000Y0197102D03*
X0045000Y0197102D03*
X0045000Y0213602D03*
X0065000Y0213602D03*
X0065000Y0197102D03*
X0115000Y0307102D03*
X0120000Y0397102D03*
X0390000Y0167102D03*
X0390000Y0157102D03*
X0385000Y0147102D03*
X0395000Y0147102D03*
X0405000Y0147102D03*
X0415000Y0147102D03*
X0410000Y0157102D03*
X0410000Y0167102D03*
X0375000Y0137102D03*
D12*
X0287638Y0267338D03*
X0285669Y0267338D03*
X0283701Y0267338D03*
X0281732Y0267338D03*
X0279764Y0267338D03*
X0277795Y0267338D03*
X0275827Y0267338D03*
X0273858Y0267338D03*
X0271890Y0267338D03*
X0269921Y0267338D03*
X0267953Y0267338D03*
X0265984Y0267338D03*
X0264016Y0267338D03*
X0262047Y0267338D03*
X0260079Y0267338D03*
X0258110Y0267338D03*
X0256142Y0267338D03*
X0254173Y0267338D03*
X0252205Y0267338D03*
X0250236Y0267338D03*
X0248268Y0267338D03*
X0246299Y0267338D03*
X0244331Y0267338D03*
X0242362Y0267338D03*
X0242362Y0296866D03*
X0244331Y0296866D03*
X0246299Y0296866D03*
X0248268Y0296866D03*
X0250236Y0296866D03*
X0252205Y0296866D03*
X0254173Y0296866D03*
X0256142Y0296866D03*
X0258110Y0296866D03*
X0260079Y0296866D03*
X0262047Y0296866D03*
X0264016Y0296866D03*
X0265984Y0296866D03*
X0267953Y0296866D03*
X0269921Y0296866D03*
X0271890Y0296866D03*
X0273858Y0296866D03*
X0275827Y0296866D03*
X0277795Y0296866D03*
X0279764Y0296866D03*
X0281732Y0296866D03*
X0283701Y0296866D03*
X0285669Y0296866D03*
X0287638Y0296866D03*
D13*
X0264985Y0282080D03*
D14*
X0239375Y0255477D03*
X0245000Y0205602D03*
X0265000Y0205602D03*
X0295000Y0205602D03*
X0315000Y0205602D03*
X0340000Y0205602D03*
X0360000Y0205602D03*
X0390000Y0205602D03*
X0410000Y0205602D03*
X0386875Y0293102D03*
X0310000Y0287352D03*
X0221000Y0357102D03*
X0220000Y0205602D03*
X0200000Y0205602D03*
X0170000Y0205602D03*
X0150000Y0205602D03*
X0115000Y0205602D03*
X0095000Y0205602D03*
X0065000Y0205602D03*
X0045000Y0205602D03*
D15*
X0067100Y0107102D02*
X0072900Y0107102D01*
X0072900Y0097102D02*
X0067100Y0097102D01*
X0067100Y0087102D02*
X0072900Y0087102D01*
X0072900Y0077102D02*
X0067100Y0077102D01*
X0097100Y0077102D02*
X0102900Y0077102D01*
X0102900Y0087102D02*
X0097100Y0087102D01*
X0097100Y0097102D02*
X0102900Y0097102D01*
X0102900Y0107102D02*
X0097100Y0107102D01*
X0172100Y0107102D02*
X0177900Y0107102D01*
X0177900Y0097102D02*
X0172100Y0097102D01*
X0172100Y0087102D02*
X0177900Y0087102D01*
X0177900Y0077102D02*
X0172100Y0077102D01*
X0202100Y0077102D02*
X0207900Y0077102D01*
X0207900Y0087102D02*
X0202100Y0087102D01*
X0202100Y0097102D02*
X0207900Y0097102D01*
X0207900Y0107102D02*
X0202100Y0107102D01*
X0267100Y0107102D02*
X0272900Y0107102D01*
X0272900Y0097102D02*
X0267100Y0097102D01*
X0267100Y0087102D02*
X0272900Y0087102D01*
X0272900Y0077102D02*
X0267100Y0077102D01*
X0297100Y0077102D02*
X0302900Y0077102D01*
X0302900Y0087102D02*
X0297100Y0087102D01*
X0297100Y0097102D02*
X0302900Y0097102D01*
X0302900Y0107102D02*
X0297100Y0107102D01*
X0362100Y0107102D02*
X0367900Y0107102D01*
X0367900Y0097102D02*
X0362100Y0097102D01*
X0362100Y0087102D02*
X0367900Y0087102D01*
X0367900Y0077102D02*
X0362100Y0077102D01*
X0392100Y0077102D02*
X0397900Y0077102D01*
X0397900Y0087102D02*
X0392100Y0087102D01*
X0392100Y0097102D02*
X0397900Y0097102D01*
X0397900Y0107102D02*
X0392100Y0107102D01*
D16*
X0158300Y0272102D02*
X0151700Y0272102D01*
X0151700Y0282102D02*
X0158300Y0282102D01*
X0158300Y0292102D02*
X0151700Y0292102D01*
X0151700Y0367102D02*
X0158300Y0367102D01*
X0158300Y0377102D02*
X0151700Y0377102D01*
X0151700Y0387102D02*
X0158300Y0387102D01*
D17*
X0080000Y0382102D03*
X0080000Y0287102D03*
D18*
X0080000Y0257102D03*
X0080000Y0352102D03*
D19*
X0035000Y0352102D03*
X0035000Y0382102D03*
X0125000Y0297102D03*
X0125000Y0267102D03*
X0125000Y0257102D03*
X0155000Y0257102D03*
X0150000Y0347102D03*
X0140000Y0347102D03*
X0140000Y0377102D03*
X0180000Y0347102D03*
X0035000Y0287102D03*
X0035000Y0257102D03*
D20*
X0145000Y0322102D03*
X0180000Y0337102D03*
X0133750Y0392102D03*
X0190000Y0252102D03*
X0235000Y0049602D03*
X0335000Y0049602D03*
X0135000Y0049602D03*
D21*
X0135000Y0059602D03*
X0235000Y0059602D03*
X0335000Y0059602D03*
X0180000Y0252102D03*
X0155000Y0322102D03*
X0180000Y0327102D03*
X0133750Y0402102D03*
D22*
X0035000Y0319602D03*
X0048750Y0300852D03*
D23*
X0060000Y0319602D03*
D24*
X0333366Y0291089D03*
X0335925Y0291089D03*
X0338484Y0291089D03*
X0341043Y0291089D03*
X0343602Y0291089D03*
X0346161Y0291089D03*
X0348720Y0291089D03*
X0351280Y0291089D03*
X0353839Y0291089D03*
X0356398Y0291089D03*
X0358957Y0291089D03*
X0361516Y0291089D03*
X0364075Y0291089D03*
X0366634Y0291089D03*
X0366634Y0268115D03*
X0364075Y0268115D03*
X0361516Y0268115D03*
X0358957Y0268115D03*
X0356398Y0268115D03*
X0353839Y0268115D03*
X0351280Y0268115D03*
X0348720Y0268115D03*
X0346161Y0268115D03*
X0343602Y0268115D03*
X0341043Y0268115D03*
X0338484Y0268115D03*
X0335925Y0268115D03*
X0333366Y0268115D03*
D25*
X0365000Y0252102D03*
X0365000Y0242102D03*
X0375000Y0242102D03*
X0375000Y0252102D03*
D26*
X0205000Y0382102D03*
D27*
X0215000Y0382102D03*
X0225000Y0382102D03*
X0225000Y0392102D03*
X0215000Y0392102D03*
X0205000Y0392102D03*
X0235000Y0392102D03*
X0235000Y0382102D03*
X0245000Y0382102D03*
X0255000Y0382102D03*
X0265000Y0382102D03*
X0275000Y0382102D03*
X0285000Y0382102D03*
X0295000Y0382102D03*
X0305000Y0382102D03*
X0315000Y0382102D03*
X0325000Y0382102D03*
X0335000Y0382102D03*
X0335000Y0392102D03*
X0325000Y0392102D03*
X0315000Y0392102D03*
X0305000Y0392102D03*
X0295000Y0392102D03*
X0285000Y0392102D03*
X0275000Y0392102D03*
X0265000Y0392102D03*
X0255000Y0392102D03*
X0245000Y0392102D03*
X0345000Y0392102D03*
X0345000Y0382102D03*
X0355000Y0382102D03*
X0365000Y0382102D03*
X0375000Y0382102D03*
X0385000Y0382102D03*
X0395000Y0382102D03*
X0405000Y0382102D03*
X0415000Y0382102D03*
X0425000Y0382102D03*
X0425000Y0392102D03*
X0415000Y0392102D03*
X0405000Y0392102D03*
X0395000Y0392102D03*
X0385000Y0392102D03*
X0375000Y0392102D03*
X0365000Y0392102D03*
X0355000Y0392102D03*
D28*
X0326250Y0358352D03*
X0317500Y0358352D03*
X0267500Y0305227D03*
X0349375Y0283977D03*
X0419375Y0301477D03*
X0419375Y0311477D03*
X0419375Y0321477D03*
X0290000Y0049602D03*
X0195000Y0049602D03*
X0090000Y0049602D03*
D29*
X0316161Y0326787D03*
X0318720Y0326787D03*
X0321280Y0326787D03*
X0323839Y0326787D03*
X0323839Y0349917D03*
X0321280Y0349917D03*
X0318720Y0349917D03*
X0316161Y0349917D03*
D30*
X0200000Y0350202D02*
X0200000Y0344002D01*
X0190000Y0344002D02*
X0190000Y0350202D01*
X0185000Y0359002D02*
X0185000Y0365202D01*
X0195000Y0365202D02*
X0195000Y0359002D01*
D31*
X0376875Y0342246D02*
X0376875Y0335709D01*
X0386875Y0335709D02*
X0386875Y0342246D01*
X0415000Y0344459D02*
X0415000Y0350996D01*
X0425000Y0350996D02*
X0425000Y0344459D01*
X0394375Y0032871D02*
X0394375Y0026334D01*
X0384375Y0026334D02*
X0384375Y0032871D01*
X0371250Y0032871D02*
X0371250Y0026334D01*
X0361250Y0026334D02*
X0361250Y0032871D01*
X0299375Y0032871D02*
X0299375Y0026334D01*
X0289375Y0026334D02*
X0289375Y0032871D01*
X0276250Y0032871D02*
X0276250Y0026334D01*
X0266250Y0026334D02*
X0266250Y0032871D01*
X0205625Y0032871D02*
X0205625Y0026334D01*
X0195625Y0026334D02*
X0195625Y0032871D01*
X0181875Y0032871D02*
X0181875Y0026334D01*
X0171875Y0026334D02*
X0171875Y0032871D01*
X0100625Y0032871D02*
X0100625Y0026334D01*
X0090625Y0026334D02*
X0090625Y0032871D01*
X0077500Y0032871D02*
X0077500Y0026334D01*
X0067500Y0026334D02*
X0067500Y0032871D01*
D32*
X0310000Y0267102D03*
X0255000Y0304602D03*
X0375625Y0275852D03*
M02*
