%
M48
M72
T01C0.03150
T02C0.03200
T03C0.03600
T04C0.03937
T05C0.04000
T06C0.04331
T07C0.09843
T08C0.12598
%
T01
X90000Y49602
X195000Y49602
X290000Y49602
X310000Y267102
X349375Y283977
X375625Y275852
X419375Y301477
X419375Y311477
X419375Y321477
X326250Y358352
X317500Y358352
X267500Y305227
X255000Y304602
T02
X261875Y314602
X272500Y314602
X283125Y314602
X293750Y314602
X296875Y307102
X308750Y327727
X308750Y347727
X293750Y344602
X283125Y344602
X272500Y344602
X261875Y344602
X245000Y337102
X250000Y327102
X239375Y316477
X223125Y307102
X212500Y307102
X209375Y316477
X200000Y317102
X190000Y317102
X180000Y327102
X170000Y322102
X155000Y322102
X145000Y322102
X155000Y307102
X140000Y292102
X140000Y272102
X170000Y282102
X180000Y282102
X180000Y302102
X202500Y307102
X220000Y327102
X215000Y337102
X221000Y357102
X229000Y357102
X180000Y337102
X175000Y362102
X175000Y402102
X133750Y402102
X133750Y392102
X120000Y397102
X130000Y377102
X130000Y357102
X120000Y357102
X111875Y347102
X131875Y347102
X115000Y307102
X180000Y252102
X190000Y252102
X202500Y277102
X212500Y277102
X223125Y277102
X233750Y280227
X233750Y260227
X239375Y255477
X239375Y247477
X245000Y213602
X245000Y205602
X245000Y197102
X255000Y197102
X265000Y197102
X265000Y205602
X265000Y213602
X295000Y213602
X295000Y205602
X295000Y197102
X315000Y197102
X315000Y205602
X315000Y213602
X340000Y213602
X340000Y205602
X340000Y197102
X350000Y197102
X360000Y197102
X360000Y205602
X360000Y213602
X355625Y237727
X341875Y247727
X335625Y237727
X321875Y247727
X321875Y256477
X324375Y270227
X310000Y279352
X310000Y287352
X296875Y287102
X296875Y267727
X296875Y247727
X324375Y290227
X338125Y300852
X348750Y300852
X359375Y300852
X386875Y301102
X386875Y293102
X398750Y281477
X394375Y271477
X418750Y281477
X434375Y271477
X410000Y213602
X410000Y205602
X410000Y197102
X390000Y197102
X390000Y205602
X390000Y213602
X351875Y256477
X348750Y330852
X338125Y330852
X335000Y338977
X335000Y348977
X335000Y359602
X365000Y359602
X365000Y348977
X365000Y338977
X359375Y330852
X395000Y358352
X400000Y365852
X405000Y358352
X416875Y363977
X426875Y363977
X435625Y358352
X440625Y365852
X445625Y358352
X387500Y363977
X377500Y363977
X220000Y213602
X220000Y205602
X220000Y197102
X200000Y197102
X200000Y205602
X200000Y213602
X170000Y213602
X170000Y205602
X170000Y197102
X160000Y197102
X150000Y197102
X150000Y205602
X150000Y213602
X115000Y213602
X115000Y205602
X115000Y197102
X95000Y197102
X95000Y205602
X95000Y213602
X65000Y213602
X65000Y205602
X65000Y197102
X55000Y197102
X45000Y197102
X45000Y205602
X45000Y213602
X45000Y167102
X55000Y167102
X65000Y167102
X65000Y157102
X65000Y147102
X55000Y147102
X45000Y147102
X35000Y147102
X45000Y157102
X35000Y127102
X45000Y117102
X55000Y117102
X65000Y117102
X70000Y107102
X70000Y97102
X70000Y87102
X70000Y77102
X57500Y72102
X56250Y87102
X56250Y107102
X90000Y117102
X100000Y117102
X110000Y117102
X120000Y117102
X130000Y127102
X140000Y127102
X150000Y117102
X160000Y117102
X170000Y117102
X175000Y107102
X175000Y97102
X175000Y87102
X175000Y77102
X162500Y72102
X161250Y87102
X161250Y107102
X185000Y117102
X195000Y117102
X205000Y117102
X215000Y117102
X225000Y117102
X218125Y107102
X205000Y107102
X205000Y97102
X205000Y87102
X205000Y77102
X215000Y72102
X218125Y87102
X235000Y59602
X235000Y49602
X257500Y41477
X270000Y62102
X257500Y71477
X270000Y77102
X270000Y87102
X270000Y97102
X270000Y107102
X265000Y117102
X255000Y117102
X245000Y117102
X235000Y127102
X235000Y147102
X245000Y147102
X255000Y147102
X265000Y147102
X265000Y157102
X265000Y167102
X255000Y167102
X245000Y167102
X245000Y157102
X225000Y147102
X215000Y147102
X205000Y147102
X195000Y147102
X200000Y157102
X200000Y167102
X220000Y167102
X220000Y157102
X185000Y137102
X170000Y147102
X160000Y147102
X150000Y147102
X140000Y147102
X130000Y147102
X120000Y147102
X115000Y157102
X110000Y147102
X100000Y147102
X90000Y147102
X95000Y157102
X95000Y167102
X115000Y167102
X150000Y167102
X160000Y167102
X170000Y167102
X170000Y157102
X150000Y157102
X113125Y107102
X100000Y107102
X100000Y97102
X100000Y87102
X100000Y77102
X110000Y72102
X113125Y87102
X90000Y62102
X70000Y62102
X57500Y42102
X110000Y42102
X135000Y49602
X135000Y59602
X162500Y42102
X175000Y62102
X195000Y62102
X215000Y42102
X256875Y87102
X256875Y107102
X280000Y117102
X290000Y117102
X300000Y117102
X310000Y117102
X320000Y117102
X330000Y127102
X340000Y117102
X350000Y117102
X360000Y117102
X365000Y107102
X365000Y97102
X365000Y87102
X365000Y77102
X352500Y72102
X351875Y87102
X351875Y107102
X375000Y117102
X385000Y117102
X395000Y117102
X405000Y117102
X415000Y117102
X408125Y107102
X395000Y107102
X395000Y97102
X395000Y87102
X395000Y77102
X405000Y72102
X408125Y87102
X385000Y62102
X365000Y62102
X352500Y42102
X335000Y49602
X335000Y59602
X310000Y72102
X300000Y77102
X300000Y87102
X300000Y97102
X300000Y107102
X313125Y107102
X313125Y87102
X290000Y62102
X310000Y42102
X405000Y42102
X375000Y137102
X385000Y147102
X395000Y147102
X405000Y147102
X415000Y147102
X410000Y157102
X410000Y167102
X390000Y167102
X390000Y157102
X360000Y157102
X360000Y147102
X350000Y147102
X340000Y147102
X340000Y157102
X340000Y167102
X350000Y167102
X360000Y167102
X330000Y147102
X320000Y147102
X310000Y147102
X300000Y147102
X290000Y147102
X295000Y157102
X295000Y167102
X315000Y167102
X315000Y157102
X280000Y137102
T03
X365000Y242102
X375000Y242102
X375000Y252102
X365000Y252102
X200000Y347102
X190000Y347102
X185000Y362102
X195000Y362102
T04
X376875Y338977
X386875Y338977
X415000Y347727
X425000Y347727
X394375Y29602
X384375Y29602
X371250Y29602
X361250Y29602
X299375Y29602
X289375Y29602
X276250Y29602
X266250Y29602
X205625Y29602
X195625Y29602
X181875Y29602
X171875Y29602
X100625Y29602
X90625Y29602
X77500Y29602
X67500Y29602
T05
X80000Y257102
X80000Y287102
X80000Y352102
X80000Y382102
X155000Y377102
X155000Y367102
X155000Y387102
X205000Y382102
X215000Y382102
X225000Y382102
X225000Y392102
X215000Y392102
X205000Y392102
X235000Y392102
X235000Y382102
X245000Y382102
X255000Y382102
X265000Y382102
X275000Y382102
X285000Y382102
X295000Y382102
X305000Y382102
X315000Y382102
X325000Y382102
X335000Y382102
X335000Y392102
X325000Y392102
X315000Y392102
X305000Y392102
X295000Y392102
X285000Y392102
X275000Y392102
X265000Y392102
X255000Y392102
X245000Y392102
X345000Y392102
X345000Y382102
X355000Y382102
X365000Y382102
X375000Y382102
X385000Y382102
X395000Y382102
X405000Y382102
X415000Y382102
X425000Y382102
X425000Y392102
X415000Y392102
X405000Y392102
X395000Y392102
X385000Y392102
X375000Y392102
X365000Y392102
X355000Y392102
X155000Y292102
X155000Y282102
X155000Y272102
T06
X155000Y257102
X125000Y257102
X125000Y267102
X125000Y297102
X140000Y347102
X150000Y347102
X180000Y347102
X140000Y377102
X35000Y382102
X35000Y352102
X35000Y287102
X35000Y257102
T07
X48750Y300852
X35000Y319602
T08
X35000Y27102
X60000Y319602
X35000Y402102
X434375Y326477
X434375Y296477
X445000Y402102
X445000Y27102
M30
