G75*
%MOIN*%
%OFA0B0*%
%FSLAX25Y25*%
%IPPOS*%
%LPD*%
%AMOC8*
5,1,8,0,0,1.08239X$1,22.5*
%
%ADD10C,0.00000*%
%ADD11OC8,0.05800*%
%ADD12R,0.01181X0.04331*%
%ADD13R,0.27000X0.13386*%
%ADD14C,0.05800*%
%ADD15C,0.05800*%
%ADD16C,0.06600*%
%ADD17OC8,0.12400*%
%ADD18C,0.12400*%
%ADD19C,0.06931*%
%ADD20OC8,0.06300*%
%ADD21C,0.06300*%
%ADD22C,0.15000*%
%ADD23C,0.20000*%
%ADD24R,0.01200X0.03900*%
%ADD25OC8,0.06200*%
%ADD26R,0.06600X0.06600*%
%ADD27OC8,0.06600*%
%ADD28C,0.05750*%
%ADD29R,0.01378X0.03937*%
%ADD30C,0.06200*%
%ADD31C,0.06537*%
%ADD32C,0.01000*%
%ADD33C,0.04000*%
%ADD34C,0.03200*%
%ADD35OC8,0.05750*%
%ADD36C,0.02400*%
D10*
X0020000Y0017102D02*
X0020000Y0410803D01*
X0454921Y0410803D01*
X0454921Y0017102D01*
X0020000Y0017102D01*
X0028701Y0027102D02*
X0028703Y0027260D01*
X0028709Y0027418D01*
X0028719Y0027576D01*
X0028733Y0027734D01*
X0028751Y0027891D01*
X0028772Y0028048D01*
X0028798Y0028204D01*
X0028828Y0028360D01*
X0028861Y0028515D01*
X0028899Y0028668D01*
X0028940Y0028821D01*
X0028985Y0028973D01*
X0029034Y0029124D01*
X0029087Y0029273D01*
X0029143Y0029421D01*
X0029203Y0029567D01*
X0029267Y0029712D01*
X0029335Y0029855D01*
X0029406Y0029997D01*
X0029480Y0030137D01*
X0029558Y0030274D01*
X0029640Y0030410D01*
X0029724Y0030544D01*
X0029813Y0030675D01*
X0029904Y0030804D01*
X0029999Y0030931D01*
X0030096Y0031056D01*
X0030197Y0031178D01*
X0030301Y0031297D01*
X0030408Y0031414D01*
X0030518Y0031528D01*
X0030631Y0031639D01*
X0030746Y0031748D01*
X0030864Y0031853D01*
X0030985Y0031955D01*
X0031108Y0032055D01*
X0031234Y0032151D01*
X0031362Y0032244D01*
X0031492Y0032334D01*
X0031625Y0032420D01*
X0031760Y0032504D01*
X0031896Y0032583D01*
X0032035Y0032660D01*
X0032176Y0032732D01*
X0032318Y0032802D01*
X0032462Y0032867D01*
X0032608Y0032929D01*
X0032755Y0032987D01*
X0032904Y0033042D01*
X0033054Y0033093D01*
X0033205Y0033140D01*
X0033357Y0033183D01*
X0033510Y0033222D01*
X0033665Y0033258D01*
X0033820Y0033289D01*
X0033976Y0033317D01*
X0034132Y0033341D01*
X0034289Y0033361D01*
X0034447Y0033377D01*
X0034604Y0033389D01*
X0034763Y0033397D01*
X0034921Y0033401D01*
X0035079Y0033401D01*
X0035237Y0033397D01*
X0035396Y0033389D01*
X0035553Y0033377D01*
X0035711Y0033361D01*
X0035868Y0033341D01*
X0036024Y0033317D01*
X0036180Y0033289D01*
X0036335Y0033258D01*
X0036490Y0033222D01*
X0036643Y0033183D01*
X0036795Y0033140D01*
X0036946Y0033093D01*
X0037096Y0033042D01*
X0037245Y0032987D01*
X0037392Y0032929D01*
X0037538Y0032867D01*
X0037682Y0032802D01*
X0037824Y0032732D01*
X0037965Y0032660D01*
X0038104Y0032583D01*
X0038240Y0032504D01*
X0038375Y0032420D01*
X0038508Y0032334D01*
X0038638Y0032244D01*
X0038766Y0032151D01*
X0038892Y0032055D01*
X0039015Y0031955D01*
X0039136Y0031853D01*
X0039254Y0031748D01*
X0039369Y0031639D01*
X0039482Y0031528D01*
X0039592Y0031414D01*
X0039699Y0031297D01*
X0039803Y0031178D01*
X0039904Y0031056D01*
X0040001Y0030931D01*
X0040096Y0030804D01*
X0040187Y0030675D01*
X0040276Y0030544D01*
X0040360Y0030410D01*
X0040442Y0030274D01*
X0040520Y0030137D01*
X0040594Y0029997D01*
X0040665Y0029855D01*
X0040733Y0029712D01*
X0040797Y0029567D01*
X0040857Y0029421D01*
X0040913Y0029273D01*
X0040966Y0029124D01*
X0041015Y0028973D01*
X0041060Y0028821D01*
X0041101Y0028668D01*
X0041139Y0028515D01*
X0041172Y0028360D01*
X0041202Y0028204D01*
X0041228Y0028048D01*
X0041249Y0027891D01*
X0041267Y0027734D01*
X0041281Y0027576D01*
X0041291Y0027418D01*
X0041297Y0027260D01*
X0041299Y0027102D01*
X0041297Y0026944D01*
X0041291Y0026786D01*
X0041281Y0026628D01*
X0041267Y0026470D01*
X0041249Y0026313D01*
X0041228Y0026156D01*
X0041202Y0026000D01*
X0041172Y0025844D01*
X0041139Y0025689D01*
X0041101Y0025536D01*
X0041060Y0025383D01*
X0041015Y0025231D01*
X0040966Y0025080D01*
X0040913Y0024931D01*
X0040857Y0024783D01*
X0040797Y0024637D01*
X0040733Y0024492D01*
X0040665Y0024349D01*
X0040594Y0024207D01*
X0040520Y0024067D01*
X0040442Y0023930D01*
X0040360Y0023794D01*
X0040276Y0023660D01*
X0040187Y0023529D01*
X0040096Y0023400D01*
X0040001Y0023273D01*
X0039904Y0023148D01*
X0039803Y0023026D01*
X0039699Y0022907D01*
X0039592Y0022790D01*
X0039482Y0022676D01*
X0039369Y0022565D01*
X0039254Y0022456D01*
X0039136Y0022351D01*
X0039015Y0022249D01*
X0038892Y0022149D01*
X0038766Y0022053D01*
X0038638Y0021960D01*
X0038508Y0021870D01*
X0038375Y0021784D01*
X0038240Y0021700D01*
X0038104Y0021621D01*
X0037965Y0021544D01*
X0037824Y0021472D01*
X0037682Y0021402D01*
X0037538Y0021337D01*
X0037392Y0021275D01*
X0037245Y0021217D01*
X0037096Y0021162D01*
X0036946Y0021111D01*
X0036795Y0021064D01*
X0036643Y0021021D01*
X0036490Y0020982D01*
X0036335Y0020946D01*
X0036180Y0020915D01*
X0036024Y0020887D01*
X0035868Y0020863D01*
X0035711Y0020843D01*
X0035553Y0020827D01*
X0035396Y0020815D01*
X0035237Y0020807D01*
X0035079Y0020803D01*
X0034921Y0020803D01*
X0034763Y0020807D01*
X0034604Y0020815D01*
X0034447Y0020827D01*
X0034289Y0020843D01*
X0034132Y0020863D01*
X0033976Y0020887D01*
X0033820Y0020915D01*
X0033665Y0020946D01*
X0033510Y0020982D01*
X0033357Y0021021D01*
X0033205Y0021064D01*
X0033054Y0021111D01*
X0032904Y0021162D01*
X0032755Y0021217D01*
X0032608Y0021275D01*
X0032462Y0021337D01*
X0032318Y0021402D01*
X0032176Y0021472D01*
X0032035Y0021544D01*
X0031896Y0021621D01*
X0031760Y0021700D01*
X0031625Y0021784D01*
X0031492Y0021870D01*
X0031362Y0021960D01*
X0031234Y0022053D01*
X0031108Y0022149D01*
X0030985Y0022249D01*
X0030864Y0022351D01*
X0030746Y0022456D01*
X0030631Y0022565D01*
X0030518Y0022676D01*
X0030408Y0022790D01*
X0030301Y0022907D01*
X0030197Y0023026D01*
X0030096Y0023148D01*
X0029999Y0023273D01*
X0029904Y0023400D01*
X0029813Y0023529D01*
X0029724Y0023660D01*
X0029640Y0023794D01*
X0029558Y0023930D01*
X0029480Y0024067D01*
X0029406Y0024207D01*
X0029335Y0024349D01*
X0029267Y0024492D01*
X0029203Y0024637D01*
X0029143Y0024783D01*
X0029087Y0024931D01*
X0029034Y0025080D01*
X0028985Y0025231D01*
X0028940Y0025383D01*
X0028899Y0025536D01*
X0028861Y0025689D01*
X0028828Y0025844D01*
X0028798Y0026000D01*
X0028772Y0026156D01*
X0028751Y0026313D01*
X0028733Y0026470D01*
X0028719Y0026628D01*
X0028709Y0026786D01*
X0028703Y0026944D01*
X0028701Y0027102D01*
X0428076Y0296477D02*
X0428078Y0296635D01*
X0428084Y0296793D01*
X0428094Y0296951D01*
X0428108Y0297109D01*
X0428126Y0297266D01*
X0428147Y0297423D01*
X0428173Y0297579D01*
X0428203Y0297735D01*
X0428236Y0297890D01*
X0428274Y0298043D01*
X0428315Y0298196D01*
X0428360Y0298348D01*
X0428409Y0298499D01*
X0428462Y0298648D01*
X0428518Y0298796D01*
X0428578Y0298942D01*
X0428642Y0299087D01*
X0428710Y0299230D01*
X0428781Y0299372D01*
X0428855Y0299512D01*
X0428933Y0299649D01*
X0429015Y0299785D01*
X0429099Y0299919D01*
X0429188Y0300050D01*
X0429279Y0300179D01*
X0429374Y0300306D01*
X0429471Y0300431D01*
X0429572Y0300553D01*
X0429676Y0300672D01*
X0429783Y0300789D01*
X0429893Y0300903D01*
X0430006Y0301014D01*
X0430121Y0301123D01*
X0430239Y0301228D01*
X0430360Y0301330D01*
X0430483Y0301430D01*
X0430609Y0301526D01*
X0430737Y0301619D01*
X0430867Y0301709D01*
X0431000Y0301795D01*
X0431135Y0301879D01*
X0431271Y0301958D01*
X0431410Y0302035D01*
X0431551Y0302107D01*
X0431693Y0302177D01*
X0431837Y0302242D01*
X0431983Y0302304D01*
X0432130Y0302362D01*
X0432279Y0302417D01*
X0432429Y0302468D01*
X0432580Y0302515D01*
X0432732Y0302558D01*
X0432885Y0302597D01*
X0433040Y0302633D01*
X0433195Y0302664D01*
X0433351Y0302692D01*
X0433507Y0302716D01*
X0433664Y0302736D01*
X0433822Y0302752D01*
X0433979Y0302764D01*
X0434138Y0302772D01*
X0434296Y0302776D01*
X0434454Y0302776D01*
X0434612Y0302772D01*
X0434771Y0302764D01*
X0434928Y0302752D01*
X0435086Y0302736D01*
X0435243Y0302716D01*
X0435399Y0302692D01*
X0435555Y0302664D01*
X0435710Y0302633D01*
X0435865Y0302597D01*
X0436018Y0302558D01*
X0436170Y0302515D01*
X0436321Y0302468D01*
X0436471Y0302417D01*
X0436620Y0302362D01*
X0436767Y0302304D01*
X0436913Y0302242D01*
X0437057Y0302177D01*
X0437199Y0302107D01*
X0437340Y0302035D01*
X0437479Y0301958D01*
X0437615Y0301879D01*
X0437750Y0301795D01*
X0437883Y0301709D01*
X0438013Y0301619D01*
X0438141Y0301526D01*
X0438267Y0301430D01*
X0438390Y0301330D01*
X0438511Y0301228D01*
X0438629Y0301123D01*
X0438744Y0301014D01*
X0438857Y0300903D01*
X0438967Y0300789D01*
X0439074Y0300672D01*
X0439178Y0300553D01*
X0439279Y0300431D01*
X0439376Y0300306D01*
X0439471Y0300179D01*
X0439562Y0300050D01*
X0439651Y0299919D01*
X0439735Y0299785D01*
X0439817Y0299649D01*
X0439895Y0299512D01*
X0439969Y0299372D01*
X0440040Y0299230D01*
X0440108Y0299087D01*
X0440172Y0298942D01*
X0440232Y0298796D01*
X0440288Y0298648D01*
X0440341Y0298499D01*
X0440390Y0298348D01*
X0440435Y0298196D01*
X0440476Y0298043D01*
X0440514Y0297890D01*
X0440547Y0297735D01*
X0440577Y0297579D01*
X0440603Y0297423D01*
X0440624Y0297266D01*
X0440642Y0297109D01*
X0440656Y0296951D01*
X0440666Y0296793D01*
X0440672Y0296635D01*
X0440674Y0296477D01*
X0440672Y0296319D01*
X0440666Y0296161D01*
X0440656Y0296003D01*
X0440642Y0295845D01*
X0440624Y0295688D01*
X0440603Y0295531D01*
X0440577Y0295375D01*
X0440547Y0295219D01*
X0440514Y0295064D01*
X0440476Y0294911D01*
X0440435Y0294758D01*
X0440390Y0294606D01*
X0440341Y0294455D01*
X0440288Y0294306D01*
X0440232Y0294158D01*
X0440172Y0294012D01*
X0440108Y0293867D01*
X0440040Y0293724D01*
X0439969Y0293582D01*
X0439895Y0293442D01*
X0439817Y0293305D01*
X0439735Y0293169D01*
X0439651Y0293035D01*
X0439562Y0292904D01*
X0439471Y0292775D01*
X0439376Y0292648D01*
X0439279Y0292523D01*
X0439178Y0292401D01*
X0439074Y0292282D01*
X0438967Y0292165D01*
X0438857Y0292051D01*
X0438744Y0291940D01*
X0438629Y0291831D01*
X0438511Y0291726D01*
X0438390Y0291624D01*
X0438267Y0291524D01*
X0438141Y0291428D01*
X0438013Y0291335D01*
X0437883Y0291245D01*
X0437750Y0291159D01*
X0437615Y0291075D01*
X0437479Y0290996D01*
X0437340Y0290919D01*
X0437199Y0290847D01*
X0437057Y0290777D01*
X0436913Y0290712D01*
X0436767Y0290650D01*
X0436620Y0290592D01*
X0436471Y0290537D01*
X0436321Y0290486D01*
X0436170Y0290439D01*
X0436018Y0290396D01*
X0435865Y0290357D01*
X0435710Y0290321D01*
X0435555Y0290290D01*
X0435399Y0290262D01*
X0435243Y0290238D01*
X0435086Y0290218D01*
X0434928Y0290202D01*
X0434771Y0290190D01*
X0434612Y0290182D01*
X0434454Y0290178D01*
X0434296Y0290178D01*
X0434138Y0290182D01*
X0433979Y0290190D01*
X0433822Y0290202D01*
X0433664Y0290218D01*
X0433507Y0290238D01*
X0433351Y0290262D01*
X0433195Y0290290D01*
X0433040Y0290321D01*
X0432885Y0290357D01*
X0432732Y0290396D01*
X0432580Y0290439D01*
X0432429Y0290486D01*
X0432279Y0290537D01*
X0432130Y0290592D01*
X0431983Y0290650D01*
X0431837Y0290712D01*
X0431693Y0290777D01*
X0431551Y0290847D01*
X0431410Y0290919D01*
X0431271Y0290996D01*
X0431135Y0291075D01*
X0431000Y0291159D01*
X0430867Y0291245D01*
X0430737Y0291335D01*
X0430609Y0291428D01*
X0430483Y0291524D01*
X0430360Y0291624D01*
X0430239Y0291726D01*
X0430121Y0291831D01*
X0430006Y0291940D01*
X0429893Y0292051D01*
X0429783Y0292165D01*
X0429676Y0292282D01*
X0429572Y0292401D01*
X0429471Y0292523D01*
X0429374Y0292648D01*
X0429279Y0292775D01*
X0429188Y0292904D01*
X0429099Y0293035D01*
X0429015Y0293169D01*
X0428933Y0293305D01*
X0428855Y0293442D01*
X0428781Y0293582D01*
X0428710Y0293724D01*
X0428642Y0293867D01*
X0428578Y0294012D01*
X0428518Y0294158D01*
X0428462Y0294306D01*
X0428409Y0294455D01*
X0428360Y0294606D01*
X0428315Y0294758D01*
X0428274Y0294911D01*
X0428236Y0295064D01*
X0428203Y0295219D01*
X0428173Y0295375D01*
X0428147Y0295531D01*
X0428126Y0295688D01*
X0428108Y0295845D01*
X0428094Y0296003D01*
X0428084Y0296161D01*
X0428078Y0296319D01*
X0428076Y0296477D01*
X0428076Y0326477D02*
X0428078Y0326635D01*
X0428084Y0326793D01*
X0428094Y0326951D01*
X0428108Y0327109D01*
X0428126Y0327266D01*
X0428147Y0327423D01*
X0428173Y0327579D01*
X0428203Y0327735D01*
X0428236Y0327890D01*
X0428274Y0328043D01*
X0428315Y0328196D01*
X0428360Y0328348D01*
X0428409Y0328499D01*
X0428462Y0328648D01*
X0428518Y0328796D01*
X0428578Y0328942D01*
X0428642Y0329087D01*
X0428710Y0329230D01*
X0428781Y0329372D01*
X0428855Y0329512D01*
X0428933Y0329649D01*
X0429015Y0329785D01*
X0429099Y0329919D01*
X0429188Y0330050D01*
X0429279Y0330179D01*
X0429374Y0330306D01*
X0429471Y0330431D01*
X0429572Y0330553D01*
X0429676Y0330672D01*
X0429783Y0330789D01*
X0429893Y0330903D01*
X0430006Y0331014D01*
X0430121Y0331123D01*
X0430239Y0331228D01*
X0430360Y0331330D01*
X0430483Y0331430D01*
X0430609Y0331526D01*
X0430737Y0331619D01*
X0430867Y0331709D01*
X0431000Y0331795D01*
X0431135Y0331879D01*
X0431271Y0331958D01*
X0431410Y0332035D01*
X0431551Y0332107D01*
X0431693Y0332177D01*
X0431837Y0332242D01*
X0431983Y0332304D01*
X0432130Y0332362D01*
X0432279Y0332417D01*
X0432429Y0332468D01*
X0432580Y0332515D01*
X0432732Y0332558D01*
X0432885Y0332597D01*
X0433040Y0332633D01*
X0433195Y0332664D01*
X0433351Y0332692D01*
X0433507Y0332716D01*
X0433664Y0332736D01*
X0433822Y0332752D01*
X0433979Y0332764D01*
X0434138Y0332772D01*
X0434296Y0332776D01*
X0434454Y0332776D01*
X0434612Y0332772D01*
X0434771Y0332764D01*
X0434928Y0332752D01*
X0435086Y0332736D01*
X0435243Y0332716D01*
X0435399Y0332692D01*
X0435555Y0332664D01*
X0435710Y0332633D01*
X0435865Y0332597D01*
X0436018Y0332558D01*
X0436170Y0332515D01*
X0436321Y0332468D01*
X0436471Y0332417D01*
X0436620Y0332362D01*
X0436767Y0332304D01*
X0436913Y0332242D01*
X0437057Y0332177D01*
X0437199Y0332107D01*
X0437340Y0332035D01*
X0437479Y0331958D01*
X0437615Y0331879D01*
X0437750Y0331795D01*
X0437883Y0331709D01*
X0438013Y0331619D01*
X0438141Y0331526D01*
X0438267Y0331430D01*
X0438390Y0331330D01*
X0438511Y0331228D01*
X0438629Y0331123D01*
X0438744Y0331014D01*
X0438857Y0330903D01*
X0438967Y0330789D01*
X0439074Y0330672D01*
X0439178Y0330553D01*
X0439279Y0330431D01*
X0439376Y0330306D01*
X0439471Y0330179D01*
X0439562Y0330050D01*
X0439651Y0329919D01*
X0439735Y0329785D01*
X0439817Y0329649D01*
X0439895Y0329512D01*
X0439969Y0329372D01*
X0440040Y0329230D01*
X0440108Y0329087D01*
X0440172Y0328942D01*
X0440232Y0328796D01*
X0440288Y0328648D01*
X0440341Y0328499D01*
X0440390Y0328348D01*
X0440435Y0328196D01*
X0440476Y0328043D01*
X0440514Y0327890D01*
X0440547Y0327735D01*
X0440577Y0327579D01*
X0440603Y0327423D01*
X0440624Y0327266D01*
X0440642Y0327109D01*
X0440656Y0326951D01*
X0440666Y0326793D01*
X0440672Y0326635D01*
X0440674Y0326477D01*
X0440672Y0326319D01*
X0440666Y0326161D01*
X0440656Y0326003D01*
X0440642Y0325845D01*
X0440624Y0325688D01*
X0440603Y0325531D01*
X0440577Y0325375D01*
X0440547Y0325219D01*
X0440514Y0325064D01*
X0440476Y0324911D01*
X0440435Y0324758D01*
X0440390Y0324606D01*
X0440341Y0324455D01*
X0440288Y0324306D01*
X0440232Y0324158D01*
X0440172Y0324012D01*
X0440108Y0323867D01*
X0440040Y0323724D01*
X0439969Y0323582D01*
X0439895Y0323442D01*
X0439817Y0323305D01*
X0439735Y0323169D01*
X0439651Y0323035D01*
X0439562Y0322904D01*
X0439471Y0322775D01*
X0439376Y0322648D01*
X0439279Y0322523D01*
X0439178Y0322401D01*
X0439074Y0322282D01*
X0438967Y0322165D01*
X0438857Y0322051D01*
X0438744Y0321940D01*
X0438629Y0321831D01*
X0438511Y0321726D01*
X0438390Y0321624D01*
X0438267Y0321524D01*
X0438141Y0321428D01*
X0438013Y0321335D01*
X0437883Y0321245D01*
X0437750Y0321159D01*
X0437615Y0321075D01*
X0437479Y0320996D01*
X0437340Y0320919D01*
X0437199Y0320847D01*
X0437057Y0320777D01*
X0436913Y0320712D01*
X0436767Y0320650D01*
X0436620Y0320592D01*
X0436471Y0320537D01*
X0436321Y0320486D01*
X0436170Y0320439D01*
X0436018Y0320396D01*
X0435865Y0320357D01*
X0435710Y0320321D01*
X0435555Y0320290D01*
X0435399Y0320262D01*
X0435243Y0320238D01*
X0435086Y0320218D01*
X0434928Y0320202D01*
X0434771Y0320190D01*
X0434612Y0320182D01*
X0434454Y0320178D01*
X0434296Y0320178D01*
X0434138Y0320182D01*
X0433979Y0320190D01*
X0433822Y0320202D01*
X0433664Y0320218D01*
X0433507Y0320238D01*
X0433351Y0320262D01*
X0433195Y0320290D01*
X0433040Y0320321D01*
X0432885Y0320357D01*
X0432732Y0320396D01*
X0432580Y0320439D01*
X0432429Y0320486D01*
X0432279Y0320537D01*
X0432130Y0320592D01*
X0431983Y0320650D01*
X0431837Y0320712D01*
X0431693Y0320777D01*
X0431551Y0320847D01*
X0431410Y0320919D01*
X0431271Y0320996D01*
X0431135Y0321075D01*
X0431000Y0321159D01*
X0430867Y0321245D01*
X0430737Y0321335D01*
X0430609Y0321428D01*
X0430483Y0321524D01*
X0430360Y0321624D01*
X0430239Y0321726D01*
X0430121Y0321831D01*
X0430006Y0321940D01*
X0429893Y0322051D01*
X0429783Y0322165D01*
X0429676Y0322282D01*
X0429572Y0322401D01*
X0429471Y0322523D01*
X0429374Y0322648D01*
X0429279Y0322775D01*
X0429188Y0322904D01*
X0429099Y0323035D01*
X0429015Y0323169D01*
X0428933Y0323305D01*
X0428855Y0323442D01*
X0428781Y0323582D01*
X0428710Y0323724D01*
X0428642Y0323867D01*
X0428578Y0324012D01*
X0428518Y0324158D01*
X0428462Y0324306D01*
X0428409Y0324455D01*
X0428360Y0324606D01*
X0428315Y0324758D01*
X0428274Y0324911D01*
X0428236Y0325064D01*
X0428203Y0325219D01*
X0428173Y0325375D01*
X0428147Y0325531D01*
X0428126Y0325688D01*
X0428108Y0325845D01*
X0428094Y0326003D01*
X0428084Y0326161D01*
X0428078Y0326319D01*
X0428076Y0326477D01*
X0438701Y0402102D02*
X0438703Y0402260D01*
X0438709Y0402418D01*
X0438719Y0402576D01*
X0438733Y0402734D01*
X0438751Y0402891D01*
X0438772Y0403048D01*
X0438798Y0403204D01*
X0438828Y0403360D01*
X0438861Y0403515D01*
X0438899Y0403668D01*
X0438940Y0403821D01*
X0438985Y0403973D01*
X0439034Y0404124D01*
X0439087Y0404273D01*
X0439143Y0404421D01*
X0439203Y0404567D01*
X0439267Y0404712D01*
X0439335Y0404855D01*
X0439406Y0404997D01*
X0439480Y0405137D01*
X0439558Y0405274D01*
X0439640Y0405410D01*
X0439724Y0405544D01*
X0439813Y0405675D01*
X0439904Y0405804D01*
X0439999Y0405931D01*
X0440096Y0406056D01*
X0440197Y0406178D01*
X0440301Y0406297D01*
X0440408Y0406414D01*
X0440518Y0406528D01*
X0440631Y0406639D01*
X0440746Y0406748D01*
X0440864Y0406853D01*
X0440985Y0406955D01*
X0441108Y0407055D01*
X0441234Y0407151D01*
X0441362Y0407244D01*
X0441492Y0407334D01*
X0441625Y0407420D01*
X0441760Y0407504D01*
X0441896Y0407583D01*
X0442035Y0407660D01*
X0442176Y0407732D01*
X0442318Y0407802D01*
X0442462Y0407867D01*
X0442608Y0407929D01*
X0442755Y0407987D01*
X0442904Y0408042D01*
X0443054Y0408093D01*
X0443205Y0408140D01*
X0443357Y0408183D01*
X0443510Y0408222D01*
X0443665Y0408258D01*
X0443820Y0408289D01*
X0443976Y0408317D01*
X0444132Y0408341D01*
X0444289Y0408361D01*
X0444447Y0408377D01*
X0444604Y0408389D01*
X0444763Y0408397D01*
X0444921Y0408401D01*
X0445079Y0408401D01*
X0445237Y0408397D01*
X0445396Y0408389D01*
X0445553Y0408377D01*
X0445711Y0408361D01*
X0445868Y0408341D01*
X0446024Y0408317D01*
X0446180Y0408289D01*
X0446335Y0408258D01*
X0446490Y0408222D01*
X0446643Y0408183D01*
X0446795Y0408140D01*
X0446946Y0408093D01*
X0447096Y0408042D01*
X0447245Y0407987D01*
X0447392Y0407929D01*
X0447538Y0407867D01*
X0447682Y0407802D01*
X0447824Y0407732D01*
X0447965Y0407660D01*
X0448104Y0407583D01*
X0448240Y0407504D01*
X0448375Y0407420D01*
X0448508Y0407334D01*
X0448638Y0407244D01*
X0448766Y0407151D01*
X0448892Y0407055D01*
X0449015Y0406955D01*
X0449136Y0406853D01*
X0449254Y0406748D01*
X0449369Y0406639D01*
X0449482Y0406528D01*
X0449592Y0406414D01*
X0449699Y0406297D01*
X0449803Y0406178D01*
X0449904Y0406056D01*
X0450001Y0405931D01*
X0450096Y0405804D01*
X0450187Y0405675D01*
X0450276Y0405544D01*
X0450360Y0405410D01*
X0450442Y0405274D01*
X0450520Y0405137D01*
X0450594Y0404997D01*
X0450665Y0404855D01*
X0450733Y0404712D01*
X0450797Y0404567D01*
X0450857Y0404421D01*
X0450913Y0404273D01*
X0450966Y0404124D01*
X0451015Y0403973D01*
X0451060Y0403821D01*
X0451101Y0403668D01*
X0451139Y0403515D01*
X0451172Y0403360D01*
X0451202Y0403204D01*
X0451228Y0403048D01*
X0451249Y0402891D01*
X0451267Y0402734D01*
X0451281Y0402576D01*
X0451291Y0402418D01*
X0451297Y0402260D01*
X0451299Y0402102D01*
X0451297Y0401944D01*
X0451291Y0401786D01*
X0451281Y0401628D01*
X0451267Y0401470D01*
X0451249Y0401313D01*
X0451228Y0401156D01*
X0451202Y0401000D01*
X0451172Y0400844D01*
X0451139Y0400689D01*
X0451101Y0400536D01*
X0451060Y0400383D01*
X0451015Y0400231D01*
X0450966Y0400080D01*
X0450913Y0399931D01*
X0450857Y0399783D01*
X0450797Y0399637D01*
X0450733Y0399492D01*
X0450665Y0399349D01*
X0450594Y0399207D01*
X0450520Y0399067D01*
X0450442Y0398930D01*
X0450360Y0398794D01*
X0450276Y0398660D01*
X0450187Y0398529D01*
X0450096Y0398400D01*
X0450001Y0398273D01*
X0449904Y0398148D01*
X0449803Y0398026D01*
X0449699Y0397907D01*
X0449592Y0397790D01*
X0449482Y0397676D01*
X0449369Y0397565D01*
X0449254Y0397456D01*
X0449136Y0397351D01*
X0449015Y0397249D01*
X0448892Y0397149D01*
X0448766Y0397053D01*
X0448638Y0396960D01*
X0448508Y0396870D01*
X0448375Y0396784D01*
X0448240Y0396700D01*
X0448104Y0396621D01*
X0447965Y0396544D01*
X0447824Y0396472D01*
X0447682Y0396402D01*
X0447538Y0396337D01*
X0447392Y0396275D01*
X0447245Y0396217D01*
X0447096Y0396162D01*
X0446946Y0396111D01*
X0446795Y0396064D01*
X0446643Y0396021D01*
X0446490Y0395982D01*
X0446335Y0395946D01*
X0446180Y0395915D01*
X0446024Y0395887D01*
X0445868Y0395863D01*
X0445711Y0395843D01*
X0445553Y0395827D01*
X0445396Y0395815D01*
X0445237Y0395807D01*
X0445079Y0395803D01*
X0444921Y0395803D01*
X0444763Y0395807D01*
X0444604Y0395815D01*
X0444447Y0395827D01*
X0444289Y0395843D01*
X0444132Y0395863D01*
X0443976Y0395887D01*
X0443820Y0395915D01*
X0443665Y0395946D01*
X0443510Y0395982D01*
X0443357Y0396021D01*
X0443205Y0396064D01*
X0443054Y0396111D01*
X0442904Y0396162D01*
X0442755Y0396217D01*
X0442608Y0396275D01*
X0442462Y0396337D01*
X0442318Y0396402D01*
X0442176Y0396472D01*
X0442035Y0396544D01*
X0441896Y0396621D01*
X0441760Y0396700D01*
X0441625Y0396784D01*
X0441492Y0396870D01*
X0441362Y0396960D01*
X0441234Y0397053D01*
X0441108Y0397149D01*
X0440985Y0397249D01*
X0440864Y0397351D01*
X0440746Y0397456D01*
X0440631Y0397565D01*
X0440518Y0397676D01*
X0440408Y0397790D01*
X0440301Y0397907D01*
X0440197Y0398026D01*
X0440096Y0398148D01*
X0439999Y0398273D01*
X0439904Y0398400D01*
X0439813Y0398529D01*
X0439724Y0398660D01*
X0439640Y0398794D01*
X0439558Y0398930D01*
X0439480Y0399067D01*
X0439406Y0399207D01*
X0439335Y0399349D01*
X0439267Y0399492D01*
X0439203Y0399637D01*
X0439143Y0399783D01*
X0439087Y0399931D01*
X0439034Y0400080D01*
X0438985Y0400231D01*
X0438940Y0400383D01*
X0438899Y0400536D01*
X0438861Y0400689D01*
X0438828Y0400844D01*
X0438798Y0401000D01*
X0438772Y0401156D01*
X0438751Y0401313D01*
X0438733Y0401470D01*
X0438719Y0401628D01*
X0438709Y0401786D01*
X0438703Y0401944D01*
X0438701Y0402102D01*
X0028701Y0402102D02*
X0028703Y0402260D01*
X0028709Y0402418D01*
X0028719Y0402576D01*
X0028733Y0402734D01*
X0028751Y0402891D01*
X0028772Y0403048D01*
X0028798Y0403204D01*
X0028828Y0403360D01*
X0028861Y0403515D01*
X0028899Y0403668D01*
X0028940Y0403821D01*
X0028985Y0403973D01*
X0029034Y0404124D01*
X0029087Y0404273D01*
X0029143Y0404421D01*
X0029203Y0404567D01*
X0029267Y0404712D01*
X0029335Y0404855D01*
X0029406Y0404997D01*
X0029480Y0405137D01*
X0029558Y0405274D01*
X0029640Y0405410D01*
X0029724Y0405544D01*
X0029813Y0405675D01*
X0029904Y0405804D01*
X0029999Y0405931D01*
X0030096Y0406056D01*
X0030197Y0406178D01*
X0030301Y0406297D01*
X0030408Y0406414D01*
X0030518Y0406528D01*
X0030631Y0406639D01*
X0030746Y0406748D01*
X0030864Y0406853D01*
X0030985Y0406955D01*
X0031108Y0407055D01*
X0031234Y0407151D01*
X0031362Y0407244D01*
X0031492Y0407334D01*
X0031625Y0407420D01*
X0031760Y0407504D01*
X0031896Y0407583D01*
X0032035Y0407660D01*
X0032176Y0407732D01*
X0032318Y0407802D01*
X0032462Y0407867D01*
X0032608Y0407929D01*
X0032755Y0407987D01*
X0032904Y0408042D01*
X0033054Y0408093D01*
X0033205Y0408140D01*
X0033357Y0408183D01*
X0033510Y0408222D01*
X0033665Y0408258D01*
X0033820Y0408289D01*
X0033976Y0408317D01*
X0034132Y0408341D01*
X0034289Y0408361D01*
X0034447Y0408377D01*
X0034604Y0408389D01*
X0034763Y0408397D01*
X0034921Y0408401D01*
X0035079Y0408401D01*
X0035237Y0408397D01*
X0035396Y0408389D01*
X0035553Y0408377D01*
X0035711Y0408361D01*
X0035868Y0408341D01*
X0036024Y0408317D01*
X0036180Y0408289D01*
X0036335Y0408258D01*
X0036490Y0408222D01*
X0036643Y0408183D01*
X0036795Y0408140D01*
X0036946Y0408093D01*
X0037096Y0408042D01*
X0037245Y0407987D01*
X0037392Y0407929D01*
X0037538Y0407867D01*
X0037682Y0407802D01*
X0037824Y0407732D01*
X0037965Y0407660D01*
X0038104Y0407583D01*
X0038240Y0407504D01*
X0038375Y0407420D01*
X0038508Y0407334D01*
X0038638Y0407244D01*
X0038766Y0407151D01*
X0038892Y0407055D01*
X0039015Y0406955D01*
X0039136Y0406853D01*
X0039254Y0406748D01*
X0039369Y0406639D01*
X0039482Y0406528D01*
X0039592Y0406414D01*
X0039699Y0406297D01*
X0039803Y0406178D01*
X0039904Y0406056D01*
X0040001Y0405931D01*
X0040096Y0405804D01*
X0040187Y0405675D01*
X0040276Y0405544D01*
X0040360Y0405410D01*
X0040442Y0405274D01*
X0040520Y0405137D01*
X0040594Y0404997D01*
X0040665Y0404855D01*
X0040733Y0404712D01*
X0040797Y0404567D01*
X0040857Y0404421D01*
X0040913Y0404273D01*
X0040966Y0404124D01*
X0041015Y0403973D01*
X0041060Y0403821D01*
X0041101Y0403668D01*
X0041139Y0403515D01*
X0041172Y0403360D01*
X0041202Y0403204D01*
X0041228Y0403048D01*
X0041249Y0402891D01*
X0041267Y0402734D01*
X0041281Y0402576D01*
X0041291Y0402418D01*
X0041297Y0402260D01*
X0041299Y0402102D01*
X0041297Y0401944D01*
X0041291Y0401786D01*
X0041281Y0401628D01*
X0041267Y0401470D01*
X0041249Y0401313D01*
X0041228Y0401156D01*
X0041202Y0401000D01*
X0041172Y0400844D01*
X0041139Y0400689D01*
X0041101Y0400536D01*
X0041060Y0400383D01*
X0041015Y0400231D01*
X0040966Y0400080D01*
X0040913Y0399931D01*
X0040857Y0399783D01*
X0040797Y0399637D01*
X0040733Y0399492D01*
X0040665Y0399349D01*
X0040594Y0399207D01*
X0040520Y0399067D01*
X0040442Y0398930D01*
X0040360Y0398794D01*
X0040276Y0398660D01*
X0040187Y0398529D01*
X0040096Y0398400D01*
X0040001Y0398273D01*
X0039904Y0398148D01*
X0039803Y0398026D01*
X0039699Y0397907D01*
X0039592Y0397790D01*
X0039482Y0397676D01*
X0039369Y0397565D01*
X0039254Y0397456D01*
X0039136Y0397351D01*
X0039015Y0397249D01*
X0038892Y0397149D01*
X0038766Y0397053D01*
X0038638Y0396960D01*
X0038508Y0396870D01*
X0038375Y0396784D01*
X0038240Y0396700D01*
X0038104Y0396621D01*
X0037965Y0396544D01*
X0037824Y0396472D01*
X0037682Y0396402D01*
X0037538Y0396337D01*
X0037392Y0396275D01*
X0037245Y0396217D01*
X0037096Y0396162D01*
X0036946Y0396111D01*
X0036795Y0396064D01*
X0036643Y0396021D01*
X0036490Y0395982D01*
X0036335Y0395946D01*
X0036180Y0395915D01*
X0036024Y0395887D01*
X0035868Y0395863D01*
X0035711Y0395843D01*
X0035553Y0395827D01*
X0035396Y0395815D01*
X0035237Y0395807D01*
X0035079Y0395803D01*
X0034921Y0395803D01*
X0034763Y0395807D01*
X0034604Y0395815D01*
X0034447Y0395827D01*
X0034289Y0395843D01*
X0034132Y0395863D01*
X0033976Y0395887D01*
X0033820Y0395915D01*
X0033665Y0395946D01*
X0033510Y0395982D01*
X0033357Y0396021D01*
X0033205Y0396064D01*
X0033054Y0396111D01*
X0032904Y0396162D01*
X0032755Y0396217D01*
X0032608Y0396275D01*
X0032462Y0396337D01*
X0032318Y0396402D01*
X0032176Y0396472D01*
X0032035Y0396544D01*
X0031896Y0396621D01*
X0031760Y0396700D01*
X0031625Y0396784D01*
X0031492Y0396870D01*
X0031362Y0396960D01*
X0031234Y0397053D01*
X0031108Y0397149D01*
X0030985Y0397249D01*
X0030864Y0397351D01*
X0030746Y0397456D01*
X0030631Y0397565D01*
X0030518Y0397676D01*
X0030408Y0397790D01*
X0030301Y0397907D01*
X0030197Y0398026D01*
X0030096Y0398148D01*
X0029999Y0398273D01*
X0029904Y0398400D01*
X0029813Y0398529D01*
X0029724Y0398660D01*
X0029640Y0398794D01*
X0029558Y0398930D01*
X0029480Y0399067D01*
X0029406Y0399207D01*
X0029335Y0399349D01*
X0029267Y0399492D01*
X0029203Y0399637D01*
X0029143Y0399783D01*
X0029087Y0399931D01*
X0029034Y0400080D01*
X0028985Y0400231D01*
X0028940Y0400383D01*
X0028899Y0400536D01*
X0028861Y0400689D01*
X0028828Y0400844D01*
X0028798Y0401000D01*
X0028772Y0401156D01*
X0028751Y0401313D01*
X0028733Y0401470D01*
X0028719Y0401628D01*
X0028709Y0401786D01*
X0028703Y0401944D01*
X0028701Y0402102D01*
X0438701Y0027102D02*
X0438703Y0027260D01*
X0438709Y0027418D01*
X0438719Y0027576D01*
X0438733Y0027734D01*
X0438751Y0027891D01*
X0438772Y0028048D01*
X0438798Y0028204D01*
X0438828Y0028360D01*
X0438861Y0028515D01*
X0438899Y0028668D01*
X0438940Y0028821D01*
X0438985Y0028973D01*
X0439034Y0029124D01*
X0439087Y0029273D01*
X0439143Y0029421D01*
X0439203Y0029567D01*
X0439267Y0029712D01*
X0439335Y0029855D01*
X0439406Y0029997D01*
X0439480Y0030137D01*
X0439558Y0030274D01*
X0439640Y0030410D01*
X0439724Y0030544D01*
X0439813Y0030675D01*
X0439904Y0030804D01*
X0439999Y0030931D01*
X0440096Y0031056D01*
X0440197Y0031178D01*
X0440301Y0031297D01*
X0440408Y0031414D01*
X0440518Y0031528D01*
X0440631Y0031639D01*
X0440746Y0031748D01*
X0440864Y0031853D01*
X0440985Y0031955D01*
X0441108Y0032055D01*
X0441234Y0032151D01*
X0441362Y0032244D01*
X0441492Y0032334D01*
X0441625Y0032420D01*
X0441760Y0032504D01*
X0441896Y0032583D01*
X0442035Y0032660D01*
X0442176Y0032732D01*
X0442318Y0032802D01*
X0442462Y0032867D01*
X0442608Y0032929D01*
X0442755Y0032987D01*
X0442904Y0033042D01*
X0443054Y0033093D01*
X0443205Y0033140D01*
X0443357Y0033183D01*
X0443510Y0033222D01*
X0443665Y0033258D01*
X0443820Y0033289D01*
X0443976Y0033317D01*
X0444132Y0033341D01*
X0444289Y0033361D01*
X0444447Y0033377D01*
X0444604Y0033389D01*
X0444763Y0033397D01*
X0444921Y0033401D01*
X0445079Y0033401D01*
X0445237Y0033397D01*
X0445396Y0033389D01*
X0445553Y0033377D01*
X0445711Y0033361D01*
X0445868Y0033341D01*
X0446024Y0033317D01*
X0446180Y0033289D01*
X0446335Y0033258D01*
X0446490Y0033222D01*
X0446643Y0033183D01*
X0446795Y0033140D01*
X0446946Y0033093D01*
X0447096Y0033042D01*
X0447245Y0032987D01*
X0447392Y0032929D01*
X0447538Y0032867D01*
X0447682Y0032802D01*
X0447824Y0032732D01*
X0447965Y0032660D01*
X0448104Y0032583D01*
X0448240Y0032504D01*
X0448375Y0032420D01*
X0448508Y0032334D01*
X0448638Y0032244D01*
X0448766Y0032151D01*
X0448892Y0032055D01*
X0449015Y0031955D01*
X0449136Y0031853D01*
X0449254Y0031748D01*
X0449369Y0031639D01*
X0449482Y0031528D01*
X0449592Y0031414D01*
X0449699Y0031297D01*
X0449803Y0031178D01*
X0449904Y0031056D01*
X0450001Y0030931D01*
X0450096Y0030804D01*
X0450187Y0030675D01*
X0450276Y0030544D01*
X0450360Y0030410D01*
X0450442Y0030274D01*
X0450520Y0030137D01*
X0450594Y0029997D01*
X0450665Y0029855D01*
X0450733Y0029712D01*
X0450797Y0029567D01*
X0450857Y0029421D01*
X0450913Y0029273D01*
X0450966Y0029124D01*
X0451015Y0028973D01*
X0451060Y0028821D01*
X0451101Y0028668D01*
X0451139Y0028515D01*
X0451172Y0028360D01*
X0451202Y0028204D01*
X0451228Y0028048D01*
X0451249Y0027891D01*
X0451267Y0027734D01*
X0451281Y0027576D01*
X0451291Y0027418D01*
X0451297Y0027260D01*
X0451299Y0027102D01*
X0451297Y0026944D01*
X0451291Y0026786D01*
X0451281Y0026628D01*
X0451267Y0026470D01*
X0451249Y0026313D01*
X0451228Y0026156D01*
X0451202Y0026000D01*
X0451172Y0025844D01*
X0451139Y0025689D01*
X0451101Y0025536D01*
X0451060Y0025383D01*
X0451015Y0025231D01*
X0450966Y0025080D01*
X0450913Y0024931D01*
X0450857Y0024783D01*
X0450797Y0024637D01*
X0450733Y0024492D01*
X0450665Y0024349D01*
X0450594Y0024207D01*
X0450520Y0024067D01*
X0450442Y0023930D01*
X0450360Y0023794D01*
X0450276Y0023660D01*
X0450187Y0023529D01*
X0450096Y0023400D01*
X0450001Y0023273D01*
X0449904Y0023148D01*
X0449803Y0023026D01*
X0449699Y0022907D01*
X0449592Y0022790D01*
X0449482Y0022676D01*
X0449369Y0022565D01*
X0449254Y0022456D01*
X0449136Y0022351D01*
X0449015Y0022249D01*
X0448892Y0022149D01*
X0448766Y0022053D01*
X0448638Y0021960D01*
X0448508Y0021870D01*
X0448375Y0021784D01*
X0448240Y0021700D01*
X0448104Y0021621D01*
X0447965Y0021544D01*
X0447824Y0021472D01*
X0447682Y0021402D01*
X0447538Y0021337D01*
X0447392Y0021275D01*
X0447245Y0021217D01*
X0447096Y0021162D01*
X0446946Y0021111D01*
X0446795Y0021064D01*
X0446643Y0021021D01*
X0446490Y0020982D01*
X0446335Y0020946D01*
X0446180Y0020915D01*
X0446024Y0020887D01*
X0445868Y0020863D01*
X0445711Y0020843D01*
X0445553Y0020827D01*
X0445396Y0020815D01*
X0445237Y0020807D01*
X0445079Y0020803D01*
X0444921Y0020803D01*
X0444763Y0020807D01*
X0444604Y0020815D01*
X0444447Y0020827D01*
X0444289Y0020843D01*
X0444132Y0020863D01*
X0443976Y0020887D01*
X0443820Y0020915D01*
X0443665Y0020946D01*
X0443510Y0020982D01*
X0443357Y0021021D01*
X0443205Y0021064D01*
X0443054Y0021111D01*
X0442904Y0021162D01*
X0442755Y0021217D01*
X0442608Y0021275D01*
X0442462Y0021337D01*
X0442318Y0021402D01*
X0442176Y0021472D01*
X0442035Y0021544D01*
X0441896Y0021621D01*
X0441760Y0021700D01*
X0441625Y0021784D01*
X0441492Y0021870D01*
X0441362Y0021960D01*
X0441234Y0022053D01*
X0441108Y0022149D01*
X0440985Y0022249D01*
X0440864Y0022351D01*
X0440746Y0022456D01*
X0440631Y0022565D01*
X0440518Y0022676D01*
X0440408Y0022790D01*
X0440301Y0022907D01*
X0440197Y0023026D01*
X0440096Y0023148D01*
X0439999Y0023273D01*
X0439904Y0023400D01*
X0439813Y0023529D01*
X0439724Y0023660D01*
X0439640Y0023794D01*
X0439558Y0023930D01*
X0439480Y0024067D01*
X0439406Y0024207D01*
X0439335Y0024349D01*
X0439267Y0024492D01*
X0439203Y0024637D01*
X0439143Y0024783D01*
X0439087Y0024931D01*
X0439034Y0025080D01*
X0438985Y0025231D01*
X0438940Y0025383D01*
X0438899Y0025536D01*
X0438861Y0025689D01*
X0438828Y0025844D01*
X0438798Y0026000D01*
X0438772Y0026156D01*
X0438751Y0026313D01*
X0438733Y0026470D01*
X0438719Y0026628D01*
X0438709Y0026786D01*
X0438703Y0026944D01*
X0438701Y0027102D01*
D11*
X0405000Y0042102D03*
X0385000Y0062102D03*
X0365000Y0062102D03*
X0352500Y0072102D03*
X0351875Y0087102D03*
X0351875Y0107102D03*
X0350000Y0117102D03*
X0340000Y0117102D03*
X0330000Y0127102D03*
X0320000Y0117102D03*
X0310000Y0117102D03*
X0300000Y0117102D03*
X0290000Y0117102D03*
X0280000Y0117102D03*
X0265000Y0117102D03*
X0255000Y0117102D03*
X0245000Y0117102D03*
X0235000Y0127102D03*
X0225000Y0117102D03*
X0215000Y0117102D03*
X0205000Y0117102D03*
X0195000Y0117102D03*
X0185000Y0117102D03*
X0170000Y0117102D03*
X0160000Y0117102D03*
X0150000Y0117102D03*
X0140000Y0127102D03*
X0130000Y0127102D03*
X0120000Y0117102D03*
X0110000Y0117102D03*
X0100000Y0117102D03*
X0090000Y0117102D03*
X0065000Y0117102D03*
X0055000Y0117102D03*
X0045000Y0117102D03*
X0035000Y0127102D03*
X0035000Y0147102D03*
X0045000Y0147102D03*
X0055000Y0147102D03*
X0065000Y0147102D03*
X0065000Y0157102D03*
X0065000Y0167102D03*
X0055000Y0167102D03*
X0045000Y0167102D03*
X0045000Y0157102D03*
X0090000Y0147102D03*
X0100000Y0147102D03*
X0110000Y0147102D03*
X0115000Y0157102D03*
X0120000Y0147102D03*
X0130000Y0147102D03*
X0140000Y0147102D03*
X0150000Y0147102D03*
X0160000Y0147102D03*
X0170000Y0147102D03*
X0170000Y0157102D03*
X0170000Y0167102D03*
X0160000Y0167102D03*
X0150000Y0167102D03*
X0150000Y0157102D03*
X0115000Y0167102D03*
X0095000Y0167102D03*
X0095000Y0157102D03*
X0095000Y0197102D03*
X0095000Y0213602D03*
X0115000Y0213602D03*
X0115000Y0197102D03*
X0150000Y0197102D03*
X0160000Y0197102D03*
X0170000Y0197102D03*
X0170000Y0213602D03*
X0150000Y0213602D03*
X0200000Y0213602D03*
X0200000Y0197102D03*
X0220000Y0197102D03*
X0220000Y0213602D03*
X0245000Y0213602D03*
X0245000Y0197102D03*
X0255000Y0197102D03*
X0265000Y0197102D03*
X0265000Y0213602D03*
X0295000Y0213602D03*
X0295000Y0197102D03*
X0315000Y0197102D03*
X0315000Y0213602D03*
X0340000Y0213602D03*
X0340000Y0197102D03*
X0350000Y0197102D03*
X0360000Y0197102D03*
X0360000Y0213602D03*
X0355625Y0237727D03*
X0341875Y0247727D03*
X0335625Y0237727D03*
X0321875Y0247727D03*
X0321875Y0256477D03*
X0324375Y0270227D03*
X0310000Y0279352D03*
X0296875Y0287102D03*
X0296875Y0267727D03*
X0296875Y0247727D03*
X0324375Y0290227D03*
X0338125Y0300852D03*
X0348750Y0300852D03*
X0359375Y0300852D03*
X0386875Y0301102D03*
X0398750Y0281477D03*
X0394375Y0271477D03*
X0418750Y0281477D03*
X0434375Y0271477D03*
X0410000Y0213602D03*
X0410000Y0197102D03*
X0390000Y0197102D03*
X0390000Y0213602D03*
X0351875Y0256477D03*
X0296875Y0307102D03*
X0293750Y0314602D03*
X0283125Y0314602D03*
X0272500Y0314602D03*
X0261875Y0314602D03*
X0250000Y0327102D03*
X0245000Y0337102D03*
X0261875Y0344602D03*
X0272500Y0344602D03*
X0283125Y0344602D03*
X0293750Y0344602D03*
X0308750Y0347727D03*
X0308750Y0327727D03*
X0335000Y0338977D03*
X0338125Y0330852D03*
X0348750Y0330852D03*
X0359375Y0330852D03*
X0365000Y0338977D03*
X0365000Y0348977D03*
X0365000Y0359602D03*
X0377500Y0363977D03*
X0387500Y0363977D03*
X0395000Y0358352D03*
X0400000Y0365852D03*
X0405000Y0358352D03*
X0416875Y0363977D03*
X0426875Y0363977D03*
X0435625Y0358352D03*
X0440625Y0365852D03*
X0445625Y0358352D03*
X0335000Y0359602D03*
X0335000Y0348977D03*
X0239375Y0316477D03*
X0223125Y0307102D03*
X0212500Y0307102D03*
X0209375Y0316477D03*
X0200000Y0317102D03*
X0190000Y0317102D03*
X0202500Y0307102D03*
X0220000Y0327102D03*
X0215000Y0337102D03*
X0229000Y0357102D03*
X0175000Y0362102D03*
X0175000Y0402102D03*
X0130000Y0377102D03*
X0130000Y0357102D03*
X0120000Y0357102D03*
X0111875Y0347102D03*
X0131875Y0347102D03*
X0170000Y0322102D03*
X0155000Y0307102D03*
X0140000Y0292102D03*
X0140000Y0272102D03*
X0170000Y0282102D03*
X0180000Y0282102D03*
X0180000Y0302102D03*
X0202500Y0277102D03*
X0212500Y0277102D03*
X0223125Y0277102D03*
X0233750Y0280227D03*
X0233750Y0260227D03*
X0239375Y0247477D03*
X0245000Y0167102D03*
X0255000Y0167102D03*
X0265000Y0167102D03*
X0265000Y0157102D03*
X0265000Y0147102D03*
X0255000Y0147102D03*
X0245000Y0147102D03*
X0235000Y0147102D03*
X0245000Y0157102D03*
X0225000Y0147102D03*
X0215000Y0147102D03*
X0205000Y0147102D03*
X0195000Y0147102D03*
X0200000Y0157102D03*
X0200000Y0167102D03*
X0220000Y0167102D03*
X0220000Y0157102D03*
X0185000Y0137102D03*
X0161250Y0107102D03*
X0161250Y0087102D03*
X0162500Y0072102D03*
X0175000Y0062102D03*
X0195000Y0062102D03*
X0215000Y0072102D03*
X0218125Y0087102D03*
X0218125Y0107102D03*
X0256875Y0107102D03*
X0256875Y0087102D03*
X0257500Y0071477D03*
X0270000Y0062102D03*
X0290000Y0062102D03*
X0310000Y0072102D03*
X0313125Y0087102D03*
X0313125Y0107102D03*
X0280000Y0137102D03*
X0290000Y0147102D03*
X0300000Y0147102D03*
X0310000Y0147102D03*
X0320000Y0147102D03*
X0330000Y0147102D03*
X0340000Y0147102D03*
X0350000Y0147102D03*
X0360000Y0147102D03*
X0360000Y0157102D03*
X0360000Y0167102D03*
X0350000Y0167102D03*
X0340000Y0167102D03*
X0340000Y0157102D03*
X0315000Y0157102D03*
X0315000Y0167102D03*
X0295000Y0167102D03*
X0295000Y0157102D03*
X0360000Y0117102D03*
X0375000Y0117102D03*
X0385000Y0117102D03*
X0395000Y0117102D03*
X0405000Y0117102D03*
X0415000Y0117102D03*
X0408125Y0107102D03*
X0408125Y0087102D03*
X0405000Y0072102D03*
X0352500Y0042102D03*
X0310000Y0042102D03*
X0257500Y0041477D03*
X0215000Y0042102D03*
X0162500Y0042102D03*
X0113125Y0087102D03*
X0110000Y0072102D03*
X0090000Y0062102D03*
X0070000Y0062102D03*
X0057500Y0072102D03*
X0056250Y0087102D03*
X0056250Y0107102D03*
X0113125Y0107102D03*
X0110000Y0042102D03*
X0057500Y0042102D03*
X0055000Y0197102D03*
X0045000Y0197102D03*
X0045000Y0213602D03*
X0065000Y0213602D03*
X0065000Y0197102D03*
X0115000Y0307102D03*
X0120000Y0397102D03*
X0390000Y0167102D03*
X0390000Y0157102D03*
X0385000Y0147102D03*
X0395000Y0147102D03*
X0405000Y0147102D03*
X0415000Y0147102D03*
X0410000Y0157102D03*
X0410000Y0167102D03*
X0375000Y0137102D03*
D12*
X0287638Y0267338D03*
X0285669Y0267338D03*
X0283701Y0267338D03*
X0281732Y0267338D03*
X0279764Y0267338D03*
X0277795Y0267338D03*
X0275827Y0267338D03*
X0273858Y0267338D03*
X0271890Y0267338D03*
X0269921Y0267338D03*
X0267953Y0267338D03*
X0265984Y0267338D03*
X0264016Y0267338D03*
X0262047Y0267338D03*
X0260079Y0267338D03*
X0258110Y0267338D03*
X0256142Y0267338D03*
X0254173Y0267338D03*
X0252205Y0267338D03*
X0250236Y0267338D03*
X0248268Y0267338D03*
X0246299Y0267338D03*
X0244331Y0267338D03*
X0242362Y0267338D03*
X0242362Y0296866D03*
X0244331Y0296866D03*
X0246299Y0296866D03*
X0248268Y0296866D03*
X0250236Y0296866D03*
X0252205Y0296866D03*
X0254173Y0296866D03*
X0256142Y0296866D03*
X0258110Y0296866D03*
X0260079Y0296866D03*
X0262047Y0296866D03*
X0264016Y0296866D03*
X0265984Y0296866D03*
X0267953Y0296866D03*
X0269921Y0296866D03*
X0271890Y0296866D03*
X0273858Y0296866D03*
X0275827Y0296866D03*
X0277795Y0296866D03*
X0279764Y0296866D03*
X0281732Y0296866D03*
X0283701Y0296866D03*
X0285669Y0296866D03*
X0287638Y0296866D03*
D13*
X0265000Y0282102D03*
D14*
X0239375Y0255477D03*
X0245000Y0205602D03*
X0265000Y0205602D03*
X0295000Y0205602D03*
X0315000Y0205602D03*
X0340000Y0205602D03*
X0360000Y0205602D03*
X0390000Y0205602D03*
X0410000Y0205602D03*
X0386875Y0293102D03*
X0310000Y0287352D03*
X0221000Y0357102D03*
X0220000Y0205602D03*
X0200000Y0205602D03*
X0170000Y0205602D03*
X0150000Y0205602D03*
X0115000Y0205602D03*
X0095000Y0205602D03*
X0065000Y0205602D03*
X0045000Y0205602D03*
D15*
X0067100Y0107102D02*
X0072900Y0107102D01*
X0072900Y0097102D02*
X0067100Y0097102D01*
X0067100Y0087102D02*
X0072900Y0087102D01*
X0072900Y0077102D02*
X0067100Y0077102D01*
X0097100Y0077102D02*
X0102900Y0077102D01*
X0102900Y0087102D02*
X0097100Y0087102D01*
X0097100Y0097102D02*
X0102900Y0097102D01*
X0102900Y0107102D02*
X0097100Y0107102D01*
X0172100Y0107102D02*
X0177900Y0107102D01*
X0177900Y0097102D02*
X0172100Y0097102D01*
X0172100Y0087102D02*
X0177900Y0087102D01*
X0177900Y0077102D02*
X0172100Y0077102D01*
X0202100Y0077102D02*
X0207900Y0077102D01*
X0207900Y0087102D02*
X0202100Y0087102D01*
X0202100Y0097102D02*
X0207900Y0097102D01*
X0207900Y0107102D02*
X0202100Y0107102D01*
X0267100Y0107102D02*
X0272900Y0107102D01*
X0272900Y0097102D02*
X0267100Y0097102D01*
X0267100Y0087102D02*
X0272900Y0087102D01*
X0272900Y0077102D02*
X0267100Y0077102D01*
X0297100Y0077102D02*
X0302900Y0077102D01*
X0302900Y0087102D02*
X0297100Y0087102D01*
X0297100Y0097102D02*
X0302900Y0097102D01*
X0302900Y0107102D02*
X0297100Y0107102D01*
X0362100Y0107102D02*
X0367900Y0107102D01*
X0367900Y0097102D02*
X0362100Y0097102D01*
X0362100Y0087102D02*
X0367900Y0087102D01*
X0367900Y0077102D02*
X0362100Y0077102D01*
X0392100Y0077102D02*
X0397900Y0077102D01*
X0397900Y0087102D02*
X0392100Y0087102D01*
X0392100Y0097102D02*
X0397900Y0097102D01*
X0397900Y0107102D02*
X0392100Y0107102D01*
D16*
X0158300Y0272102D02*
X0151700Y0272102D01*
X0151700Y0282102D02*
X0158300Y0282102D01*
X0158300Y0292102D02*
X0151700Y0292102D01*
X0151700Y0367102D02*
X0158300Y0367102D01*
X0158300Y0377102D02*
X0151700Y0377102D01*
X0151700Y0387102D02*
X0158300Y0387102D01*
D17*
X0080000Y0382102D03*
X0080000Y0287102D03*
D18*
X0080000Y0257102D03*
X0080000Y0352102D03*
D19*
X0035000Y0352102D03*
X0035000Y0382102D03*
X0125000Y0297102D03*
X0125000Y0267102D03*
X0125000Y0257102D03*
X0155000Y0257102D03*
X0150000Y0347102D03*
X0140000Y0347102D03*
X0140000Y0377102D03*
X0180000Y0347102D03*
X0035000Y0287102D03*
X0035000Y0257102D03*
D20*
X0145000Y0322102D03*
X0180000Y0337102D03*
X0133750Y0392102D03*
X0190000Y0252102D03*
X0235000Y0049602D03*
X0335000Y0049602D03*
X0135000Y0049602D03*
D21*
X0135000Y0059602D03*
X0235000Y0059602D03*
X0335000Y0059602D03*
X0180000Y0252102D03*
X0155000Y0322102D03*
X0180000Y0327102D03*
X0133750Y0402102D03*
D22*
X0035000Y0319602D03*
X0048750Y0300852D03*
D23*
X0060000Y0319602D03*
D24*
X0333366Y0291089D03*
X0335925Y0291089D03*
X0338484Y0291089D03*
X0341043Y0291089D03*
X0343602Y0291089D03*
X0346161Y0291089D03*
X0348720Y0291089D03*
X0351280Y0291089D03*
X0353839Y0291089D03*
X0356398Y0291089D03*
X0358957Y0291089D03*
X0361516Y0291089D03*
X0364075Y0291089D03*
X0366634Y0291089D03*
X0366634Y0268115D03*
X0364075Y0268115D03*
X0361516Y0268115D03*
X0358957Y0268115D03*
X0356398Y0268115D03*
X0353839Y0268115D03*
X0351280Y0268115D03*
X0348720Y0268115D03*
X0346161Y0268115D03*
X0343602Y0268115D03*
X0341043Y0268115D03*
X0338484Y0268115D03*
X0335925Y0268115D03*
X0333366Y0268115D03*
D25*
X0365000Y0252102D03*
X0365000Y0242102D03*
X0375000Y0242102D03*
X0375000Y0252102D03*
D26*
X0205000Y0382102D03*
D27*
X0215000Y0382102D03*
X0225000Y0382102D03*
X0225000Y0392102D03*
X0215000Y0392102D03*
X0205000Y0392102D03*
X0235000Y0392102D03*
X0235000Y0382102D03*
X0245000Y0382102D03*
X0255000Y0382102D03*
X0265000Y0382102D03*
X0275000Y0382102D03*
X0285000Y0382102D03*
X0295000Y0382102D03*
X0305000Y0382102D03*
X0315000Y0382102D03*
X0325000Y0382102D03*
X0335000Y0382102D03*
X0335000Y0392102D03*
X0325000Y0392102D03*
X0315000Y0392102D03*
X0305000Y0392102D03*
X0295000Y0392102D03*
X0285000Y0392102D03*
X0275000Y0392102D03*
X0265000Y0392102D03*
X0255000Y0392102D03*
X0245000Y0392102D03*
X0345000Y0392102D03*
X0345000Y0382102D03*
X0355000Y0382102D03*
X0365000Y0382102D03*
X0375000Y0382102D03*
X0385000Y0382102D03*
X0395000Y0382102D03*
X0405000Y0382102D03*
X0415000Y0382102D03*
X0425000Y0382102D03*
X0425000Y0392102D03*
X0415000Y0392102D03*
X0405000Y0392102D03*
X0395000Y0392102D03*
X0385000Y0392102D03*
X0375000Y0392102D03*
X0365000Y0392102D03*
X0355000Y0392102D03*
D28*
X0326250Y0358352D03*
X0317500Y0358352D03*
X0267500Y0305227D03*
X0349375Y0283977D03*
X0419375Y0301477D03*
X0419375Y0311477D03*
X0419375Y0321477D03*
X0290000Y0049602D03*
X0195000Y0049602D03*
X0090000Y0049602D03*
D29*
X0316161Y0326836D03*
X0318720Y0326836D03*
X0321280Y0326836D03*
X0323839Y0326836D03*
X0323839Y0349868D03*
X0321280Y0349868D03*
X0318720Y0349868D03*
X0316161Y0349868D03*
D30*
X0200000Y0350202D02*
X0200000Y0344002D01*
X0190000Y0344002D02*
X0190000Y0350202D01*
X0185000Y0359002D02*
X0185000Y0365202D01*
X0195000Y0365202D02*
X0195000Y0359002D01*
D31*
X0376875Y0342246D02*
X0376875Y0335709D01*
X0386875Y0335709D02*
X0386875Y0342246D01*
X0415000Y0344459D02*
X0415000Y0350996D01*
X0425000Y0350996D02*
X0425000Y0344459D01*
X0394375Y0032871D02*
X0394375Y0026334D01*
X0384375Y0026334D02*
X0384375Y0032871D01*
X0371250Y0032871D02*
X0371250Y0026334D01*
X0361250Y0026334D02*
X0361250Y0032871D01*
X0299375Y0032871D02*
X0299375Y0026334D01*
X0289375Y0026334D02*
X0289375Y0032871D01*
X0276250Y0032871D02*
X0276250Y0026334D01*
X0266250Y0026334D02*
X0266250Y0032871D01*
X0205625Y0032871D02*
X0205625Y0026334D01*
X0195625Y0026334D02*
X0195625Y0032871D01*
X0181875Y0032871D02*
X0181875Y0026334D01*
X0171875Y0026334D02*
X0171875Y0032871D01*
X0100625Y0032871D02*
X0100625Y0026334D01*
X0090625Y0026334D02*
X0090625Y0032871D01*
X0077500Y0032871D02*
X0077500Y0026334D01*
X0067500Y0026334D02*
X0067500Y0032871D01*
D32*
X0077500Y0029602D02*
X0077500Y0037727D01*
X0073125Y0042102D01*
X0057500Y0042102D01*
X0100625Y0029602D02*
X0106875Y0029602D01*
X0110000Y0032727D01*
X0110000Y0042102D01*
X0162500Y0042102D02*
X0178125Y0042102D01*
X0181875Y0038352D01*
X0181875Y0029602D01*
X0205625Y0029602D02*
X0211875Y0029602D01*
X0215000Y0032727D01*
X0215000Y0042102D01*
X0257500Y0041477D02*
X0273750Y0041477D01*
X0276250Y0038977D01*
X0276250Y0029602D01*
X0299375Y0029602D02*
X0306875Y0029602D01*
X0310000Y0032727D01*
X0310000Y0042102D01*
X0352500Y0042102D02*
X0368125Y0042102D01*
X0371250Y0038977D01*
X0371250Y0029602D01*
X0394375Y0029602D02*
X0403125Y0029602D01*
X0405000Y0031477D01*
X0405000Y0042102D01*
X0410000Y0213602D02*
X0410000Y0222102D01*
X0405000Y0227102D01*
X0366875Y0227102D01*
X0363125Y0230852D01*
X0286250Y0230852D01*
X0279764Y0237338D01*
X0279764Y0267338D01*
X0277795Y0267338D02*
X0277795Y0236182D01*
X0285625Y0228352D01*
X0360000Y0228352D01*
X0366875Y0221477D01*
X0386250Y0221477D01*
X0390000Y0217727D01*
X0390000Y0213602D01*
X0364986Y0232102D02*
X0364036Y0233052D01*
X0305000Y0233052D01*
X0305000Y0277102D01*
X0296236Y0277102D01*
X0295911Y0277427D01*
X0287214Y0277427D01*
X0286889Y0277102D01*
X0280200Y0277102D01*
X0280200Y0289499D01*
X0279204Y0290495D01*
X0256373Y0290495D01*
X0256373Y0293000D01*
X0265310Y0293000D01*
X0265510Y0293200D01*
X0265984Y0293200D01*
X0265984Y0293674D01*
X0265984Y0293674D01*
X0265984Y0293200D01*
X0266458Y0293200D01*
X0266658Y0293000D01*
X0288933Y0293000D01*
X0289928Y0293996D01*
X0289928Y0299735D01*
X0288933Y0300731D01*
X0279995Y0300731D01*
X0279995Y0304611D01*
X0280911Y0305527D01*
X0287786Y0305527D01*
X0292261Y0310002D01*
X0293270Y0310002D01*
X0292275Y0309007D01*
X0292275Y0305197D01*
X0294970Y0302502D01*
X0298780Y0302502D01*
X0301475Y0305197D01*
X0301475Y0309007D01*
X0298780Y0311702D01*
X0297355Y0311702D01*
X0298350Y0312697D01*
X0298350Y0316507D01*
X0295655Y0319202D01*
X0291845Y0319202D01*
X0289150Y0316507D01*
X0289150Y0313113D01*
X0285964Y0309927D01*
X0281561Y0309927D01*
X0281636Y0310002D01*
X0285030Y0310002D01*
X0287725Y0312697D01*
X0287725Y0316507D01*
X0285030Y0319202D01*
X0281220Y0319202D01*
X0278525Y0316507D01*
X0278525Y0313113D01*
X0276058Y0310647D01*
X0276058Y0311655D01*
X0277100Y0312697D01*
X0277100Y0316507D01*
X0274405Y0319202D01*
X0270595Y0319202D01*
X0267900Y0316507D01*
X0267900Y0312697D01*
X0270595Y0310002D01*
X0271658Y0310002D01*
X0271658Y0307404D01*
X0271463Y0307875D01*
X0270148Y0309190D01*
X0268430Y0309902D01*
X0266570Y0309902D01*
X0264852Y0309190D01*
X0264247Y0308585D01*
X0264247Y0310469D01*
X0266475Y0312697D01*
X0266475Y0316507D01*
X0263780Y0319202D01*
X0259970Y0319202D01*
X0257275Y0316507D01*
X0257275Y0312938D01*
X0257200Y0313013D01*
X0257200Y0353691D01*
X0259675Y0356166D01*
X0259675Y0348907D01*
X0257275Y0346507D01*
X0257275Y0342697D01*
X0259970Y0340002D01*
X0263780Y0340002D01*
X0266475Y0342697D01*
X0266475Y0346507D01*
X0264075Y0348907D01*
X0264075Y0356191D01*
X0270300Y0362416D01*
X0270300Y0348907D01*
X0267900Y0346507D01*
X0267900Y0342697D01*
X0270595Y0340002D01*
X0274405Y0340002D01*
X0277100Y0342697D01*
X0277100Y0346507D01*
X0274700Y0348907D01*
X0274700Y0361191D01*
X0282161Y0368652D01*
X0299689Y0368652D01*
X0292839Y0361802D01*
X0291550Y0360513D01*
X0291550Y0348907D01*
X0289150Y0346507D01*
X0289150Y0342697D01*
X0291845Y0340002D01*
X0295414Y0340002D01*
X0295339Y0339927D01*
X0285911Y0339927D01*
X0285433Y0340405D01*
X0287725Y0342697D01*
X0287725Y0346507D01*
X0285030Y0349202D01*
X0281220Y0349202D01*
X0278525Y0346507D01*
X0278525Y0342697D01*
X0280925Y0340297D01*
X0280925Y0338691D01*
X0282214Y0337402D01*
X0284089Y0335527D01*
X0297161Y0335527D01*
X0298450Y0336816D01*
X0301575Y0339941D01*
X0301575Y0358066D01*
X0304661Y0361152D01*
X0313689Y0361152D01*
X0313537Y0361000D01*
X0312825Y0359282D01*
X0312825Y0357422D01*
X0313537Y0355704D01*
X0314852Y0354389D01*
X0316570Y0353677D01*
X0318430Y0353677D01*
X0319050Y0353934D01*
X0319050Y0353536D01*
X0317327Y0353536D01*
X0317111Y0353320D01*
X0317048Y0353336D01*
X0316161Y0353336D01*
X0315275Y0353336D01*
X0314893Y0353234D01*
X0314551Y0353037D01*
X0314272Y0352757D01*
X0314075Y0352415D01*
X0313972Y0352034D01*
X0313972Y0349868D01*
X0316161Y0349868D01*
X0316161Y0349868D01*
X0316161Y0353336D01*
X0316161Y0349868D01*
X0316161Y0349868D01*
X0313972Y0349868D01*
X0313972Y0347702D01*
X0314075Y0347320D01*
X0314272Y0346978D01*
X0314551Y0346699D01*
X0314893Y0346502D01*
X0315275Y0346399D01*
X0316161Y0346399D01*
X0316161Y0349868D01*
X0316161Y0349868D01*
X0316161Y0346399D01*
X0317048Y0346399D01*
X0317111Y0346416D01*
X0317327Y0346199D01*
X0319080Y0346199D01*
X0319080Y0344286D01*
X0320300Y0343066D01*
X0321589Y0341777D01*
X0330911Y0341777D01*
X0332200Y0343066D01*
X0333511Y0344377D01*
X0336905Y0344377D01*
X0339600Y0347072D01*
X0339600Y0350882D01*
X0336905Y0353577D01*
X0333095Y0353577D01*
X0330400Y0350882D01*
X0330400Y0347488D01*
X0329089Y0346177D01*
X0323480Y0346177D01*
X0323480Y0346199D01*
X0325232Y0346199D01*
X0326228Y0347195D01*
X0326228Y0352540D01*
X0325950Y0352818D01*
X0325950Y0353677D01*
X0327180Y0353677D01*
X0328898Y0354389D01*
X0330213Y0355704D01*
X0330399Y0356152D01*
X0331945Y0356152D01*
X0333095Y0355002D01*
X0336905Y0355002D01*
X0339600Y0357697D01*
X0339600Y0361507D01*
X0336905Y0364202D01*
X0333961Y0364202D01*
X0339661Y0369902D01*
X0345911Y0369902D01*
X0347200Y0371191D01*
X0353111Y0377102D01*
X0356889Y0377102D01*
X0344089Y0364302D01*
X0344089Y0364302D01*
X0342800Y0363013D01*
X0342800Y0338638D01*
X0339614Y0335452D01*
X0337980Y0335452D01*
X0339600Y0337072D01*
X0339600Y0340882D01*
X0336905Y0343577D01*
X0333095Y0343577D01*
X0330695Y0341177D01*
X0323464Y0341177D01*
X0320339Y0338052D01*
X0319050Y0336763D01*
X0319050Y0330505D01*
X0314768Y0330505D01*
X0313772Y0329509D01*
X0313772Y0324927D01*
X0312455Y0324927D01*
X0313350Y0325822D01*
X0313350Y0329632D01*
X0310655Y0332327D01*
X0306845Y0332327D01*
X0304150Y0329632D01*
X0304150Y0325822D01*
X0306845Y0323127D01*
X0307739Y0323127D01*
X0307839Y0323027D01*
X0310339Y0320527D01*
X0324036Y0320527D01*
X0325325Y0321816D01*
X0326039Y0322529D01*
X0326039Y0323975D01*
X0326228Y0324164D01*
X0326228Y0329509D01*
X0325232Y0330505D01*
X0323450Y0330505D01*
X0323450Y0334941D01*
X0325286Y0336777D01*
X0330695Y0336777D01*
X0333095Y0334377D01*
X0335145Y0334377D01*
X0333525Y0332757D01*
X0333525Y0328947D01*
X0336220Y0326252D01*
X0340030Y0326252D01*
X0342725Y0328947D01*
X0342725Y0332341D01*
X0347200Y0336816D01*
X0347200Y0361191D01*
X0360911Y0374902D01*
X0360911Y0374902D01*
X0362200Y0376191D01*
X0362200Y0377831D01*
X0362929Y0377102D01*
X0367071Y0377102D01*
X0367800Y0377831D01*
X0367800Y0363025D01*
X0366823Y0364002D01*
X0365300Y0364002D01*
X0365300Y0359902D01*
X0364700Y0359902D01*
X0364700Y0359302D01*
X0365300Y0359302D01*
X0365300Y0355202D01*
X0366823Y0355202D01*
X0367800Y0356180D01*
X0367800Y0352400D01*
X0366823Y0353377D01*
X0365300Y0353377D01*
X0365300Y0349277D01*
X0364700Y0349277D01*
X0364700Y0348677D01*
X0365300Y0348677D01*
X0365300Y0344577D01*
X0366823Y0344577D01*
X0367800Y0345555D01*
X0367800Y0342400D01*
X0366823Y0343377D01*
X0365300Y0343377D01*
X0365300Y0339277D01*
X0364700Y0339277D01*
X0364700Y0338677D01*
X0365300Y0338677D01*
X0365300Y0334577D01*
X0366823Y0334577D01*
X0367800Y0335555D01*
X0367800Y0300513D01*
X0364434Y0297147D01*
X0364434Y0294739D01*
X0357653Y0294739D01*
X0357398Y0294485D01*
X0357195Y0294539D01*
X0356398Y0294539D01*
X0356398Y0291090D01*
X0356398Y0291090D01*
X0356398Y0294539D01*
X0355600Y0294539D01*
X0355397Y0294485D01*
X0355143Y0294739D01*
X0353249Y0294739D01*
X0356115Y0297606D01*
X0357470Y0296252D01*
X0361280Y0296252D01*
X0363975Y0298947D01*
X0363975Y0302757D01*
X0361280Y0305452D01*
X0357470Y0305452D01*
X0354775Y0302757D01*
X0354775Y0302488D01*
X0354050Y0301763D01*
X0353350Y0301063D01*
X0353350Y0302757D01*
X0350655Y0305452D01*
X0346845Y0305452D01*
X0344150Y0302757D01*
X0344150Y0301177D01*
X0344089Y0301177D01*
X0342800Y0299888D01*
X0342725Y0299813D01*
X0342725Y0302757D01*
X0340030Y0305452D01*
X0336220Y0305452D01*
X0333525Y0302757D01*
X0333525Y0298947D01*
X0336220Y0296252D01*
X0336284Y0296252D01*
X0336284Y0294739D01*
X0332062Y0294739D01*
X0331066Y0293744D01*
X0331066Y0288435D01*
X0332062Y0287439D01*
X0346226Y0287439D01*
X0345412Y0286625D01*
X0344700Y0284907D01*
X0344700Y0283047D01*
X0345412Y0281329D01*
X0346727Y0280014D01*
X0348445Y0279302D01*
X0350305Y0279302D01*
X0352023Y0280014D01*
X0353338Y0281329D01*
X0353603Y0281969D01*
X0354700Y0283066D01*
X0356039Y0284404D01*
X0356039Y0287639D01*
X0356398Y0287639D01*
X0357195Y0287639D01*
X0357398Y0287694D01*
X0357653Y0287439D01*
X0367938Y0287439D01*
X0368934Y0288435D01*
X0368934Y0293744D01*
X0368834Y0293844D01*
X0368834Y0295325D01*
X0372200Y0298691D01*
X0372200Y0334012D01*
X0372663Y0332894D01*
X0374061Y0331496D01*
X0375887Y0330740D01*
X0377863Y0330740D01*
X0379689Y0331496D01*
X0381087Y0332894D01*
X0381843Y0334720D01*
X0381843Y0343234D01*
X0381087Y0345060D01*
X0379689Y0346458D01*
X0379075Y0346712D01*
X0379075Y0359377D01*
X0379405Y0359377D01*
X0382100Y0362072D01*
X0382100Y0365882D01*
X0379405Y0368577D01*
X0375595Y0368577D01*
X0372900Y0365882D01*
X0372900Y0362072D01*
X0374675Y0360297D01*
X0374675Y0346712D01*
X0374061Y0346458D01*
X0372663Y0345060D01*
X0372200Y0343942D01*
X0372200Y0377831D01*
X0372929Y0377102D01*
X0377071Y0377102D01*
X0380000Y0380031D01*
X0382929Y0377102D01*
X0387071Y0377102D01*
X0390000Y0380031D01*
X0392929Y0377102D01*
X0397071Y0377102D01*
X0400000Y0380031D01*
X0402929Y0377102D01*
X0407071Y0377102D01*
X0410000Y0380031D01*
X0412929Y0377102D01*
X0417071Y0377102D01*
X0420000Y0380031D01*
X0422929Y0377102D01*
X0427071Y0377102D01*
X0430000Y0380031D01*
X0430000Y0384173D01*
X0427071Y0387102D01*
X0422929Y0387102D01*
X0420000Y0384173D01*
X0420000Y0380031D01*
X0420000Y0384173D01*
X0417071Y0387102D01*
X0412929Y0387102D01*
X0410000Y0384173D01*
X0410000Y0380031D01*
X0410000Y0384173D01*
X0407071Y0387102D01*
X0402929Y0387102D01*
X0400000Y0384173D01*
X0400000Y0380031D01*
X0400000Y0384173D01*
X0397071Y0387102D01*
X0392929Y0387102D01*
X0390000Y0384173D01*
X0390000Y0380031D01*
X0390000Y0384173D01*
X0387071Y0387102D01*
X0382929Y0387102D01*
X0380000Y0384173D01*
X0380000Y0380031D01*
X0380000Y0384173D01*
X0377071Y0387102D01*
X0372929Y0387102D01*
X0372200Y0386373D01*
X0372200Y0387831D01*
X0372929Y0387102D01*
X0377071Y0387102D01*
X0380000Y0390031D01*
X0382929Y0387102D01*
X0387071Y0387102D01*
X0390000Y0390031D01*
X0392929Y0387102D01*
X0397071Y0387102D01*
X0400000Y0390031D01*
X0402929Y0387102D01*
X0407071Y0387102D01*
X0410000Y0390031D01*
X0412929Y0387102D01*
X0417071Y0387102D01*
X0420000Y0390031D01*
X0422929Y0387102D01*
X0427071Y0387102D01*
X0430000Y0390031D01*
X0430000Y0394173D01*
X0427071Y0397102D01*
X0422929Y0397102D01*
X0420000Y0394173D01*
X0420000Y0390031D01*
X0420000Y0394173D01*
X0417071Y0397102D01*
X0412929Y0397102D01*
X0410000Y0394173D01*
X0410000Y0390031D01*
X0410000Y0394173D01*
X0407071Y0397102D01*
X0402929Y0397102D01*
X0400000Y0394173D01*
X0400000Y0390031D01*
X0400000Y0394173D01*
X0397071Y0397102D01*
X0392929Y0397102D01*
X0390000Y0394173D01*
X0390000Y0390031D01*
X0390000Y0394173D01*
X0387071Y0397102D01*
X0382929Y0397102D01*
X0380000Y0394173D01*
X0380000Y0390031D01*
X0380000Y0394173D01*
X0377071Y0397102D01*
X0372929Y0397102D01*
X0372200Y0396373D01*
X0372200Y0398013D01*
X0370911Y0399302D01*
X0365911Y0404302D01*
X0279089Y0404302D01*
X0274089Y0399302D01*
X0272800Y0398013D01*
X0272800Y0396973D01*
X0270000Y0394173D01*
X0267071Y0397102D01*
X0262929Y0397102D01*
X0260000Y0394173D01*
X0260000Y0390031D01*
X0262929Y0387102D01*
X0260000Y0384173D01*
X0260000Y0380031D01*
X0262929Y0377102D01*
X0267071Y0377102D01*
X0270000Y0380031D01*
X0272800Y0377231D01*
X0272800Y0375513D01*
X0252800Y0355513D01*
X0252800Y0330807D01*
X0251905Y0331702D01*
X0248095Y0331702D01*
X0247200Y0330807D01*
X0247200Y0332797D01*
X0249600Y0335197D01*
X0249600Y0339007D01*
X0246905Y0341702D01*
X0243095Y0341702D01*
X0240400Y0339007D01*
X0240400Y0335197D01*
X0242800Y0332797D01*
X0242800Y0319557D01*
X0241280Y0321077D01*
X0237470Y0321077D01*
X0234775Y0318382D01*
X0234775Y0314572D01*
X0237175Y0312172D01*
X0237175Y0302441D01*
X0238464Y0301152D01*
X0240072Y0299544D01*
X0240072Y0293996D01*
X0240391Y0293677D01*
X0226536Y0293677D01*
X0225325Y0294888D01*
X0225325Y0302797D01*
X0227725Y0305197D01*
X0227725Y0309007D01*
X0225030Y0311702D01*
X0221220Y0311702D01*
X0218525Y0309007D01*
X0218525Y0305197D01*
X0220925Y0302797D01*
X0220925Y0293066D01*
X0222814Y0291177D01*
X0216536Y0291177D01*
X0214700Y0293013D01*
X0214700Y0302797D01*
X0217100Y0305197D01*
X0217100Y0309007D01*
X0214405Y0311702D01*
X0210595Y0311702D01*
X0207900Y0309007D01*
X0207900Y0305197D01*
X0210300Y0302797D01*
X0210300Y0291191D01*
X0211589Y0289902D01*
X0212814Y0288677D01*
X0206536Y0288677D01*
X0204700Y0290513D01*
X0204700Y0302797D01*
X0207100Y0305197D01*
X0207100Y0309007D01*
X0204405Y0311702D01*
X0200595Y0311702D01*
X0197900Y0309007D01*
X0197900Y0305197D01*
X0200300Y0302797D01*
X0200300Y0288691D01*
X0204714Y0284277D01*
X0231295Y0284277D01*
X0229150Y0282132D01*
X0229150Y0278322D01*
X0230370Y0277102D01*
X0223425Y0277102D01*
X0223425Y0277402D01*
X0227525Y0277402D01*
X0227525Y0278925D01*
X0224948Y0281502D01*
X0223425Y0281502D01*
X0223425Y0277402D01*
X0222825Y0277402D01*
X0222825Y0277102D01*
X0212800Y0277102D01*
X0212800Y0277402D01*
X0216900Y0277402D01*
X0216900Y0278925D01*
X0214323Y0281502D01*
X0212800Y0281502D01*
X0212800Y0277402D01*
X0212200Y0277402D01*
X0212200Y0277102D01*
X0202800Y0277102D01*
X0202800Y0277402D01*
X0206900Y0277402D01*
X0206900Y0278925D01*
X0204323Y0281502D01*
X0202800Y0281502D01*
X0202800Y0277402D01*
X0202200Y0277402D01*
X0202200Y0277102D01*
X0195000Y0277102D01*
X0195000Y0322435D01*
X0196700Y0320735D01*
X0196700Y0320307D01*
X0195400Y0319007D01*
X0195400Y0315197D01*
X0198095Y0312502D01*
X0201905Y0312502D01*
X0204600Y0315197D01*
X0204600Y0319007D01*
X0203300Y0320307D01*
X0203300Y0322758D01*
X0202798Y0323971D01*
X0195000Y0331769D01*
X0195000Y0354202D01*
X0195955Y0354202D01*
X0197719Y0354933D01*
X0199069Y0356283D01*
X0199800Y0358047D01*
X0199800Y0366157D01*
X0199069Y0367921D01*
X0197719Y0369271D01*
X0195955Y0370002D01*
X0195000Y0370002D01*
X0195000Y0405303D01*
X0433642Y0405303D01*
X0433201Y0403655D01*
X0433201Y0400549D01*
X0434005Y0397548D01*
X0435558Y0394857D01*
X0437755Y0392660D01*
X0440446Y0391107D01*
X0443447Y0390303D01*
X0446553Y0390303D01*
X0449421Y0391071D01*
X0449421Y0361061D01*
X0447530Y0362952D01*
X0444230Y0362952D01*
X0445225Y0363947D01*
X0445225Y0367757D01*
X0442530Y0370452D01*
X0438720Y0370452D01*
X0436025Y0367757D01*
X0436025Y0363947D01*
X0437020Y0362952D01*
X0433720Y0362952D01*
X0431025Y0360257D01*
X0431025Y0356447D01*
X0433425Y0354047D01*
X0433425Y0351138D01*
X0432214Y0349927D01*
X0429968Y0349927D01*
X0429968Y0351984D01*
X0429212Y0353810D01*
X0427814Y0355208D01*
X0425988Y0355964D01*
X0424012Y0355964D01*
X0422186Y0355208D01*
X0420788Y0353810D01*
X0420031Y0351984D01*
X0420031Y0343470D01*
X0420788Y0341644D01*
X0422186Y0340246D01*
X0424012Y0339490D01*
X0425988Y0339490D01*
X0427814Y0340246D01*
X0429212Y0341644D01*
X0429968Y0343470D01*
X0429968Y0345527D01*
X0434036Y0345527D01*
X0436536Y0348027D01*
X0437825Y0349316D01*
X0437825Y0354047D01*
X0440225Y0356447D01*
X0440225Y0360257D01*
X0439230Y0361252D01*
X0442020Y0361252D01*
X0441025Y0360257D01*
X0441025Y0356447D01*
X0443720Y0353752D01*
X0447530Y0353752D01*
X0449421Y0355643D01*
X0449421Y0232102D01*
X0364986Y0232102D01*
X0364308Y0232781D02*
X0449421Y0232781D01*
X0449421Y0233779D02*
X0358182Y0233779D01*
X0357530Y0233127D02*
X0360225Y0235822D01*
X0360225Y0239216D01*
X0360325Y0239316D01*
X0360325Y0249989D01*
X0363012Y0247302D01*
X0366988Y0247302D01*
X0369800Y0250114D01*
X0369800Y0254090D01*
X0366988Y0256902D01*
X0366436Y0256902D01*
X0365911Y0257427D01*
X0363436Y0259902D01*
X0370339Y0259902D01*
X0372800Y0257441D01*
X0372800Y0256690D01*
X0370200Y0254090D01*
X0370200Y0250114D01*
X0373012Y0247302D01*
X0376988Y0247302D01*
X0379800Y0250114D01*
X0379800Y0254090D01*
X0377200Y0256690D01*
X0377200Y0259263D01*
X0375911Y0260552D01*
X0372161Y0264302D01*
X0364661Y0264302D01*
X0364499Y0264465D01*
X0367938Y0264465D01*
X0368934Y0265460D01*
X0368934Y0270769D01*
X0367938Y0271765D01*
X0357653Y0271765D01*
X0357398Y0271510D01*
X0357195Y0271565D01*
X0356398Y0271565D01*
X0356398Y0268115D01*
X0356398Y0268115D01*
X0356398Y0271565D01*
X0356039Y0271565D01*
X0356039Y0272529D01*
X0357161Y0273652D01*
X0371214Y0273652D01*
X0373689Y0271177D01*
X0377561Y0271177D01*
X0380300Y0273916D01*
X0380300Y0277788D01*
X0377561Y0280527D01*
X0373689Y0280527D01*
X0371214Y0278052D01*
X0370311Y0278052D01*
X0379036Y0286777D01*
X0380325Y0288066D01*
X0380325Y0316816D01*
X0382786Y0319277D01*
X0415335Y0319277D01*
X0415497Y0318886D01*
X0416784Y0317599D01*
X0418465Y0316902D01*
X0420285Y0316902D01*
X0421966Y0317599D01*
X0423253Y0318886D01*
X0423950Y0320567D01*
X0423950Y0320936D01*
X0424933Y0319232D01*
X0427130Y0317035D01*
X0429821Y0315482D01*
X0432822Y0314678D01*
X0435928Y0314678D01*
X0438929Y0315482D01*
X0441620Y0317035D01*
X0443817Y0319232D01*
X0445370Y0321923D01*
X0446174Y0324924D01*
X0446174Y0328030D01*
X0445370Y0331031D01*
X0443817Y0333722D01*
X0441620Y0335919D01*
X0438929Y0337472D01*
X0435928Y0338276D01*
X0432822Y0338276D01*
X0429821Y0337472D01*
X0427130Y0335919D01*
X0424933Y0333722D01*
X0423380Y0331031D01*
X0422576Y0328030D01*
X0422576Y0324924D01*
X0422641Y0324681D01*
X0421966Y0325355D01*
X0420285Y0326052D01*
X0418465Y0326052D01*
X0416784Y0325355D01*
X0415497Y0324068D01*
X0415335Y0323677D01*
X0380964Y0323677D01*
X0375925Y0318638D01*
X0375925Y0289888D01*
X0366589Y0280552D01*
X0354714Y0280552D01*
X0350339Y0276177D01*
X0347839Y0276177D01*
X0345802Y0274141D01*
X0345802Y0274411D01*
X0344075Y0276138D01*
X0342786Y0277427D01*
X0325964Y0277427D01*
X0324675Y0276138D01*
X0323464Y0274927D01*
X0323464Y0274927D01*
X0323364Y0274827D01*
X0322470Y0274827D01*
X0319775Y0272132D01*
X0319775Y0268322D01*
X0322470Y0265627D01*
X0326280Y0265627D01*
X0328975Y0268322D01*
X0328975Y0272132D01*
X0328080Y0273027D01*
X0340964Y0273027D01*
X0341402Y0272588D01*
X0341402Y0271765D01*
X0332062Y0271765D01*
X0331066Y0270769D01*
X0331066Y0265552D01*
X0314675Y0265552D01*
X0314675Y0269038D01*
X0311936Y0271777D01*
X0308064Y0271777D01*
X0305325Y0269038D01*
X0305325Y0265166D01*
X0308064Y0262427D01*
X0311564Y0262427D01*
X0312839Y0261152D01*
X0345314Y0261152D01*
X0342839Y0258677D01*
X0326180Y0258677D01*
X0323780Y0261077D01*
X0319970Y0261077D01*
X0317275Y0258382D01*
X0317275Y0254572D01*
X0319675Y0252172D01*
X0319675Y0252032D01*
X0317275Y0249632D01*
X0317275Y0245822D01*
X0319970Y0243127D01*
X0323780Y0243127D01*
X0326475Y0245822D01*
X0326475Y0249632D01*
X0324075Y0252032D01*
X0324075Y0252172D01*
X0326180Y0254277D01*
X0344661Y0254277D01*
X0347275Y0256891D01*
X0347275Y0254572D01*
X0349675Y0252172D01*
X0349675Y0248638D01*
X0340964Y0239927D01*
X0339930Y0239927D01*
X0337530Y0242327D01*
X0333720Y0242327D01*
X0331025Y0239632D01*
X0331025Y0235822D01*
X0333720Y0233127D01*
X0337530Y0233127D01*
X0339930Y0235527D01*
X0342786Y0235527D01*
X0352786Y0245527D01*
X0354075Y0246816D01*
X0354075Y0252172D01*
X0355925Y0254022D01*
X0355925Y0242327D01*
X0353720Y0242327D01*
X0351025Y0239632D01*
X0351025Y0235822D01*
X0353720Y0233127D01*
X0357530Y0233127D01*
X0359181Y0234778D02*
X0449421Y0234778D01*
X0449421Y0235776D02*
X0360179Y0235776D01*
X0360225Y0236775D02*
X0449421Y0236775D01*
X0449421Y0237773D02*
X0377176Y0237773D01*
X0376905Y0237502D02*
X0379600Y0240197D01*
X0379600Y0241702D01*
X0375400Y0241702D01*
X0375400Y0237502D01*
X0376905Y0237502D01*
X0375400Y0237773D02*
X0374600Y0237773D01*
X0374600Y0237502D02*
X0374600Y0241702D01*
X0375400Y0241702D01*
X0375400Y0242502D01*
X0379600Y0242502D01*
X0379600Y0244007D01*
X0376905Y0246702D01*
X0375400Y0246702D01*
X0375400Y0242502D01*
X0374600Y0242502D01*
X0374600Y0241702D01*
X0370400Y0241702D01*
X0370400Y0240197D01*
X0373095Y0237502D01*
X0374600Y0237502D01*
X0374600Y0238772D02*
X0375400Y0238772D01*
X0375400Y0239770D02*
X0374600Y0239770D01*
X0374600Y0240769D02*
X0375400Y0240769D01*
X0375400Y0241767D02*
X0449421Y0241767D01*
X0449421Y0240769D02*
X0379600Y0240769D01*
X0379173Y0239770D02*
X0449421Y0239770D01*
X0449421Y0238772D02*
X0378175Y0238772D01*
X0379600Y0242766D02*
X0449421Y0242766D01*
X0449421Y0243764D02*
X0379600Y0243764D01*
X0378845Y0244763D02*
X0449421Y0244763D01*
X0449421Y0245761D02*
X0377846Y0245761D01*
X0377444Y0247758D02*
X0449421Y0247758D01*
X0449421Y0246760D02*
X0360325Y0246760D01*
X0360325Y0247758D02*
X0362556Y0247758D01*
X0363095Y0246702D02*
X0360400Y0244007D01*
X0360400Y0242502D01*
X0364600Y0242502D01*
X0364600Y0241702D01*
X0365400Y0241702D01*
X0365400Y0237502D01*
X0366905Y0237502D01*
X0369600Y0240197D01*
X0369600Y0241702D01*
X0365400Y0241702D01*
X0365400Y0242502D01*
X0369600Y0242502D01*
X0369600Y0244007D01*
X0366905Y0246702D01*
X0365400Y0246702D01*
X0365400Y0242502D01*
X0364600Y0242502D01*
X0364600Y0246702D01*
X0363095Y0246702D01*
X0362154Y0245761D02*
X0360325Y0245761D01*
X0360325Y0244763D02*
X0361155Y0244763D01*
X0360400Y0243764D02*
X0360325Y0243764D01*
X0360325Y0242766D02*
X0360400Y0242766D01*
X0360325Y0241767D02*
X0364600Y0241767D01*
X0364600Y0241702D02*
X0360400Y0241702D01*
X0360400Y0240197D01*
X0363095Y0237502D01*
X0364600Y0237502D01*
X0364600Y0241702D01*
X0365400Y0241767D02*
X0374600Y0241767D01*
X0374600Y0242502D02*
X0370400Y0242502D01*
X0370400Y0244007D01*
X0373095Y0246702D01*
X0374600Y0246702D01*
X0374600Y0242502D01*
X0374600Y0242766D02*
X0375400Y0242766D01*
X0375400Y0243764D02*
X0374600Y0243764D01*
X0374600Y0244763D02*
X0375400Y0244763D01*
X0375400Y0245761D02*
X0374600Y0245761D01*
X0372154Y0245761D02*
X0367846Y0245761D01*
X0368845Y0244763D02*
X0371155Y0244763D01*
X0370400Y0243764D02*
X0369600Y0243764D01*
X0369600Y0242766D02*
X0370400Y0242766D01*
X0370400Y0240769D02*
X0369600Y0240769D01*
X0369173Y0239770D02*
X0370827Y0239770D01*
X0371825Y0238772D02*
X0368175Y0238772D01*
X0367176Y0237773D02*
X0372824Y0237773D01*
X0365400Y0237773D02*
X0364600Y0237773D01*
X0364600Y0238772D02*
X0365400Y0238772D01*
X0365400Y0239770D02*
X0364600Y0239770D01*
X0364600Y0240769D02*
X0365400Y0240769D01*
X0365400Y0242766D02*
X0364600Y0242766D01*
X0364600Y0243764D02*
X0365400Y0243764D01*
X0365400Y0244763D02*
X0364600Y0244763D01*
X0364600Y0245761D02*
X0365400Y0245761D01*
X0367444Y0247758D02*
X0372556Y0247758D01*
X0371557Y0248757D02*
X0368443Y0248757D01*
X0369441Y0249755D02*
X0370559Y0249755D01*
X0370200Y0250754D02*
X0369800Y0250754D01*
X0369800Y0251752D02*
X0370200Y0251752D01*
X0370200Y0252751D02*
X0369800Y0252751D01*
X0369800Y0253749D02*
X0370200Y0253749D01*
X0370857Y0254748D02*
X0369143Y0254748D01*
X0368144Y0255746D02*
X0371856Y0255746D01*
X0372800Y0256745D02*
X0367145Y0256745D01*
X0365595Y0257743D02*
X0372497Y0257743D01*
X0371499Y0258742D02*
X0364597Y0258742D01*
X0363598Y0259740D02*
X0370500Y0259740D01*
X0371250Y0262102D02*
X0375000Y0258352D01*
X0375000Y0252102D01*
X0378443Y0248757D02*
X0449421Y0248757D01*
X0449421Y0249755D02*
X0379441Y0249755D01*
X0379800Y0250754D02*
X0449421Y0250754D01*
X0449421Y0251752D02*
X0379800Y0251752D01*
X0379800Y0252751D02*
X0449421Y0252751D01*
X0449421Y0253749D02*
X0379800Y0253749D01*
X0379143Y0254748D02*
X0449421Y0254748D01*
X0449421Y0255746D02*
X0378144Y0255746D01*
X0377200Y0256745D02*
X0449421Y0256745D01*
X0449421Y0257743D02*
X0377200Y0257743D01*
X0377200Y0258742D02*
X0449421Y0258742D01*
X0449421Y0259740D02*
X0376723Y0259740D01*
X0375724Y0260739D02*
X0449421Y0260739D01*
X0449421Y0261737D02*
X0374726Y0261737D01*
X0373727Y0262736D02*
X0449421Y0262736D01*
X0449421Y0263734D02*
X0372729Y0263734D01*
X0371250Y0262102D02*
X0363750Y0262102D01*
X0361516Y0264336D01*
X0361516Y0268115D01*
X0358957Y0268115D02*
X0358957Y0261270D01*
X0365000Y0255227D01*
X0365000Y0252102D01*
X0361557Y0248757D02*
X0360325Y0248757D01*
X0360325Y0249755D02*
X0360559Y0249755D01*
X0355925Y0249755D02*
X0354075Y0249755D01*
X0354075Y0248757D02*
X0355925Y0248757D01*
X0355925Y0247758D02*
X0354075Y0247758D01*
X0354019Y0246760D02*
X0355925Y0246760D01*
X0355925Y0245761D02*
X0353020Y0245761D01*
X0352022Y0244763D02*
X0355925Y0244763D01*
X0355925Y0243764D02*
X0351023Y0243764D01*
X0350025Y0242766D02*
X0355925Y0242766D01*
X0353160Y0241767D02*
X0349026Y0241767D01*
X0348028Y0240769D02*
X0352161Y0240769D01*
X0351163Y0239770D02*
X0347029Y0239770D01*
X0346031Y0238772D02*
X0351025Y0238772D01*
X0351025Y0237773D02*
X0345032Y0237773D01*
X0344034Y0236775D02*
X0351025Y0236775D01*
X0351071Y0235776D02*
X0343035Y0235776D01*
X0341875Y0237727D02*
X0335625Y0237727D01*
X0331025Y0237773D02*
X0305000Y0237773D01*
X0305000Y0236775D02*
X0331025Y0236775D01*
X0331071Y0235776D02*
X0305000Y0235776D01*
X0305000Y0234778D02*
X0332069Y0234778D01*
X0333068Y0233779D02*
X0305000Y0233779D01*
X0305000Y0238772D02*
X0331025Y0238772D01*
X0331163Y0239770D02*
X0305000Y0239770D01*
X0305000Y0240769D02*
X0332161Y0240769D01*
X0333160Y0241767D02*
X0305000Y0241767D01*
X0305000Y0242766D02*
X0343802Y0242766D01*
X0343780Y0243127D02*
X0346475Y0245822D01*
X0346475Y0249632D01*
X0343780Y0252327D01*
X0339970Y0252327D01*
X0337275Y0249632D01*
X0337275Y0245822D01*
X0339970Y0243127D01*
X0343780Y0243127D01*
X0344417Y0243764D02*
X0344801Y0243764D01*
X0345416Y0244763D02*
X0345799Y0244763D01*
X0346414Y0245761D02*
X0346798Y0245761D01*
X0346475Y0246760D02*
X0347796Y0246760D01*
X0348795Y0247758D02*
X0346475Y0247758D01*
X0346475Y0248757D02*
X0349675Y0248757D01*
X0349675Y0249755D02*
X0346352Y0249755D01*
X0345354Y0250754D02*
X0349675Y0250754D01*
X0349675Y0251752D02*
X0344355Y0251752D01*
X0345132Y0254748D02*
X0347275Y0254748D01*
X0347275Y0255746D02*
X0346130Y0255746D01*
X0347129Y0256745D02*
X0347275Y0256745D01*
X0348097Y0253749D02*
X0325653Y0253749D01*
X0324654Y0252751D02*
X0349096Y0252751D01*
X0351875Y0256477D02*
X0351875Y0247727D01*
X0341875Y0237727D01*
X0341805Y0240769D02*
X0339089Y0240769D01*
X0338090Y0241767D02*
X0342804Y0241767D01*
X0339333Y0243764D02*
X0324417Y0243764D01*
X0325416Y0244763D02*
X0338334Y0244763D01*
X0337336Y0245761D02*
X0326414Y0245761D01*
X0326475Y0246760D02*
X0337275Y0246760D01*
X0337275Y0247758D02*
X0326475Y0247758D01*
X0326475Y0248757D02*
X0337275Y0248757D01*
X0337398Y0249755D02*
X0326352Y0249755D01*
X0325354Y0250754D02*
X0338396Y0250754D01*
X0339395Y0251752D02*
X0324355Y0251752D01*
X0321875Y0247727D02*
X0321875Y0256477D01*
X0343750Y0256477D01*
X0351250Y0263977D01*
X0351250Y0268085D01*
X0351280Y0268115D01*
X0353839Y0268115D02*
X0353839Y0273441D01*
X0356250Y0275852D01*
X0375625Y0275852D01*
X0380300Y0275716D02*
X0392392Y0275716D01*
X0392552Y0275877D02*
X0389975Y0273300D01*
X0389975Y0271777D01*
X0394075Y0271777D01*
X0394075Y0271177D01*
X0394675Y0271177D01*
X0394675Y0267077D01*
X0396198Y0267077D01*
X0398775Y0269655D01*
X0398775Y0271177D01*
X0394675Y0271177D01*
X0394675Y0271777D01*
X0398775Y0271777D01*
X0398775Y0273300D01*
X0396198Y0275877D01*
X0394675Y0275877D01*
X0394675Y0271777D01*
X0394075Y0271777D01*
X0394075Y0275877D01*
X0392552Y0275877D01*
X0394075Y0275716D02*
X0394675Y0275716D01*
X0394675Y0274718D02*
X0394075Y0274718D01*
X0394075Y0273719D02*
X0394675Y0273719D01*
X0394675Y0272721D02*
X0394075Y0272721D01*
X0394075Y0271722D02*
X0378107Y0271722D01*
X0379105Y0272721D02*
X0389975Y0272721D01*
X0390395Y0273719D02*
X0380104Y0273719D01*
X0380300Y0274718D02*
X0391393Y0274718D01*
X0389975Y0271177D02*
X0389975Y0269655D01*
X0392552Y0267077D01*
X0394075Y0267077D01*
X0394075Y0271177D01*
X0389975Y0271177D01*
X0389975Y0270724D02*
X0368934Y0270724D01*
X0368934Y0269725D02*
X0389975Y0269725D01*
X0390903Y0268727D02*
X0368934Y0268727D01*
X0368934Y0267728D02*
X0391901Y0267728D01*
X0394075Y0267728D02*
X0394675Y0267728D01*
X0394675Y0268727D02*
X0394075Y0268727D01*
X0394075Y0269725D02*
X0394675Y0269725D01*
X0394675Y0270724D02*
X0394075Y0270724D01*
X0394675Y0271722D02*
X0411397Y0271722D01*
X0412396Y0270724D02*
X0398775Y0270724D01*
X0398775Y0269725D02*
X0413394Y0269725D01*
X0414393Y0268727D02*
X0397847Y0268727D01*
X0396849Y0267728D02*
X0431618Y0267728D01*
X0431570Y0267777D02*
X0432470Y0266877D01*
X0436280Y0266877D01*
X0438975Y0269572D01*
X0438975Y0273382D01*
X0436280Y0276077D01*
X0432470Y0276077D01*
X0431570Y0275177D01*
X0418408Y0275177D01*
X0410012Y0283573D01*
X0408971Y0284614D01*
X0407611Y0285177D01*
X0402450Y0285177D01*
X0402450Y0289402D01*
X0417361Y0289402D01*
X0418721Y0289965D01*
X0421471Y0292715D01*
X0422512Y0293756D01*
X0422741Y0294309D01*
X0423380Y0291923D01*
X0424933Y0289232D01*
X0427130Y0287035D01*
X0429821Y0285482D01*
X0432822Y0284678D01*
X0435928Y0284678D01*
X0438929Y0285482D01*
X0441620Y0287035D01*
X0443817Y0289232D01*
X0445370Y0291923D01*
X0446174Y0294924D01*
X0446174Y0298030D01*
X0445370Y0301031D01*
X0443817Y0303722D01*
X0441620Y0305919D01*
X0438929Y0307472D01*
X0435928Y0308276D01*
X0432822Y0308276D01*
X0429821Y0307472D01*
X0427130Y0305919D01*
X0424933Y0303722D01*
X0423950Y0302018D01*
X0423950Y0302387D01*
X0423253Y0304068D01*
X0421966Y0305355D01*
X0420285Y0306052D01*
X0418465Y0306052D01*
X0416784Y0305355D01*
X0415497Y0304068D01*
X0414800Y0302387D01*
X0414800Y0300567D01*
X0415497Y0298886D01*
X0415675Y0298707D01*
X0415675Y0297385D01*
X0415092Y0296802D01*
X0389680Y0296802D01*
X0389481Y0297002D01*
X0389339Y0297061D01*
X0391475Y0299197D01*
X0391475Y0303007D01*
X0388780Y0305702D01*
X0384970Y0305702D01*
X0382275Y0303007D01*
X0382275Y0299197D01*
X0384411Y0297061D01*
X0384269Y0297002D01*
X0382975Y0295708D01*
X0382275Y0294017D01*
X0382275Y0292187D01*
X0382975Y0290496D01*
X0384269Y0289202D01*
X0385960Y0288502D01*
X0387790Y0288502D01*
X0389481Y0289202D01*
X0389680Y0289402D01*
X0395050Y0289402D01*
X0395050Y0284282D01*
X0394150Y0283382D01*
X0394150Y0279572D01*
X0396845Y0276877D01*
X0400655Y0276877D01*
X0401555Y0277777D01*
X0405342Y0277777D01*
X0414779Y0268340D01*
X0416139Y0267777D01*
X0431570Y0267777D01*
X0437132Y0267728D02*
X0449421Y0267728D01*
X0449421Y0266730D02*
X0368934Y0266730D01*
X0368934Y0265731D02*
X0449421Y0265731D01*
X0449421Y0264733D02*
X0368206Y0264733D01*
X0367980Y0271722D02*
X0373143Y0271722D01*
X0372145Y0272721D02*
X0356230Y0272721D01*
X0356039Y0271722D02*
X0357610Y0271722D01*
X0356398Y0270724D02*
X0356398Y0270724D01*
X0356398Y0269725D02*
X0356398Y0269725D01*
X0356398Y0268727D02*
X0356398Y0268727D01*
X0356398Y0268115D02*
X0356398Y0264665D01*
X0356757Y0264665D01*
X0356757Y0262207D01*
X0356039Y0262925D01*
X0356039Y0264665D01*
X0356398Y0264665D01*
X0356398Y0268115D01*
X0356398Y0268115D01*
X0356398Y0267728D02*
X0356398Y0267728D01*
X0356398Y0266730D02*
X0356398Y0266730D01*
X0356398Y0265731D02*
X0356398Y0265731D01*
X0356398Y0264733D02*
X0356398Y0264733D01*
X0356039Y0263734D02*
X0356757Y0263734D01*
X0356757Y0262736D02*
X0356227Y0262736D01*
X0353839Y0262013D02*
X0353839Y0268115D01*
X0348720Y0268115D02*
X0348720Y0265198D01*
X0346875Y0263352D01*
X0313750Y0263352D01*
X0310000Y0267102D01*
X0306757Y0263734D02*
X0305000Y0263734D01*
X0305000Y0262736D02*
X0307755Y0262736D01*
X0305758Y0264733D02*
X0305000Y0264733D01*
X0305000Y0265731D02*
X0305325Y0265731D01*
X0305325Y0266730D02*
X0305000Y0266730D01*
X0305000Y0267728D02*
X0305325Y0267728D01*
X0305325Y0268727D02*
X0305000Y0268727D01*
X0305000Y0269725D02*
X0306012Y0269725D01*
X0307011Y0270724D02*
X0305000Y0270724D01*
X0305000Y0271722D02*
X0308009Y0271722D01*
X0308095Y0274752D02*
X0305400Y0277447D01*
X0305400Y0281257D01*
X0307719Y0283576D01*
X0307694Y0283589D01*
X0307134Y0283996D01*
X0306644Y0284486D01*
X0306237Y0285046D01*
X0305922Y0285663D01*
X0305708Y0286322D01*
X0305600Y0287006D01*
X0305600Y0287052D01*
X0309700Y0287052D01*
X0309700Y0287652D01*
X0305600Y0287652D01*
X0305600Y0287698D01*
X0305708Y0288382D01*
X0305922Y0289041D01*
X0306237Y0289658D01*
X0306644Y0290218D01*
X0307134Y0290708D01*
X0307694Y0291115D01*
X0308311Y0291430D01*
X0308970Y0291644D01*
X0309654Y0291752D01*
X0309700Y0291752D01*
X0309700Y0287652D01*
X0310300Y0287652D01*
X0314400Y0287652D01*
X0314400Y0287698D01*
X0314292Y0288382D01*
X0314078Y0289041D01*
X0313763Y0289658D01*
X0313356Y0290218D01*
X0312866Y0290708D01*
X0312306Y0291115D01*
X0311689Y0291430D01*
X0311030Y0291644D01*
X0310346Y0291752D01*
X0310300Y0291752D01*
X0310300Y0287652D01*
X0310300Y0287052D01*
X0314400Y0287052D01*
X0314400Y0287006D01*
X0314292Y0286322D01*
X0314078Y0285663D01*
X0313763Y0285046D01*
X0313356Y0284486D01*
X0312866Y0283996D01*
X0312306Y0283589D01*
X0312281Y0283576D01*
X0314600Y0281257D01*
X0314600Y0277447D01*
X0311905Y0274752D01*
X0308095Y0274752D01*
X0307130Y0275716D02*
X0305000Y0275716D01*
X0305000Y0274718D02*
X0322361Y0274718D01*
X0321362Y0273719D02*
X0305000Y0273719D01*
X0305000Y0272721D02*
X0320364Y0272721D01*
X0319775Y0271722D02*
X0311991Y0271722D01*
X0312989Y0270724D02*
X0319775Y0270724D01*
X0319775Y0269725D02*
X0313988Y0269725D01*
X0314675Y0268727D02*
X0319775Y0268727D01*
X0320368Y0267728D02*
X0314675Y0267728D01*
X0314675Y0266730D02*
X0321367Y0266730D01*
X0322365Y0265731D02*
X0314675Y0265731D01*
X0312253Y0261737D02*
X0305000Y0261737D01*
X0305000Y0260739D02*
X0319631Y0260739D01*
X0318633Y0259740D02*
X0305000Y0259740D01*
X0305000Y0258742D02*
X0317634Y0258742D01*
X0317275Y0257743D02*
X0305000Y0257743D01*
X0305000Y0256745D02*
X0317275Y0256745D01*
X0317275Y0255746D02*
X0305000Y0255746D01*
X0305000Y0254748D02*
X0317275Y0254748D01*
X0318097Y0253749D02*
X0305000Y0253749D01*
X0305000Y0252751D02*
X0319096Y0252751D01*
X0319395Y0251752D02*
X0305000Y0251752D01*
X0305000Y0250754D02*
X0318396Y0250754D01*
X0317398Y0249755D02*
X0305000Y0249755D01*
X0305000Y0248757D02*
X0317275Y0248757D01*
X0317275Y0247758D02*
X0305000Y0247758D01*
X0305000Y0246760D02*
X0317275Y0246760D01*
X0317336Y0245761D02*
X0305000Y0245761D01*
X0305000Y0244763D02*
X0318334Y0244763D01*
X0319333Y0243764D02*
X0305000Y0243764D01*
X0296875Y0247727D02*
X0287500Y0247727D01*
X0283701Y0251526D01*
X0283701Y0267338D01*
X0285625Y0267383D02*
X0285669Y0267338D01*
X0285625Y0267383D02*
X0285625Y0272727D01*
X0288125Y0275227D01*
X0295000Y0275227D01*
X0296875Y0273352D01*
X0296875Y0267727D01*
X0305000Y0276715D02*
X0306132Y0276715D01*
X0305400Y0277714D02*
X0280200Y0277714D01*
X0280200Y0278712D02*
X0305400Y0278712D01*
X0305400Y0279711D02*
X0280200Y0279711D01*
X0280200Y0280709D02*
X0305400Y0280709D01*
X0305850Y0281708D02*
X0280200Y0281708D01*
X0280200Y0282706D02*
X0295048Y0282706D01*
X0295052Y0282702D02*
X0292475Y0285280D01*
X0292475Y0286802D01*
X0296575Y0286802D01*
X0297175Y0286802D01*
X0297175Y0282702D01*
X0298698Y0282702D01*
X0301275Y0285280D01*
X0301275Y0286802D01*
X0297175Y0286802D01*
X0297175Y0287402D01*
X0301275Y0287402D01*
X0301275Y0288925D01*
X0298698Y0291502D01*
X0297175Y0291502D01*
X0297175Y0287402D01*
X0296575Y0287402D01*
X0296575Y0286802D01*
X0296575Y0282702D01*
X0295052Y0282702D01*
X0294050Y0283705D02*
X0280200Y0283705D01*
X0280200Y0284703D02*
X0293051Y0284703D01*
X0292475Y0285702D02*
X0280200Y0285702D01*
X0280200Y0286700D02*
X0292475Y0286700D01*
X0292475Y0287402D02*
X0296575Y0287402D01*
X0296575Y0291502D01*
X0295052Y0291502D01*
X0292475Y0288925D01*
X0292475Y0287402D01*
X0292475Y0287699D02*
X0280200Y0287699D01*
X0280200Y0288697D02*
X0292475Y0288697D01*
X0293246Y0289696D02*
X0280003Y0289696D01*
X0277795Y0296866D02*
X0277795Y0305522D01*
X0280000Y0307727D01*
X0286875Y0307727D01*
X0293750Y0314602D01*
X0298350Y0314658D02*
X0367800Y0314658D01*
X0367800Y0313660D02*
X0298350Y0313660D01*
X0298315Y0312661D02*
X0367800Y0312661D01*
X0367800Y0311663D02*
X0298820Y0311663D01*
X0299818Y0310664D02*
X0367800Y0310664D01*
X0367800Y0309666D02*
X0300817Y0309666D01*
X0301475Y0308667D02*
X0367800Y0308667D01*
X0367800Y0307669D02*
X0301475Y0307669D01*
X0301475Y0306670D02*
X0367800Y0306670D01*
X0367800Y0305672D02*
X0301475Y0305672D01*
X0300952Y0304673D02*
X0335441Y0304673D01*
X0334442Y0303675D02*
X0299953Y0303675D01*
X0298955Y0302676D02*
X0333525Y0302676D01*
X0333525Y0301678D02*
X0279995Y0301678D01*
X0279995Y0302676D02*
X0294795Y0302676D01*
X0293797Y0303675D02*
X0279995Y0303675D01*
X0280058Y0304673D02*
X0292798Y0304673D01*
X0292275Y0305672D02*
X0287931Y0305672D01*
X0288930Y0306670D02*
X0292275Y0306670D01*
X0292275Y0307669D02*
X0289928Y0307669D01*
X0290927Y0308667D02*
X0292275Y0308667D01*
X0291925Y0309666D02*
X0292933Y0309666D01*
X0288698Y0312661D02*
X0287690Y0312661D01*
X0287700Y0311663D02*
X0286691Y0311663D01*
X0286701Y0310664D02*
X0285693Y0310664D01*
X0287725Y0313660D02*
X0289150Y0313660D01*
X0289150Y0314658D02*
X0287725Y0314658D01*
X0287725Y0315657D02*
X0289150Y0315657D01*
X0289298Y0316655D02*
X0287577Y0316655D01*
X0286578Y0317654D02*
X0290297Y0317654D01*
X0291295Y0318652D02*
X0285580Y0318652D01*
X0283125Y0314602D02*
X0275827Y0307304D01*
X0275827Y0296866D01*
X0273858Y0296866D02*
X0273858Y0313244D01*
X0272500Y0314602D01*
X0277100Y0314658D02*
X0278525Y0314658D01*
X0278525Y0313660D02*
X0277100Y0313660D01*
X0277065Y0312661D02*
X0278073Y0312661D01*
X0277075Y0311663D02*
X0276066Y0311663D01*
X0276058Y0310664D02*
X0276076Y0310664D01*
X0271658Y0309666D02*
X0269000Y0309666D01*
X0269932Y0310664D02*
X0264443Y0310664D01*
X0264247Y0309666D02*
X0266000Y0309666D01*
X0264329Y0308667D02*
X0264247Y0308667D01*
X0265441Y0311663D02*
X0268934Y0311663D01*
X0267935Y0312661D02*
X0266440Y0312661D01*
X0266475Y0313660D02*
X0267900Y0313660D01*
X0267900Y0314658D02*
X0266475Y0314658D01*
X0266475Y0315657D02*
X0267900Y0315657D01*
X0268048Y0316655D02*
X0266327Y0316655D01*
X0265328Y0317654D02*
X0269047Y0317654D01*
X0270045Y0318652D02*
X0264330Y0318652D01*
X0261875Y0314602D02*
X0262047Y0314430D01*
X0262047Y0296866D01*
X0260079Y0296866D02*
X0260079Y0303977D01*
X0259454Y0304602D01*
X0255000Y0304602D01*
X0260079Y0303977D02*
X0260079Y0307023D01*
X0255000Y0312102D01*
X0255000Y0354602D01*
X0275000Y0374602D01*
X0275000Y0382102D01*
X0278532Y0378563D02*
X0281468Y0378563D01*
X0282466Y0377565D02*
X0277534Y0377565D01*
X0277200Y0377231D02*
X0280000Y0380031D01*
X0282929Y0377102D01*
X0287071Y0377102D01*
X0290000Y0380031D01*
X0292929Y0377102D01*
X0297071Y0377102D01*
X0300000Y0380031D01*
X0302929Y0377102D01*
X0307071Y0377102D01*
X0310000Y0380031D01*
X0312929Y0377102D01*
X0316889Y0377102D01*
X0316589Y0376802D01*
X0278464Y0376802D01*
X0277200Y0375538D01*
X0277200Y0377231D01*
X0277200Y0376566D02*
X0278228Y0376566D01*
X0277229Y0375568D02*
X0277200Y0375568D01*
X0279375Y0374602D02*
X0261875Y0357102D01*
X0261875Y0344602D01*
X0266475Y0344614D02*
X0267900Y0344614D01*
X0267900Y0345612D02*
X0266475Y0345612D01*
X0266372Y0346611D02*
X0268003Y0346611D01*
X0269002Y0347609D02*
X0265373Y0347609D01*
X0264375Y0348608D02*
X0270000Y0348608D01*
X0270300Y0349606D02*
X0264075Y0349606D01*
X0264075Y0350605D02*
X0270300Y0350605D01*
X0270300Y0351603D02*
X0264075Y0351603D01*
X0264075Y0352602D02*
X0270300Y0352602D01*
X0270300Y0353600D02*
X0264075Y0353600D01*
X0264075Y0354599D02*
X0270300Y0354599D01*
X0270300Y0355597D02*
X0264075Y0355597D01*
X0264480Y0356596D02*
X0270300Y0356596D01*
X0270300Y0357594D02*
X0265479Y0357594D01*
X0266477Y0358593D02*
X0270300Y0358593D01*
X0270300Y0359591D02*
X0267476Y0359591D01*
X0268474Y0360590D02*
X0270300Y0360590D01*
X0270300Y0361588D02*
X0269473Y0361588D01*
X0272500Y0362102D02*
X0281250Y0370852D01*
X0323750Y0370852D01*
X0330000Y0377102D01*
X0330000Y0387102D01*
X0335000Y0392102D01*
X0338517Y0388548D02*
X0341483Y0388548D01*
X0342481Y0387550D02*
X0337519Y0387550D01*
X0337071Y0387102D02*
X0340000Y0390031D01*
X0342929Y0387102D01*
X0340000Y0384173D01*
X0337071Y0387102D01*
X0333111Y0387102D01*
X0333111Y0387102D01*
X0337071Y0387102D01*
X0337622Y0386551D02*
X0342378Y0386551D01*
X0342929Y0387102D02*
X0347071Y0387102D01*
X0350000Y0384173D01*
X0350000Y0380213D01*
X0350000Y0380213D01*
X0350000Y0384173D01*
X0352929Y0387102D01*
X0356889Y0387102D01*
X0356889Y0387102D01*
X0352929Y0387102D01*
X0350000Y0390031D01*
X0350000Y0394173D01*
X0347071Y0397102D01*
X0342929Y0397102D01*
X0340000Y0394173D01*
X0340000Y0390031D01*
X0340000Y0394173D01*
X0337071Y0397102D01*
X0332929Y0397102D01*
X0330000Y0394173D01*
X0327071Y0397102D01*
X0322929Y0397102D01*
X0320000Y0394173D01*
X0317071Y0397102D01*
X0312929Y0397102D01*
X0310000Y0394173D01*
X0310000Y0390031D01*
X0312929Y0387102D01*
X0310000Y0384173D01*
X0307071Y0387102D01*
X0302929Y0387102D01*
X0300000Y0384173D01*
X0300000Y0380031D01*
X0300000Y0384173D01*
X0297071Y0387102D01*
X0292929Y0387102D01*
X0290000Y0384173D01*
X0290000Y0380031D01*
X0290000Y0384173D01*
X0287071Y0387102D01*
X0282929Y0387102D01*
X0280000Y0384173D01*
X0280000Y0380031D01*
X0280000Y0384173D01*
X0277071Y0387102D01*
X0272929Y0387102D01*
X0270000Y0384173D01*
X0267071Y0387102D01*
X0262929Y0387102D01*
X0267071Y0387102D01*
X0270000Y0390031D01*
X0272929Y0387102D01*
X0277071Y0387102D01*
X0280000Y0390031D01*
X0282929Y0387102D01*
X0287071Y0387102D01*
X0290000Y0390031D01*
X0292929Y0387102D01*
X0297071Y0387102D01*
X0300000Y0390031D01*
X0302929Y0387102D01*
X0307071Y0387102D01*
X0310000Y0390031D01*
X0310000Y0394173D01*
X0307071Y0397102D01*
X0302929Y0397102D01*
X0300000Y0394173D01*
X0300000Y0390031D01*
X0300000Y0394173D01*
X0297071Y0397102D01*
X0292929Y0397102D01*
X0290000Y0394173D01*
X0290000Y0390031D01*
X0290000Y0394173D01*
X0287071Y0397102D01*
X0282929Y0397102D01*
X0280000Y0394173D01*
X0280000Y0390031D01*
X0280000Y0394173D01*
X0277591Y0396582D01*
X0280911Y0399902D01*
X0364089Y0399902D01*
X0366889Y0397102D01*
X0362929Y0397102D01*
X0360000Y0394173D01*
X0357071Y0397102D01*
X0352929Y0397102D01*
X0350000Y0394173D01*
X0350000Y0390031D01*
X0347071Y0387102D01*
X0342929Y0387102D01*
X0341380Y0385553D02*
X0338620Y0385553D01*
X0339619Y0384554D02*
X0340381Y0384554D01*
X0340000Y0384173D02*
X0340000Y0382088D01*
X0340000Y0384173D01*
X0340000Y0383556D02*
X0340000Y0383556D01*
X0340000Y0382557D02*
X0340000Y0382557D01*
X0340000Y0382088D02*
X0340000Y0382088D01*
X0343125Y0382102D02*
X0327500Y0366477D01*
X0300625Y0366477D01*
X0293750Y0359602D01*
X0293750Y0344602D01*
X0289150Y0344614D02*
X0287725Y0344614D01*
X0287725Y0345612D02*
X0289150Y0345612D01*
X0289253Y0346611D02*
X0287622Y0346611D01*
X0286623Y0347609D02*
X0290252Y0347609D01*
X0291250Y0348608D02*
X0285625Y0348608D01*
X0283125Y0344602D02*
X0283125Y0339602D01*
X0285000Y0337727D01*
X0296250Y0337727D01*
X0299375Y0340852D01*
X0299375Y0358977D01*
X0303750Y0363352D01*
X0330000Y0363352D01*
X0338750Y0372102D01*
X0345000Y0372102D01*
X0355000Y0382102D01*
X0351380Y0385553D02*
X0348620Y0385553D01*
X0347622Y0386551D02*
X0352378Y0386551D01*
X0352481Y0387550D02*
X0347519Y0387550D01*
X0348517Y0388548D02*
X0351483Y0388548D01*
X0350484Y0389547D02*
X0349516Y0389547D01*
X0350000Y0390545D02*
X0350000Y0390545D01*
X0350000Y0391544D02*
X0350000Y0391544D01*
X0350000Y0392542D02*
X0350000Y0392542D01*
X0350000Y0393541D02*
X0350000Y0393541D01*
X0349634Y0394539D02*
X0350366Y0394539D01*
X0351365Y0395538D02*
X0348635Y0395538D01*
X0347637Y0396536D02*
X0352363Y0396536D01*
X0355000Y0392102D02*
X0360000Y0387102D01*
X0360000Y0377102D01*
X0345000Y0362102D01*
X0345000Y0337727D01*
X0338125Y0330852D01*
X0334833Y0327639D02*
X0326228Y0327639D01*
X0326228Y0326641D02*
X0335831Y0326641D01*
X0333834Y0328638D02*
X0326228Y0328638D01*
X0326100Y0329636D02*
X0333525Y0329636D01*
X0333525Y0330635D02*
X0323450Y0330635D01*
X0323450Y0331633D02*
X0333525Y0331633D01*
X0333525Y0332632D02*
X0323450Y0332632D01*
X0323450Y0333630D02*
X0334398Y0333630D01*
X0332843Y0334629D02*
X0323450Y0334629D01*
X0324136Y0335627D02*
X0331845Y0335627D01*
X0330846Y0336626D02*
X0325135Y0336626D01*
X0324375Y0338977D02*
X0321250Y0335852D01*
X0321250Y0326866D01*
X0321280Y0326836D01*
X0323839Y0326836D02*
X0323839Y0323441D01*
X0323125Y0322727D01*
X0311250Y0322727D01*
X0308750Y0325227D01*
X0308750Y0327727D01*
X0313350Y0327639D02*
X0313772Y0327639D01*
X0313772Y0326641D02*
X0313350Y0326641D01*
X0313170Y0325642D02*
X0313772Y0325642D01*
X0313772Y0328638D02*
X0313350Y0328638D01*
X0313346Y0329636D02*
X0313900Y0329636D01*
X0312348Y0330635D02*
X0319050Y0330635D01*
X0319050Y0331633D02*
X0311349Y0331633D01*
X0319050Y0332632D02*
X0257200Y0332632D01*
X0257200Y0333630D02*
X0319050Y0333630D01*
X0319050Y0334629D02*
X0257200Y0334629D01*
X0257200Y0335627D02*
X0283989Y0335627D01*
X0282990Y0336626D02*
X0257200Y0336626D01*
X0257200Y0337624D02*
X0281992Y0337624D01*
X0280993Y0338623D02*
X0257200Y0338623D01*
X0257200Y0339621D02*
X0280925Y0339621D01*
X0280602Y0340620D02*
X0275023Y0340620D01*
X0276022Y0341618D02*
X0279603Y0341618D01*
X0278605Y0342617D02*
X0277020Y0342617D01*
X0277100Y0343615D02*
X0278525Y0343615D01*
X0278525Y0344614D02*
X0277100Y0344614D01*
X0277100Y0345612D02*
X0278525Y0345612D01*
X0278628Y0346611D02*
X0276997Y0346611D01*
X0275998Y0347609D02*
X0279627Y0347609D01*
X0280625Y0348608D02*
X0275000Y0348608D01*
X0274700Y0349606D02*
X0291550Y0349606D01*
X0291550Y0350605D02*
X0274700Y0350605D01*
X0274700Y0351603D02*
X0291550Y0351603D01*
X0291550Y0352602D02*
X0274700Y0352602D01*
X0274700Y0353600D02*
X0291550Y0353600D01*
X0291550Y0354599D02*
X0274700Y0354599D01*
X0274700Y0355597D02*
X0291550Y0355597D01*
X0291550Y0356596D02*
X0274700Y0356596D01*
X0274700Y0357594D02*
X0291550Y0357594D01*
X0291550Y0358593D02*
X0274700Y0358593D01*
X0274700Y0359591D02*
X0291550Y0359591D01*
X0291627Y0360590D02*
X0274700Y0360590D01*
X0275098Y0361588D02*
X0292625Y0361588D01*
X0293624Y0362587D02*
X0276096Y0362587D01*
X0277095Y0363585D02*
X0294622Y0363585D01*
X0295621Y0364584D02*
X0278093Y0364584D01*
X0279092Y0365583D02*
X0296619Y0365583D01*
X0297618Y0366581D02*
X0280090Y0366581D01*
X0281089Y0367580D02*
X0298616Y0367580D01*
X0299615Y0368578D02*
X0282087Y0368578D01*
X0279375Y0374602D02*
X0317500Y0374602D01*
X0325000Y0382102D01*
X0321380Y0385553D02*
X0318620Y0385553D01*
X0317622Y0386551D02*
X0322378Y0386551D01*
X0322929Y0387102D02*
X0320000Y0384173D01*
X0317071Y0387102D01*
X0312929Y0387102D01*
X0317071Y0387102D01*
X0320000Y0390031D01*
X0322929Y0387102D01*
X0327071Y0387102D01*
X0327800Y0386373D01*
X0327800Y0387831D01*
X0327071Y0387102D01*
X0322929Y0387102D01*
X0322481Y0387550D02*
X0317519Y0387550D01*
X0318517Y0388548D02*
X0321483Y0388548D01*
X0320484Y0389547D02*
X0319516Y0389547D01*
X0320000Y0390031D02*
X0320000Y0394173D01*
X0320000Y0390031D01*
X0320000Y0390545D02*
X0320000Y0390545D01*
X0320000Y0391544D02*
X0320000Y0391544D01*
X0320000Y0392542D02*
X0320000Y0392542D01*
X0320000Y0393541D02*
X0320000Y0393541D01*
X0319634Y0394539D02*
X0320366Y0394539D01*
X0321365Y0395538D02*
X0318635Y0395538D01*
X0317637Y0396536D02*
X0322363Y0396536D01*
X0327637Y0396536D02*
X0332363Y0396536D01*
X0331365Y0395538D02*
X0328635Y0395538D01*
X0329634Y0394539D02*
X0330366Y0394539D01*
X0330000Y0394173D02*
X0330000Y0390213D01*
X0330000Y0394173D01*
X0330000Y0393541D02*
X0330000Y0393541D01*
X0330000Y0392542D02*
X0330000Y0392542D01*
X0330000Y0391544D02*
X0330000Y0391544D01*
X0330000Y0390545D02*
X0330000Y0390545D01*
X0330000Y0390213D02*
X0330000Y0390213D01*
X0327800Y0387550D02*
X0327519Y0387550D01*
X0327622Y0386551D02*
X0327800Y0386551D01*
X0320381Y0384554D02*
X0319619Y0384554D01*
X0320000Y0384173D02*
X0320000Y0380213D01*
X0320000Y0380213D01*
X0320000Y0384173D01*
X0320000Y0383556D02*
X0320000Y0383556D01*
X0320000Y0382557D02*
X0320000Y0382557D01*
X0320000Y0381559D02*
X0320000Y0381559D01*
X0320000Y0380560D02*
X0320000Y0380560D01*
X0312466Y0377565D02*
X0307534Y0377565D01*
X0308532Y0378563D02*
X0311468Y0378563D01*
X0310469Y0379562D02*
X0309531Y0379562D01*
X0310000Y0380031D02*
X0310000Y0384173D01*
X0310000Y0380031D01*
X0310000Y0380560D02*
X0310000Y0380560D01*
X0310000Y0381559D02*
X0310000Y0381559D01*
X0310000Y0382557D02*
X0310000Y0382557D01*
X0310000Y0383556D02*
X0310000Y0383556D01*
X0309619Y0384554D02*
X0310381Y0384554D01*
X0311380Y0385553D02*
X0308620Y0385553D01*
X0307622Y0386551D02*
X0312378Y0386551D01*
X0312481Y0387550D02*
X0307519Y0387550D01*
X0308517Y0388548D02*
X0311483Y0388548D01*
X0310484Y0389547D02*
X0309516Y0389547D01*
X0310000Y0390545D02*
X0310000Y0390545D01*
X0310000Y0391544D02*
X0310000Y0391544D01*
X0310000Y0392542D02*
X0310000Y0392542D01*
X0310000Y0393541D02*
X0310000Y0393541D01*
X0309634Y0394539D02*
X0310366Y0394539D01*
X0311365Y0395538D02*
X0308635Y0395538D01*
X0307637Y0396536D02*
X0312363Y0396536D01*
X0302363Y0396536D02*
X0297637Y0396536D01*
X0298635Y0395538D02*
X0301365Y0395538D01*
X0300366Y0394539D02*
X0299634Y0394539D01*
X0300000Y0393541D02*
X0300000Y0393541D01*
X0300000Y0392542D02*
X0300000Y0392542D01*
X0300000Y0391544D02*
X0300000Y0391544D01*
X0300000Y0390545D02*
X0300000Y0390545D01*
X0299516Y0389547D02*
X0300484Y0389547D01*
X0301483Y0388548D02*
X0298517Y0388548D01*
X0297519Y0387550D02*
X0302481Y0387550D01*
X0302378Y0386551D02*
X0297622Y0386551D01*
X0298620Y0385553D02*
X0301380Y0385553D01*
X0300381Y0384554D02*
X0299619Y0384554D01*
X0300000Y0383556D02*
X0300000Y0383556D01*
X0300000Y0382557D02*
X0300000Y0382557D01*
X0300000Y0381559D02*
X0300000Y0381559D01*
X0300000Y0380560D02*
X0300000Y0380560D01*
X0299531Y0379562D02*
X0300469Y0379562D01*
X0301468Y0378563D02*
X0298532Y0378563D01*
X0297534Y0377565D02*
X0302466Y0377565D01*
X0292466Y0377565D02*
X0287534Y0377565D01*
X0288532Y0378563D02*
X0291468Y0378563D01*
X0290469Y0379562D02*
X0289531Y0379562D01*
X0290000Y0380560D02*
X0290000Y0380560D01*
X0290000Y0381559D02*
X0290000Y0381559D01*
X0290000Y0382557D02*
X0290000Y0382557D01*
X0290000Y0383556D02*
X0290000Y0383556D01*
X0289619Y0384554D02*
X0290381Y0384554D01*
X0291380Y0385553D02*
X0288620Y0385553D01*
X0287622Y0386551D02*
X0292378Y0386551D01*
X0292481Y0387550D02*
X0287519Y0387550D01*
X0288517Y0388548D02*
X0291483Y0388548D01*
X0290484Y0389547D02*
X0289516Y0389547D01*
X0290000Y0390545D02*
X0290000Y0390545D01*
X0290000Y0391544D02*
X0290000Y0391544D01*
X0290000Y0392542D02*
X0290000Y0392542D01*
X0290000Y0393541D02*
X0290000Y0393541D01*
X0289634Y0394539D02*
X0290366Y0394539D01*
X0291365Y0395538D02*
X0288635Y0395538D01*
X0287637Y0396536D02*
X0292363Y0396536D01*
X0282363Y0396536D02*
X0277637Y0396536D01*
X0278544Y0397535D02*
X0366456Y0397535D01*
X0365457Y0398533D02*
X0279543Y0398533D01*
X0280541Y0399532D02*
X0364459Y0399532D01*
X0365000Y0402102D02*
X0370000Y0397102D01*
X0370000Y0299602D01*
X0366634Y0296236D01*
X0366634Y0291089D01*
X0368934Y0290694D02*
X0375925Y0290694D01*
X0375925Y0291693D02*
X0368934Y0291693D01*
X0368934Y0292691D02*
X0375925Y0292691D01*
X0375925Y0293690D02*
X0368934Y0293690D01*
X0368834Y0294688D02*
X0375925Y0294688D01*
X0375925Y0295687D02*
X0369196Y0295687D01*
X0370194Y0296685D02*
X0375925Y0296685D01*
X0375925Y0297684D02*
X0371193Y0297684D01*
X0372191Y0298682D02*
X0375925Y0298682D01*
X0375925Y0299681D02*
X0372200Y0299681D01*
X0372200Y0300679D02*
X0375925Y0300679D01*
X0375925Y0301678D02*
X0372200Y0301678D01*
X0372200Y0302676D02*
X0375925Y0302676D01*
X0375925Y0303675D02*
X0372200Y0303675D01*
X0372200Y0304673D02*
X0375925Y0304673D01*
X0375925Y0305672D02*
X0372200Y0305672D01*
X0372200Y0306670D02*
X0375925Y0306670D01*
X0375925Y0307669D02*
X0372200Y0307669D01*
X0372200Y0308667D02*
X0375925Y0308667D01*
X0375925Y0309666D02*
X0372200Y0309666D01*
X0372200Y0310664D02*
X0375925Y0310664D01*
X0375925Y0311663D02*
X0372200Y0311663D01*
X0372200Y0312661D02*
X0375925Y0312661D01*
X0375925Y0313660D02*
X0372200Y0313660D01*
X0372200Y0314658D02*
X0375925Y0314658D01*
X0375925Y0315657D02*
X0372200Y0315657D01*
X0372200Y0316655D02*
X0375925Y0316655D01*
X0375925Y0317654D02*
X0372200Y0317654D01*
X0372200Y0318652D02*
X0375939Y0318652D01*
X0376938Y0319651D02*
X0372200Y0319651D01*
X0372200Y0320650D02*
X0377936Y0320650D01*
X0378935Y0321648D02*
X0372200Y0321648D01*
X0372200Y0322647D02*
X0379933Y0322647D01*
X0380932Y0323645D02*
X0372200Y0323645D01*
X0372200Y0324644D02*
X0416072Y0324644D01*
X0417476Y0325642D02*
X0372200Y0325642D01*
X0372200Y0326641D02*
X0422576Y0326641D01*
X0422576Y0327639D02*
X0372200Y0327639D01*
X0372200Y0328638D02*
X0422738Y0328638D01*
X0423006Y0329636D02*
X0372200Y0329636D01*
X0372200Y0330635D02*
X0423274Y0330635D01*
X0423727Y0331633D02*
X0389826Y0331633D01*
X0389689Y0331496D02*
X0391087Y0332894D01*
X0391843Y0334720D01*
X0391843Y0336777D01*
X0393411Y0336777D01*
X0395911Y0339277D01*
X0397200Y0340566D01*
X0397200Y0354047D01*
X0399600Y0356447D01*
X0399600Y0360257D01*
X0398605Y0361252D01*
X0401395Y0361252D01*
X0400400Y0360257D01*
X0400400Y0356447D01*
X0403095Y0353752D01*
X0406905Y0353752D01*
X0409600Y0356447D01*
X0409600Y0360257D01*
X0406905Y0362952D01*
X0403605Y0362952D01*
X0404600Y0363947D01*
X0404600Y0367757D01*
X0401905Y0370452D01*
X0398095Y0370452D01*
X0395400Y0367757D01*
X0395400Y0363947D01*
X0396395Y0362952D01*
X0393095Y0362952D01*
X0390400Y0360257D01*
X0390400Y0356447D01*
X0392800Y0354047D01*
X0392800Y0342388D01*
X0391843Y0341432D01*
X0391843Y0343234D01*
X0391087Y0345060D01*
X0389689Y0346458D01*
X0387863Y0347214D01*
X0385887Y0347214D01*
X0384061Y0346458D01*
X0382663Y0345060D01*
X0381906Y0343234D01*
X0381906Y0334720D01*
X0382663Y0332894D01*
X0384061Y0331496D01*
X0385887Y0330740D01*
X0387863Y0330740D01*
X0389689Y0331496D01*
X0390825Y0332632D02*
X0424304Y0332632D01*
X0424880Y0333630D02*
X0391392Y0333630D01*
X0391806Y0334629D02*
X0425840Y0334629D01*
X0426839Y0335627D02*
X0391843Y0335627D01*
X0391843Y0336626D02*
X0428355Y0336626D01*
X0430388Y0337624D02*
X0394258Y0337624D01*
X0395257Y0338623D02*
X0449421Y0338623D01*
X0449421Y0339621D02*
X0426305Y0339621D01*
X0428188Y0340620D02*
X0449421Y0340620D01*
X0449421Y0341618D02*
X0429186Y0341618D01*
X0429615Y0342617D02*
X0449421Y0342617D01*
X0449421Y0343615D02*
X0429968Y0343615D01*
X0429968Y0344614D02*
X0449421Y0344614D01*
X0449421Y0345612D02*
X0434121Y0345612D01*
X0435120Y0346611D02*
X0449421Y0346611D01*
X0449421Y0347609D02*
X0436119Y0347609D01*
X0437117Y0348608D02*
X0449421Y0348608D01*
X0449421Y0349606D02*
X0437825Y0349606D01*
X0437825Y0350605D02*
X0449421Y0350605D01*
X0449421Y0351603D02*
X0437825Y0351603D01*
X0437825Y0352602D02*
X0449421Y0352602D01*
X0449421Y0353600D02*
X0437825Y0353600D01*
X0438377Y0354599D02*
X0442873Y0354599D01*
X0441874Y0355597D02*
X0439376Y0355597D01*
X0440225Y0356596D02*
X0441025Y0356596D01*
X0441025Y0357594D02*
X0440225Y0357594D01*
X0440225Y0358593D02*
X0441025Y0358593D01*
X0441025Y0359591D02*
X0440225Y0359591D01*
X0439892Y0360590D02*
X0441358Y0360590D01*
X0444864Y0363585D02*
X0449421Y0363585D01*
X0449421Y0362587D02*
X0447895Y0362587D01*
X0448894Y0361588D02*
X0449421Y0361588D01*
X0449421Y0364584D02*
X0445225Y0364584D01*
X0445225Y0365583D02*
X0449421Y0365583D01*
X0449421Y0366581D02*
X0445225Y0366581D01*
X0445225Y0367580D02*
X0449421Y0367580D01*
X0449421Y0368578D02*
X0444404Y0368578D01*
X0443406Y0369577D02*
X0449421Y0369577D01*
X0449421Y0370575D02*
X0372200Y0370575D01*
X0372200Y0369577D02*
X0397219Y0369577D01*
X0396221Y0368578D02*
X0372200Y0368578D01*
X0372200Y0367580D02*
X0374597Y0367580D01*
X0373599Y0366581D02*
X0372200Y0366581D01*
X0372200Y0365583D02*
X0372900Y0365583D01*
X0372900Y0364584D02*
X0372200Y0364584D01*
X0372200Y0363585D02*
X0372900Y0363585D01*
X0372900Y0362587D02*
X0372200Y0362587D01*
X0372200Y0361588D02*
X0373383Y0361588D01*
X0374382Y0360590D02*
X0372200Y0360590D01*
X0372200Y0359591D02*
X0374675Y0359591D01*
X0374675Y0358593D02*
X0372200Y0358593D01*
X0372200Y0357594D02*
X0374675Y0357594D01*
X0374675Y0356596D02*
X0372200Y0356596D01*
X0372200Y0355597D02*
X0374675Y0355597D01*
X0374675Y0354599D02*
X0372200Y0354599D01*
X0372200Y0353600D02*
X0374675Y0353600D01*
X0374675Y0352602D02*
X0372200Y0352602D01*
X0372200Y0351603D02*
X0374675Y0351603D01*
X0374675Y0350605D02*
X0372200Y0350605D01*
X0372200Y0349606D02*
X0374675Y0349606D01*
X0374675Y0348608D02*
X0372200Y0348608D01*
X0372200Y0347609D02*
X0374675Y0347609D01*
X0374430Y0346611D02*
X0372200Y0346611D01*
X0372200Y0345612D02*
X0373215Y0345612D01*
X0372478Y0344614D02*
X0372200Y0344614D01*
X0367800Y0344614D02*
X0366859Y0344614D01*
X0367800Y0343615D02*
X0347200Y0343615D01*
X0347200Y0342617D02*
X0362417Y0342617D01*
X0363177Y0343377D02*
X0360600Y0340800D01*
X0360600Y0339277D01*
X0364700Y0339277D01*
X0364700Y0343377D01*
X0363177Y0343377D01*
X0363177Y0344577D02*
X0364700Y0344577D01*
X0364700Y0348677D01*
X0360600Y0348677D01*
X0360600Y0347155D01*
X0363177Y0344577D01*
X0363141Y0344614D02*
X0347200Y0344614D01*
X0347200Y0345612D02*
X0362142Y0345612D01*
X0361144Y0346611D02*
X0347200Y0346611D01*
X0347200Y0347609D02*
X0360600Y0347609D01*
X0360600Y0348608D02*
X0347200Y0348608D01*
X0347200Y0349606D02*
X0360600Y0349606D01*
X0360600Y0349277D02*
X0364700Y0349277D01*
X0364700Y0353377D01*
X0363177Y0353377D01*
X0360600Y0350800D01*
X0360600Y0349277D01*
X0360600Y0350605D02*
X0347200Y0350605D01*
X0347200Y0351603D02*
X0361404Y0351603D01*
X0362402Y0352602D02*
X0347200Y0352602D01*
X0347200Y0353600D02*
X0367800Y0353600D01*
X0367800Y0352602D02*
X0367598Y0352602D01*
X0367800Y0354599D02*
X0347200Y0354599D01*
X0347200Y0355597D02*
X0362782Y0355597D01*
X0363177Y0355202D02*
X0364700Y0355202D01*
X0364700Y0359302D01*
X0360600Y0359302D01*
X0360600Y0357780D01*
X0363177Y0355202D01*
X0364700Y0355597D02*
X0365300Y0355597D01*
X0365300Y0356596D02*
X0364700Y0356596D01*
X0364700Y0357594D02*
X0365300Y0357594D01*
X0365300Y0358593D02*
X0364700Y0358593D01*
X0364700Y0359591D02*
X0347200Y0359591D01*
X0347200Y0358593D02*
X0360600Y0358593D01*
X0360785Y0357594D02*
X0347200Y0357594D01*
X0347200Y0356596D02*
X0361784Y0356596D01*
X0360600Y0359902D02*
X0364700Y0359902D01*
X0364700Y0364002D01*
X0363177Y0364002D01*
X0360600Y0361425D01*
X0360600Y0359902D01*
X0360600Y0360590D02*
X0347200Y0360590D01*
X0347598Y0361588D02*
X0360764Y0361588D01*
X0361762Y0362587D02*
X0348596Y0362587D01*
X0349595Y0363585D02*
X0362761Y0363585D01*
X0364700Y0363585D02*
X0365300Y0363585D01*
X0365300Y0362587D02*
X0364700Y0362587D01*
X0364700Y0361588D02*
X0365300Y0361588D01*
X0365300Y0360590D02*
X0364700Y0360590D01*
X0365000Y0359602D02*
X0365000Y0348977D01*
X0365000Y0338977D01*
X0365000Y0322102D01*
X0357500Y0314602D01*
X0356691Y0304673D02*
X0351434Y0304673D01*
X0352433Y0303675D02*
X0355692Y0303675D01*
X0354775Y0302676D02*
X0353350Y0302676D01*
X0353350Y0301678D02*
X0353964Y0301678D01*
X0356250Y0300852D02*
X0350625Y0295227D01*
X0345000Y0295227D01*
X0343602Y0293829D01*
X0343602Y0291089D01*
X0341043Y0291089D02*
X0341043Y0295020D01*
X0345000Y0298977D01*
X0346875Y0298977D01*
X0348750Y0300852D01*
X0345067Y0303675D02*
X0341808Y0303675D01*
X0342725Y0302676D02*
X0344150Y0302676D01*
X0344150Y0301678D02*
X0342725Y0301678D01*
X0342725Y0300679D02*
X0343591Y0300679D01*
X0346066Y0304673D02*
X0340809Y0304673D01*
X0338125Y0300852D02*
X0338484Y0300493D01*
X0338484Y0291089D01*
X0336284Y0295687D02*
X0289928Y0295687D01*
X0289928Y0296685D02*
X0335786Y0296685D01*
X0334788Y0297684D02*
X0289928Y0297684D01*
X0289928Y0298682D02*
X0333789Y0298682D01*
X0333525Y0299681D02*
X0289928Y0299681D01*
X0288984Y0300679D02*
X0333525Y0300679D01*
X0332011Y0294688D02*
X0289928Y0294688D01*
X0289622Y0293690D02*
X0321615Y0293690D01*
X0322552Y0294627D02*
X0319975Y0292050D01*
X0319975Y0290527D01*
X0324075Y0290527D01*
X0324075Y0289927D01*
X0324675Y0289927D01*
X0324675Y0285827D01*
X0326198Y0285827D01*
X0328775Y0288405D01*
X0328775Y0289927D01*
X0324675Y0289927D01*
X0324675Y0290527D01*
X0328775Y0290527D01*
X0328775Y0292050D01*
X0326198Y0294627D01*
X0324675Y0294627D01*
X0324675Y0290527D01*
X0324075Y0290527D01*
X0324075Y0294627D01*
X0322552Y0294627D01*
X0324075Y0293690D02*
X0324675Y0293690D01*
X0324675Y0292691D02*
X0324075Y0292691D01*
X0324075Y0291693D02*
X0324675Y0291693D01*
X0324675Y0290694D02*
X0324075Y0290694D01*
X0324075Y0289927D02*
X0319975Y0289927D01*
X0319975Y0288405D01*
X0322552Y0285827D01*
X0324075Y0285827D01*
X0324075Y0289927D01*
X0324075Y0289696D02*
X0324675Y0289696D01*
X0324675Y0288697D02*
X0324075Y0288697D01*
X0324075Y0287699D02*
X0324675Y0287699D01*
X0324375Y0287102D02*
X0322813Y0288665D01*
X0324375Y0287102D02*
X0324375Y0281477D01*
X0326875Y0278977D01*
X0353125Y0278977D01*
X0356398Y0282250D01*
X0356398Y0291089D01*
X0356398Y0287639D01*
X0356398Y0291089D01*
X0356398Y0291089D01*
X0356398Y0290694D02*
X0356398Y0290694D01*
X0356398Y0289696D02*
X0356398Y0289696D01*
X0356398Y0288697D02*
X0356398Y0288697D01*
X0356398Y0287699D02*
X0356398Y0287699D01*
X0356039Y0286700D02*
X0372737Y0286700D01*
X0373735Y0287699D02*
X0368197Y0287699D01*
X0368934Y0288697D02*
X0374734Y0288697D01*
X0375732Y0289696D02*
X0368934Y0289696D01*
X0371738Y0285702D02*
X0356039Y0285702D01*
X0356039Y0284703D02*
X0370740Y0284703D01*
X0369741Y0283705D02*
X0355339Y0283705D01*
X0354340Y0282706D02*
X0368743Y0282706D01*
X0367744Y0281708D02*
X0353495Y0281708D01*
X0352718Y0280709D02*
X0366746Y0280709D01*
X0367500Y0278352D02*
X0355625Y0278352D01*
X0351250Y0273977D01*
X0348750Y0273977D01*
X0346161Y0271388D01*
X0346161Y0268115D01*
X0343602Y0268115D02*
X0343602Y0273500D01*
X0341875Y0275227D01*
X0326875Y0275227D01*
X0324375Y0272727D01*
X0324375Y0270227D01*
X0324375Y0271477D01*
X0328386Y0272721D02*
X0341270Y0272721D01*
X0344497Y0275716D02*
X0347378Y0275716D01*
X0346380Y0274718D02*
X0345495Y0274718D01*
X0343498Y0276715D02*
X0350877Y0276715D01*
X0351875Y0277714D02*
X0314600Y0277714D01*
X0314600Y0278712D02*
X0352874Y0278712D01*
X0353872Y0279711D02*
X0351291Y0279711D01*
X0347459Y0279711D02*
X0314600Y0279711D01*
X0314600Y0280709D02*
X0346032Y0280709D01*
X0345255Y0281708D02*
X0314150Y0281708D01*
X0313151Y0282706D02*
X0344841Y0282706D01*
X0344700Y0283705D02*
X0312465Y0283705D01*
X0313514Y0284703D02*
X0344700Y0284703D01*
X0345029Y0285702D02*
X0314090Y0285702D01*
X0314352Y0286700D02*
X0321679Y0286700D01*
X0320681Y0287699D02*
X0314400Y0287699D01*
X0314189Y0288697D02*
X0319975Y0288697D01*
X0319975Y0289696D02*
X0313736Y0289696D01*
X0312880Y0290694D02*
X0319975Y0290694D01*
X0319975Y0291693D02*
X0310721Y0291693D01*
X0310300Y0291693D02*
X0309700Y0291693D01*
X0309279Y0291693D02*
X0256373Y0291693D01*
X0256373Y0292691D02*
X0320617Y0292691D01*
X0324075Y0286700D02*
X0324675Y0286700D01*
X0327071Y0286700D02*
X0345487Y0286700D01*
X0348720Y0284632D02*
X0349375Y0283977D01*
X0352500Y0283977D01*
X0353839Y0285316D01*
X0353839Y0291089D01*
X0356398Y0291693D02*
X0356398Y0291693D01*
X0356398Y0292691D02*
X0356398Y0292691D01*
X0356398Y0293690D02*
X0356398Y0293690D01*
X0355194Y0294688D02*
X0357601Y0294688D01*
X0357036Y0296685D02*
X0355194Y0296685D01*
X0354196Y0295687D02*
X0364434Y0295687D01*
X0364434Y0296685D02*
X0361714Y0296685D01*
X0362712Y0297684D02*
X0364970Y0297684D01*
X0365969Y0298682D02*
X0363711Y0298682D01*
X0363975Y0299681D02*
X0366967Y0299681D01*
X0367800Y0300679D02*
X0363975Y0300679D01*
X0363975Y0301678D02*
X0367800Y0301678D01*
X0367800Y0302676D02*
X0363975Y0302676D01*
X0363058Y0303675D02*
X0367800Y0303675D01*
X0367800Y0304673D02*
X0362059Y0304673D01*
X0359375Y0300852D02*
X0356250Y0300852D01*
X0348720Y0291089D02*
X0348720Y0284632D01*
X0331803Y0287699D02*
X0328069Y0287699D01*
X0328775Y0288697D02*
X0331066Y0288697D01*
X0331066Y0289696D02*
X0328775Y0289696D01*
X0328775Y0290694D02*
X0331066Y0290694D01*
X0331066Y0291693D02*
X0328775Y0291693D01*
X0328133Y0292691D02*
X0331066Y0292691D01*
X0331066Y0293690D02*
X0327135Y0293690D01*
X0325252Y0276715D02*
X0313868Y0276715D01*
X0312870Y0275716D02*
X0324253Y0275716D01*
X0324675Y0276138D02*
X0324675Y0276138D01*
X0328975Y0271722D02*
X0332020Y0271722D01*
X0331066Y0270724D02*
X0328975Y0270724D01*
X0328975Y0269725D02*
X0331066Y0269725D01*
X0331066Y0268727D02*
X0328975Y0268727D01*
X0328382Y0267728D02*
X0331066Y0267728D01*
X0331066Y0266730D02*
X0327383Y0266730D01*
X0326385Y0265731D02*
X0331066Y0265731D01*
X0325117Y0259740D02*
X0343902Y0259740D01*
X0342903Y0258742D02*
X0326116Y0258742D01*
X0324119Y0260739D02*
X0344901Y0260739D01*
X0353839Y0262013D02*
X0358125Y0257727D01*
X0358125Y0240227D01*
X0355625Y0237727D01*
X0360225Y0237773D02*
X0362824Y0237773D01*
X0361825Y0238772D02*
X0360225Y0238772D01*
X0360325Y0239770D02*
X0360827Y0239770D01*
X0360400Y0240769D02*
X0360325Y0240769D01*
X0353068Y0233779D02*
X0338182Y0233779D01*
X0339181Y0234778D02*
X0352069Y0234778D01*
X0354075Y0250754D02*
X0355925Y0250754D01*
X0355925Y0251752D02*
X0354075Y0251752D01*
X0354654Y0252751D02*
X0355925Y0252751D01*
X0355925Y0253749D02*
X0355653Y0253749D01*
X0380300Y0276715D02*
X0406404Y0276715D01*
X0405406Y0277714D02*
X0401492Y0277714D01*
X0398355Y0273719D02*
X0409400Y0273719D01*
X0410398Y0272721D02*
X0398775Y0272721D01*
X0397357Y0274718D02*
X0408401Y0274718D01*
X0407403Y0275716D02*
X0396358Y0275716D01*
X0396008Y0277714D02*
X0380300Y0277714D01*
X0379376Y0278712D02*
X0395010Y0278712D01*
X0394150Y0279711D02*
X0378378Y0279711D01*
X0374965Y0282706D02*
X0394150Y0282706D01*
X0394150Y0281708D02*
X0373967Y0281708D01*
X0372968Y0280709D02*
X0394150Y0280709D01*
X0394472Y0283705D02*
X0375964Y0283705D01*
X0376962Y0284703D02*
X0395050Y0284703D01*
X0395050Y0285702D02*
X0377961Y0285702D01*
X0378959Y0286700D02*
X0395050Y0286700D01*
X0395050Y0287699D02*
X0379958Y0287699D01*
X0380325Y0288697D02*
X0385489Y0288697D01*
X0383776Y0289696D02*
X0380325Y0289696D01*
X0380325Y0290694D02*
X0382893Y0290694D01*
X0382480Y0291693D02*
X0380325Y0291693D01*
X0380325Y0292691D02*
X0382275Y0292691D01*
X0382275Y0293690D02*
X0380325Y0293690D01*
X0380325Y0294688D02*
X0382553Y0294688D01*
X0382967Y0295687D02*
X0380325Y0295687D01*
X0380325Y0296685D02*
X0383953Y0296685D01*
X0383788Y0297684D02*
X0380325Y0297684D01*
X0380325Y0298682D02*
X0382789Y0298682D01*
X0382275Y0299681D02*
X0380325Y0299681D01*
X0380325Y0300679D02*
X0382275Y0300679D01*
X0382275Y0301678D02*
X0380325Y0301678D01*
X0380325Y0302676D02*
X0382275Y0302676D01*
X0382942Y0303675D02*
X0380325Y0303675D01*
X0380325Y0304673D02*
X0383941Y0304673D01*
X0384939Y0305672D02*
X0380325Y0305672D01*
X0380325Y0306670D02*
X0428432Y0306670D01*
X0426883Y0305672D02*
X0421202Y0305672D01*
X0420285Y0306902D02*
X0421966Y0307599D01*
X0423253Y0308886D01*
X0423950Y0310567D01*
X0423950Y0312387D01*
X0423253Y0314068D01*
X0421966Y0315355D01*
X0420285Y0316052D01*
X0418465Y0316052D01*
X0416784Y0315355D01*
X0415497Y0314068D01*
X0414800Y0312387D01*
X0414800Y0310567D01*
X0415497Y0308886D01*
X0416784Y0307599D01*
X0418465Y0306902D01*
X0420285Y0306902D01*
X0422037Y0307669D02*
X0430555Y0307669D01*
X0425885Y0304673D02*
X0422648Y0304673D01*
X0423416Y0303675D02*
X0424906Y0303675D01*
X0424330Y0302676D02*
X0423830Y0302676D01*
X0417548Y0305672D02*
X0388811Y0305672D01*
X0389809Y0304673D02*
X0416102Y0304673D01*
X0415334Y0303675D02*
X0390808Y0303675D01*
X0391475Y0302676D02*
X0414920Y0302676D01*
X0414800Y0301678D02*
X0391475Y0301678D01*
X0391475Y0300679D02*
X0414800Y0300679D01*
X0415167Y0299681D02*
X0391475Y0299681D01*
X0390961Y0298682D02*
X0415675Y0298682D01*
X0415675Y0297684D02*
X0389962Y0297684D01*
X0388261Y0288697D02*
X0395050Y0288697D01*
X0402450Y0288697D02*
X0425468Y0288697D01*
X0424666Y0289696D02*
X0418070Y0289696D01*
X0419450Y0290694D02*
X0424089Y0290694D01*
X0423513Y0291693D02*
X0420448Y0291693D01*
X0421447Y0292691D02*
X0423174Y0292691D01*
X0422906Y0293690D02*
X0422445Y0293690D01*
X0426467Y0287699D02*
X0402450Y0287699D01*
X0402450Y0286700D02*
X0427711Y0286700D01*
X0429440Y0285702D02*
X0421031Y0285702D01*
X0420655Y0286077D02*
X0416845Y0286077D01*
X0414150Y0283382D01*
X0414150Y0279572D01*
X0416845Y0276877D01*
X0420655Y0276877D01*
X0423350Y0279572D01*
X0423350Y0283382D01*
X0420655Y0286077D01*
X0422029Y0284703D02*
X0432727Y0284703D01*
X0436023Y0284703D02*
X0449421Y0284703D01*
X0449421Y0283705D02*
X0423028Y0283705D01*
X0423350Y0282706D02*
X0449421Y0282706D01*
X0449421Y0281708D02*
X0423350Y0281708D01*
X0423350Y0280709D02*
X0449421Y0280709D01*
X0449421Y0279711D02*
X0423350Y0279711D01*
X0422490Y0278712D02*
X0449421Y0278712D01*
X0449421Y0277714D02*
X0421492Y0277714D01*
X0417868Y0275716D02*
X0432109Y0275716D01*
X0436641Y0275716D02*
X0449421Y0275716D01*
X0449421Y0274718D02*
X0437639Y0274718D01*
X0438638Y0273719D02*
X0449421Y0273719D01*
X0449421Y0272721D02*
X0438975Y0272721D01*
X0438975Y0271722D02*
X0449421Y0271722D01*
X0449421Y0270724D02*
X0438975Y0270724D01*
X0438975Y0269725D02*
X0449421Y0269725D01*
X0449421Y0268727D02*
X0438130Y0268727D01*
X0449421Y0276715D02*
X0416870Y0276715D01*
X0416008Y0277714D02*
X0415871Y0277714D01*
X0415010Y0278712D02*
X0414873Y0278712D01*
X0414150Y0279711D02*
X0413874Y0279711D01*
X0414150Y0280709D02*
X0412876Y0280709D01*
X0411877Y0281708D02*
X0414150Y0281708D01*
X0414150Y0282706D02*
X0410879Y0282706D01*
X0410012Y0283573D02*
X0410012Y0283573D01*
X0409880Y0283705D02*
X0414472Y0283705D01*
X0415471Y0284703D02*
X0408755Y0284703D01*
X0402450Y0285702D02*
X0416469Y0285702D01*
X0439310Y0285702D02*
X0449421Y0285702D01*
X0449421Y0286700D02*
X0441039Y0286700D01*
X0442283Y0287699D02*
X0449421Y0287699D01*
X0449421Y0288697D02*
X0443282Y0288697D01*
X0444084Y0289696D02*
X0449421Y0289696D01*
X0449421Y0290694D02*
X0444661Y0290694D01*
X0445237Y0291693D02*
X0449421Y0291693D01*
X0449421Y0292691D02*
X0445576Y0292691D01*
X0445844Y0293690D02*
X0449421Y0293690D01*
X0449421Y0294688D02*
X0446111Y0294688D01*
X0446174Y0295687D02*
X0449421Y0295687D01*
X0449421Y0296685D02*
X0446174Y0296685D01*
X0446174Y0297684D02*
X0449421Y0297684D01*
X0449421Y0298682D02*
X0446000Y0298682D01*
X0445732Y0299681D02*
X0449421Y0299681D01*
X0449421Y0300679D02*
X0445464Y0300679D01*
X0444997Y0301678D02*
X0449421Y0301678D01*
X0449421Y0302676D02*
X0444420Y0302676D01*
X0443844Y0303675D02*
X0449421Y0303675D01*
X0449421Y0304673D02*
X0442865Y0304673D01*
X0441867Y0305672D02*
X0449421Y0305672D01*
X0449421Y0306670D02*
X0440318Y0306670D01*
X0438195Y0307669D02*
X0449421Y0307669D01*
X0449421Y0308667D02*
X0423035Y0308667D01*
X0423577Y0309666D02*
X0449421Y0309666D01*
X0449421Y0310664D02*
X0423950Y0310664D01*
X0423950Y0311663D02*
X0449421Y0311663D01*
X0449421Y0312661D02*
X0423836Y0312661D01*
X0423423Y0313660D02*
X0449421Y0313660D01*
X0449421Y0314658D02*
X0422663Y0314658D01*
X0421238Y0315657D02*
X0429518Y0315657D01*
X0427788Y0316655D02*
X0380325Y0316655D01*
X0380325Y0315657D02*
X0417512Y0315657D01*
X0416087Y0314658D02*
X0380325Y0314658D01*
X0380325Y0313660D02*
X0415327Y0313660D01*
X0414914Y0312661D02*
X0380325Y0312661D01*
X0380325Y0311663D02*
X0414800Y0311663D01*
X0414800Y0310664D02*
X0380325Y0310664D01*
X0380325Y0309666D02*
X0415173Y0309666D01*
X0415715Y0308667D02*
X0380325Y0308667D01*
X0380325Y0307669D02*
X0416713Y0307669D01*
X0416728Y0317654D02*
X0381163Y0317654D01*
X0382162Y0318652D02*
X0415730Y0318652D01*
X0419375Y0321477D02*
X0381875Y0321477D01*
X0378125Y0317727D01*
X0378125Y0288977D01*
X0367500Y0278352D01*
X0370971Y0278712D02*
X0371874Y0278712D01*
X0371970Y0279711D02*
X0372872Y0279711D01*
X0367800Y0315657D02*
X0298350Y0315657D01*
X0298202Y0316655D02*
X0367800Y0316655D01*
X0367800Y0317654D02*
X0297203Y0317654D01*
X0296205Y0318652D02*
X0367800Y0318652D01*
X0367800Y0319651D02*
X0257200Y0319651D01*
X0257200Y0320650D02*
X0310216Y0320650D01*
X0309218Y0321648D02*
X0257200Y0321648D01*
X0257200Y0322647D02*
X0308219Y0322647D01*
X0306327Y0323645D02*
X0257200Y0323645D01*
X0257200Y0324644D02*
X0305328Y0324644D01*
X0304330Y0325642D02*
X0257200Y0325642D01*
X0257200Y0326641D02*
X0304150Y0326641D01*
X0304150Y0327639D02*
X0257200Y0327639D01*
X0257200Y0328638D02*
X0304150Y0328638D01*
X0304154Y0329636D02*
X0257200Y0329636D01*
X0257200Y0330635D02*
X0305152Y0330635D01*
X0306151Y0331633D02*
X0257200Y0331633D01*
X0252800Y0331633D02*
X0251974Y0331633D01*
X0252800Y0332632D02*
X0247200Y0332632D01*
X0247200Y0331633D02*
X0248026Y0331633D01*
X0248033Y0333630D02*
X0252800Y0333630D01*
X0252800Y0334629D02*
X0249032Y0334629D01*
X0249600Y0335627D02*
X0252800Y0335627D01*
X0252800Y0336626D02*
X0249600Y0336626D01*
X0249600Y0337624D02*
X0252800Y0337624D01*
X0252800Y0338623D02*
X0249600Y0338623D01*
X0248986Y0339621D02*
X0252800Y0339621D01*
X0252800Y0340620D02*
X0247988Y0340620D01*
X0246989Y0341618D02*
X0252800Y0341618D01*
X0252800Y0342617D02*
X0204622Y0342617D01*
X0204800Y0343047D02*
X0204800Y0347235D01*
X0206869Y0349304D01*
X0207798Y0350233D01*
X0208300Y0351446D01*
X0208300Y0353802D01*
X0217795Y0353802D01*
X0218394Y0353202D01*
X0220085Y0352502D01*
X0221915Y0352502D01*
X0223606Y0353202D01*
X0224900Y0354496D01*
X0224958Y0354638D01*
X0227095Y0352502D01*
X0230905Y0352502D01*
X0233600Y0355197D01*
X0233600Y0359007D01*
X0230905Y0361702D01*
X0227095Y0361702D01*
X0224958Y0359566D01*
X0224900Y0359708D01*
X0223606Y0361002D01*
X0221915Y0361702D01*
X0220085Y0361702D01*
X0218394Y0361002D01*
X0217795Y0360402D01*
X0208300Y0360402D01*
X0208300Y0365735D01*
X0211367Y0368802D01*
X0220656Y0368802D01*
X0221869Y0369304D01*
X0226869Y0374304D01*
X0227798Y0375233D01*
X0228300Y0376446D01*
X0228300Y0378331D01*
X0230000Y0380031D01*
X0232929Y0377102D01*
X0237071Y0377102D01*
X0240000Y0380031D01*
X0242929Y0377102D01*
X0247071Y0377102D01*
X0250000Y0380031D01*
X0252929Y0377102D01*
X0257071Y0377102D01*
X0260000Y0380031D01*
X0260000Y0384173D01*
X0257071Y0387102D01*
X0252929Y0387102D01*
X0250000Y0384173D01*
X0250000Y0380031D01*
X0250000Y0384173D01*
X0247071Y0387102D01*
X0242929Y0387102D01*
X0240000Y0384173D01*
X0237071Y0387102D01*
X0232929Y0387102D01*
X0230000Y0384173D01*
X0228700Y0385473D01*
X0228700Y0388731D01*
X0230000Y0390031D01*
X0232929Y0387102D01*
X0237071Y0387102D01*
X0240000Y0390031D01*
X0242929Y0387102D01*
X0247071Y0387102D01*
X0250000Y0390031D01*
X0252929Y0387102D01*
X0257071Y0387102D01*
X0260000Y0390031D01*
X0260000Y0394173D01*
X0257071Y0397102D01*
X0252929Y0397102D01*
X0250000Y0394173D01*
X0250000Y0390031D01*
X0250000Y0394173D01*
X0247071Y0397102D01*
X0242929Y0397102D01*
X0240000Y0394173D01*
X0240000Y0390031D01*
X0240000Y0394173D01*
X0237071Y0397102D01*
X0232929Y0397102D01*
X0230000Y0394173D01*
X0230000Y0390031D01*
X0230000Y0394173D01*
X0227071Y0397102D01*
X0222929Y0397102D01*
X0220000Y0394173D01*
X0220000Y0390031D01*
X0221300Y0388731D01*
X0221300Y0385473D01*
X0220000Y0384173D01*
X0220000Y0380031D01*
X0221631Y0378400D01*
X0218633Y0375402D01*
X0209344Y0375402D01*
X0208131Y0374900D01*
X0207202Y0373971D01*
X0202202Y0368971D01*
X0201700Y0367758D01*
X0201700Y0354693D01*
X0200955Y0355002D01*
X0199045Y0355002D01*
X0197281Y0354271D01*
X0195931Y0352921D01*
X0195200Y0351157D01*
X0195200Y0343047D01*
X0195931Y0341283D01*
X0197281Y0339933D01*
X0199045Y0339202D01*
X0200955Y0339202D01*
X0202719Y0339933D01*
X0204069Y0341283D01*
X0204800Y0343047D01*
X0204800Y0343615D02*
X0252800Y0343615D01*
X0252800Y0344614D02*
X0204800Y0344614D01*
X0204800Y0345612D02*
X0252800Y0345612D01*
X0252800Y0346611D02*
X0204800Y0346611D01*
X0205174Y0347609D02*
X0252800Y0347609D01*
X0252800Y0348608D02*
X0206173Y0348608D01*
X0207171Y0349606D02*
X0252800Y0349606D01*
X0252800Y0350605D02*
X0207952Y0350605D01*
X0208300Y0351603D02*
X0252800Y0351603D01*
X0252800Y0352602D02*
X0231005Y0352602D01*
X0232004Y0353600D02*
X0252800Y0353600D01*
X0252800Y0354599D02*
X0233002Y0354599D01*
X0233600Y0355597D02*
X0252884Y0355597D01*
X0253883Y0356596D02*
X0233600Y0356596D01*
X0233600Y0357594D02*
X0254881Y0357594D01*
X0255880Y0358593D02*
X0233600Y0358593D01*
X0233016Y0359591D02*
X0256878Y0359591D01*
X0257877Y0360590D02*
X0232017Y0360590D01*
X0231019Y0361588D02*
X0258875Y0361588D01*
X0259874Y0362587D02*
X0208300Y0362587D01*
X0208300Y0363585D02*
X0260872Y0363585D01*
X0261871Y0364584D02*
X0208300Y0364584D01*
X0208300Y0365583D02*
X0262869Y0365583D01*
X0263868Y0366581D02*
X0209146Y0366581D01*
X0210144Y0367580D02*
X0264866Y0367580D01*
X0265865Y0368578D02*
X0211143Y0368578D01*
X0208300Y0361588D02*
X0219811Y0361588D01*
X0217983Y0360590D02*
X0208300Y0360590D01*
X0201700Y0360590D02*
X0199800Y0360590D01*
X0199800Y0361588D02*
X0201700Y0361588D01*
X0201700Y0362587D02*
X0199800Y0362587D01*
X0199800Y0363585D02*
X0201700Y0363585D01*
X0201700Y0364584D02*
X0199800Y0364584D01*
X0199800Y0365583D02*
X0201700Y0365583D01*
X0201700Y0366581D02*
X0199624Y0366581D01*
X0199211Y0367580D02*
X0201700Y0367580D01*
X0202039Y0368578D02*
X0198412Y0368578D01*
X0196982Y0369577D02*
X0202808Y0369577D01*
X0203806Y0370575D02*
X0195000Y0370575D01*
X0195000Y0371574D02*
X0204805Y0371574D01*
X0205803Y0372572D02*
X0195000Y0372572D01*
X0195000Y0373571D02*
X0206802Y0373571D01*
X0207800Y0374569D02*
X0195000Y0374569D01*
X0195000Y0375568D02*
X0218799Y0375568D01*
X0219797Y0376566D02*
X0195000Y0376566D01*
X0195000Y0377565D02*
X0200533Y0377565D01*
X0200996Y0377102D02*
X0200000Y0378098D01*
X0200000Y0386106D01*
X0200996Y0387102D01*
X0209004Y0387102D01*
X0210000Y0386106D01*
X0210000Y0378098D01*
X0209004Y0377102D01*
X0200996Y0377102D01*
X0200000Y0378563D02*
X0195000Y0378563D01*
X0195000Y0379562D02*
X0200000Y0379562D01*
X0200000Y0380560D02*
X0195000Y0380560D01*
X0195000Y0381559D02*
X0200000Y0381559D01*
X0200000Y0382557D02*
X0195000Y0382557D01*
X0195000Y0383556D02*
X0200000Y0383556D01*
X0200000Y0384554D02*
X0195000Y0384554D01*
X0195000Y0385553D02*
X0200000Y0385553D01*
X0200445Y0386551D02*
X0195000Y0386551D01*
X0195000Y0387550D02*
X0202481Y0387550D01*
X0202929Y0387102D02*
X0207071Y0387102D01*
X0210000Y0390031D01*
X0210000Y0394173D01*
X0207071Y0397102D01*
X0202929Y0397102D01*
X0200000Y0394173D01*
X0200000Y0390031D01*
X0202929Y0387102D01*
X0201483Y0388548D02*
X0195000Y0388548D01*
X0195000Y0389547D02*
X0200484Y0389547D01*
X0200000Y0390545D02*
X0195000Y0390545D01*
X0195000Y0391544D02*
X0200000Y0391544D01*
X0200000Y0392542D02*
X0195000Y0392542D01*
X0195000Y0393541D02*
X0200000Y0393541D01*
X0200366Y0394539D02*
X0195000Y0394539D01*
X0195000Y0395538D02*
X0201365Y0395538D01*
X0202363Y0396536D02*
X0195000Y0396536D01*
X0195000Y0397535D02*
X0272800Y0397535D01*
X0272363Y0396536D02*
X0267637Y0396536D01*
X0268635Y0395538D02*
X0271365Y0395538D01*
X0270366Y0394539D02*
X0269634Y0394539D01*
X0270000Y0394173D02*
X0270000Y0390031D01*
X0270000Y0394173D01*
X0270000Y0393541D02*
X0270000Y0393541D01*
X0270000Y0392542D02*
X0270000Y0392542D01*
X0270000Y0391544D02*
X0270000Y0391544D01*
X0270000Y0390545D02*
X0270000Y0390545D01*
X0269516Y0389547D02*
X0270484Y0389547D01*
X0271483Y0388548D02*
X0268517Y0388548D01*
X0267519Y0387550D02*
X0272481Y0387550D01*
X0272378Y0386551D02*
X0267622Y0386551D01*
X0268620Y0385553D02*
X0271380Y0385553D01*
X0270381Y0384554D02*
X0269619Y0384554D01*
X0270000Y0384173D02*
X0270000Y0380031D01*
X0270000Y0384173D01*
X0270000Y0383556D02*
X0270000Y0383556D01*
X0270000Y0382557D02*
X0270000Y0382557D01*
X0270000Y0381559D02*
X0270000Y0381559D01*
X0270000Y0380560D02*
X0270000Y0380560D01*
X0269531Y0379562D02*
X0270469Y0379562D01*
X0271468Y0378563D02*
X0268532Y0378563D01*
X0267534Y0377565D02*
X0272466Y0377565D01*
X0272800Y0376566D02*
X0228300Y0376566D01*
X0228300Y0377565D02*
X0232466Y0377565D01*
X0231468Y0378563D02*
X0228532Y0378563D01*
X0229531Y0379562D02*
X0230469Y0379562D01*
X0230000Y0380031D02*
X0230000Y0384173D01*
X0230000Y0380031D01*
X0230000Y0380560D02*
X0230000Y0380560D01*
X0230000Y0381559D02*
X0230000Y0381559D01*
X0230000Y0382557D02*
X0230000Y0382557D01*
X0230000Y0383556D02*
X0230000Y0383556D01*
X0229619Y0384554D02*
X0230381Y0384554D01*
X0231380Y0385553D02*
X0228700Y0385553D01*
X0228700Y0386551D02*
X0232378Y0386551D01*
X0232481Y0387550D02*
X0228700Y0387550D01*
X0228700Y0388548D02*
X0231483Y0388548D01*
X0230484Y0389547D02*
X0229516Y0389547D01*
X0230000Y0390545D02*
X0230000Y0390545D01*
X0230000Y0391544D02*
X0230000Y0391544D01*
X0230000Y0392542D02*
X0230000Y0392542D01*
X0230000Y0393541D02*
X0230000Y0393541D01*
X0229634Y0394539D02*
X0230366Y0394539D01*
X0231365Y0395538D02*
X0228635Y0395538D01*
X0227637Y0396536D02*
X0232363Y0396536D01*
X0237637Y0396536D02*
X0242363Y0396536D01*
X0241365Y0395538D02*
X0238635Y0395538D01*
X0239634Y0394539D02*
X0240366Y0394539D01*
X0240000Y0393541D02*
X0240000Y0393541D01*
X0240000Y0392542D02*
X0240000Y0392542D01*
X0240000Y0391544D02*
X0240000Y0391544D01*
X0240000Y0390545D02*
X0240000Y0390545D01*
X0239516Y0389547D02*
X0240484Y0389547D01*
X0241483Y0388548D02*
X0238517Y0388548D01*
X0237519Y0387550D02*
X0242481Y0387550D01*
X0242378Y0386551D02*
X0237622Y0386551D01*
X0238620Y0385553D02*
X0241380Y0385553D01*
X0240381Y0384554D02*
X0239619Y0384554D01*
X0240000Y0384173D02*
X0240000Y0380031D01*
X0240000Y0384173D01*
X0240000Y0383556D02*
X0240000Y0383556D01*
X0240000Y0382557D02*
X0240000Y0382557D01*
X0240000Y0381559D02*
X0240000Y0381559D01*
X0240000Y0380560D02*
X0240000Y0380560D01*
X0239531Y0379562D02*
X0240469Y0379562D01*
X0241468Y0378563D02*
X0238532Y0378563D01*
X0237534Y0377565D02*
X0242466Y0377565D01*
X0247534Y0377565D02*
X0252466Y0377565D01*
X0251468Y0378563D02*
X0248532Y0378563D01*
X0249531Y0379562D02*
X0250469Y0379562D01*
X0250000Y0380560D02*
X0250000Y0380560D01*
X0250000Y0381559D02*
X0250000Y0381559D01*
X0250000Y0382557D02*
X0250000Y0382557D01*
X0250000Y0383556D02*
X0250000Y0383556D01*
X0249619Y0384554D02*
X0250381Y0384554D01*
X0251380Y0385553D02*
X0248620Y0385553D01*
X0247622Y0386551D02*
X0252378Y0386551D01*
X0252481Y0387550D02*
X0247519Y0387550D01*
X0248517Y0388548D02*
X0251483Y0388548D01*
X0250484Y0389547D02*
X0249516Y0389547D01*
X0250000Y0390545D02*
X0250000Y0390545D01*
X0250000Y0391544D02*
X0250000Y0391544D01*
X0250000Y0392542D02*
X0250000Y0392542D01*
X0250000Y0393541D02*
X0250000Y0393541D01*
X0249634Y0394539D02*
X0250366Y0394539D01*
X0251365Y0395538D02*
X0248635Y0395538D01*
X0247637Y0396536D02*
X0252363Y0396536D01*
X0257637Y0396536D02*
X0262363Y0396536D01*
X0261365Y0395538D02*
X0258635Y0395538D01*
X0259634Y0394539D02*
X0260366Y0394539D01*
X0260000Y0393541D02*
X0260000Y0393541D01*
X0260000Y0392542D02*
X0260000Y0392542D01*
X0260000Y0391544D02*
X0260000Y0391544D01*
X0260000Y0390545D02*
X0260000Y0390545D01*
X0259516Y0389547D02*
X0260484Y0389547D01*
X0261483Y0388548D02*
X0258517Y0388548D01*
X0257519Y0387550D02*
X0262481Y0387550D01*
X0262378Y0386551D02*
X0257622Y0386551D01*
X0258620Y0385553D02*
X0261380Y0385553D01*
X0260381Y0384554D02*
X0259619Y0384554D01*
X0260000Y0383556D02*
X0260000Y0383556D01*
X0260000Y0382557D02*
X0260000Y0382557D01*
X0260000Y0381559D02*
X0260000Y0381559D01*
X0260000Y0380560D02*
X0260000Y0380560D01*
X0259531Y0379562D02*
X0260469Y0379562D01*
X0261468Y0378563D02*
X0258532Y0378563D01*
X0257534Y0377565D02*
X0262466Y0377565D01*
X0268860Y0371574D02*
X0224138Y0371574D01*
X0225137Y0372572D02*
X0269859Y0372572D01*
X0270857Y0373571D02*
X0226135Y0373571D01*
X0227134Y0374569D02*
X0271856Y0374569D01*
X0272800Y0375568D02*
X0227936Y0375568D01*
X0223140Y0370575D02*
X0267862Y0370575D01*
X0266863Y0369577D02*
X0222141Y0369577D01*
X0216988Y0377302D02*
X0219800Y0380114D01*
X0219800Y0381602D01*
X0215500Y0381602D01*
X0215500Y0377302D01*
X0216988Y0377302D01*
X0217251Y0377565D02*
X0220796Y0377565D01*
X0221468Y0378563D02*
X0218249Y0378563D01*
X0219248Y0379562D02*
X0220469Y0379562D01*
X0220000Y0380560D02*
X0219800Y0380560D01*
X0219800Y0381559D02*
X0220000Y0381559D01*
X0220000Y0382557D02*
X0215500Y0382557D01*
X0215500Y0382602D02*
X0219800Y0382602D01*
X0219800Y0384090D01*
X0216988Y0386902D01*
X0215500Y0386902D01*
X0215500Y0382602D01*
X0215500Y0381602D01*
X0214500Y0381602D01*
X0214500Y0377302D01*
X0213012Y0377302D01*
X0210200Y0380114D01*
X0210200Y0381602D01*
X0214500Y0381602D01*
X0214500Y0382602D01*
X0210200Y0382602D01*
X0210200Y0384090D01*
X0213012Y0386902D01*
X0214500Y0386902D01*
X0214500Y0382602D01*
X0215500Y0382602D01*
X0215500Y0383556D02*
X0214500Y0383556D01*
X0214500Y0384554D02*
X0215500Y0384554D01*
X0215500Y0385553D02*
X0214500Y0385553D01*
X0214500Y0386551D02*
X0215500Y0386551D01*
X0215500Y0387302D02*
X0216988Y0387302D01*
X0219800Y0390114D01*
X0219800Y0391602D01*
X0215500Y0391602D01*
X0215500Y0387302D01*
X0215500Y0387550D02*
X0214500Y0387550D01*
X0214500Y0387302D02*
X0214500Y0391602D01*
X0215500Y0391602D01*
X0215500Y0392602D01*
X0219800Y0392602D01*
X0219800Y0394090D01*
X0216988Y0396902D01*
X0215500Y0396902D01*
X0215500Y0392602D01*
X0214500Y0392602D01*
X0214500Y0391602D01*
X0210200Y0391602D01*
X0210200Y0390114D01*
X0213012Y0387302D01*
X0214500Y0387302D01*
X0214500Y0388548D02*
X0215500Y0388548D01*
X0215500Y0389547D02*
X0214500Y0389547D01*
X0214500Y0390545D02*
X0215500Y0390545D01*
X0215500Y0391544D02*
X0214500Y0391544D01*
X0214500Y0392542D02*
X0210000Y0392542D01*
X0210200Y0392602D02*
X0214500Y0392602D01*
X0214500Y0396902D01*
X0213012Y0396902D01*
X0210200Y0394090D01*
X0210200Y0392602D01*
X0210200Y0393541D02*
X0210000Y0393541D01*
X0209634Y0394539D02*
X0210649Y0394539D01*
X0211648Y0395538D02*
X0208635Y0395538D01*
X0207637Y0396536D02*
X0212646Y0396536D01*
X0214500Y0396536D02*
X0215500Y0396536D01*
X0215500Y0395538D02*
X0214500Y0395538D01*
X0214500Y0394539D02*
X0215500Y0394539D01*
X0215500Y0393541D02*
X0214500Y0393541D01*
X0215500Y0392542D02*
X0220000Y0392542D01*
X0220000Y0391544D02*
X0219800Y0391544D01*
X0219800Y0390545D02*
X0220000Y0390545D01*
X0220484Y0389547D02*
X0219233Y0389547D01*
X0218234Y0388548D02*
X0221300Y0388548D01*
X0221300Y0387550D02*
X0217236Y0387550D01*
X0217339Y0386551D02*
X0221300Y0386551D01*
X0221300Y0385553D02*
X0218338Y0385553D01*
X0219336Y0384554D02*
X0220381Y0384554D01*
X0220000Y0383556D02*
X0219800Y0383556D01*
X0215500Y0381559D02*
X0214500Y0381559D01*
X0214500Y0382557D02*
X0210000Y0382557D01*
X0210000Y0381559D02*
X0210200Y0381559D01*
X0210200Y0380560D02*
X0210000Y0380560D01*
X0210000Y0379562D02*
X0210752Y0379562D01*
X0210000Y0378563D02*
X0211751Y0378563D01*
X0212749Y0377565D02*
X0209467Y0377565D01*
X0214500Y0377565D02*
X0215500Y0377565D01*
X0215500Y0378563D02*
X0214500Y0378563D01*
X0214500Y0379562D02*
X0215500Y0379562D01*
X0215500Y0380560D02*
X0214500Y0380560D01*
X0210200Y0383556D02*
X0210000Y0383556D01*
X0210000Y0384554D02*
X0210664Y0384554D01*
X0210000Y0385553D02*
X0211662Y0385553D01*
X0212661Y0386551D02*
X0209555Y0386551D01*
X0208517Y0388548D02*
X0211766Y0388548D01*
X0212764Y0387550D02*
X0207519Y0387550D01*
X0209516Y0389547D02*
X0210767Y0389547D01*
X0210200Y0390545D02*
X0210000Y0390545D01*
X0210000Y0391544D02*
X0210200Y0391544D01*
X0217354Y0396536D02*
X0222363Y0396536D01*
X0221365Y0395538D02*
X0218352Y0395538D01*
X0219351Y0394539D02*
X0220366Y0394539D01*
X0220000Y0393541D02*
X0219800Y0393541D01*
X0195000Y0398533D02*
X0273320Y0398533D01*
X0274319Y0399532D02*
X0195000Y0399532D01*
X0195000Y0400530D02*
X0275317Y0400530D01*
X0276316Y0401529D02*
X0195000Y0401529D01*
X0195000Y0402527D02*
X0277314Y0402527D01*
X0278313Y0403526D02*
X0195000Y0403526D01*
X0195000Y0404524D02*
X0433434Y0404524D01*
X0433201Y0403526D02*
X0366687Y0403526D01*
X0367686Y0402527D02*
X0433201Y0402527D01*
X0433201Y0401529D02*
X0368684Y0401529D01*
X0369683Y0400530D02*
X0433206Y0400530D01*
X0433473Y0399532D02*
X0370681Y0399532D01*
X0371680Y0398533D02*
X0433741Y0398533D01*
X0434012Y0397535D02*
X0372200Y0397535D01*
X0372200Y0396536D02*
X0372363Y0396536D01*
X0377637Y0396536D02*
X0382363Y0396536D01*
X0381365Y0395538D02*
X0378635Y0395538D01*
X0379634Y0394539D02*
X0380366Y0394539D01*
X0380000Y0393541D02*
X0380000Y0393541D01*
X0380000Y0392542D02*
X0380000Y0392542D01*
X0380000Y0391544D02*
X0380000Y0391544D01*
X0380000Y0390545D02*
X0380000Y0390545D01*
X0379516Y0389547D02*
X0380484Y0389547D01*
X0381483Y0388548D02*
X0378517Y0388548D01*
X0377519Y0387550D02*
X0382481Y0387550D01*
X0382378Y0386551D02*
X0377622Y0386551D01*
X0378620Y0385553D02*
X0381380Y0385553D01*
X0380381Y0384554D02*
X0379619Y0384554D01*
X0380000Y0383556D02*
X0380000Y0383556D01*
X0380000Y0382557D02*
X0380000Y0382557D01*
X0380000Y0381559D02*
X0380000Y0381559D01*
X0380000Y0380560D02*
X0380000Y0380560D01*
X0379531Y0379562D02*
X0380469Y0379562D01*
X0381468Y0378563D02*
X0378532Y0378563D01*
X0377534Y0377565D02*
X0382466Y0377565D01*
X0387534Y0377565D02*
X0392466Y0377565D01*
X0391468Y0378563D02*
X0388532Y0378563D01*
X0389531Y0379562D02*
X0390469Y0379562D01*
X0390000Y0380560D02*
X0390000Y0380560D01*
X0390000Y0381559D02*
X0390000Y0381559D01*
X0390000Y0382557D02*
X0390000Y0382557D01*
X0390000Y0383556D02*
X0390000Y0383556D01*
X0389619Y0384554D02*
X0390381Y0384554D01*
X0391380Y0385553D02*
X0388620Y0385553D01*
X0387622Y0386551D02*
X0392378Y0386551D01*
X0392481Y0387550D02*
X0387519Y0387550D01*
X0388517Y0388548D02*
X0391483Y0388548D01*
X0390484Y0389547D02*
X0389516Y0389547D01*
X0390000Y0390545D02*
X0390000Y0390545D01*
X0390000Y0391544D02*
X0390000Y0391544D01*
X0390000Y0392542D02*
X0390000Y0392542D01*
X0390000Y0393541D02*
X0390000Y0393541D01*
X0389634Y0394539D02*
X0390366Y0394539D01*
X0391365Y0395538D02*
X0388635Y0395538D01*
X0387637Y0396536D02*
X0392363Y0396536D01*
X0397637Y0396536D02*
X0402363Y0396536D01*
X0401365Y0395538D02*
X0398635Y0395538D01*
X0399634Y0394539D02*
X0400366Y0394539D01*
X0400000Y0393541D02*
X0400000Y0393541D01*
X0400000Y0392542D02*
X0400000Y0392542D01*
X0400000Y0391544D02*
X0400000Y0391544D01*
X0400000Y0390545D02*
X0400000Y0390545D01*
X0399516Y0389547D02*
X0400484Y0389547D01*
X0401483Y0388548D02*
X0398517Y0388548D01*
X0397519Y0387550D02*
X0402481Y0387550D01*
X0402378Y0386551D02*
X0397622Y0386551D01*
X0398620Y0385553D02*
X0401380Y0385553D01*
X0400381Y0384554D02*
X0399619Y0384554D01*
X0400000Y0383556D02*
X0400000Y0383556D01*
X0400000Y0382557D02*
X0400000Y0382557D01*
X0400000Y0381559D02*
X0400000Y0381559D01*
X0400000Y0380560D02*
X0400000Y0380560D01*
X0399531Y0379562D02*
X0400469Y0379562D01*
X0401468Y0378563D02*
X0398532Y0378563D01*
X0397534Y0377565D02*
X0402466Y0377565D01*
X0407534Y0377565D02*
X0412466Y0377565D01*
X0411468Y0378563D02*
X0408532Y0378563D01*
X0409531Y0379562D02*
X0410469Y0379562D01*
X0410000Y0380560D02*
X0410000Y0380560D01*
X0410000Y0381559D02*
X0410000Y0381559D01*
X0410000Y0382557D02*
X0410000Y0382557D01*
X0410000Y0383556D02*
X0410000Y0383556D01*
X0409619Y0384554D02*
X0410381Y0384554D01*
X0411380Y0385553D02*
X0408620Y0385553D01*
X0407622Y0386551D02*
X0412378Y0386551D01*
X0412481Y0387550D02*
X0407519Y0387550D01*
X0408517Y0388548D02*
X0411483Y0388548D01*
X0410484Y0389547D02*
X0409516Y0389547D01*
X0410000Y0390545D02*
X0410000Y0390545D01*
X0410000Y0391544D02*
X0410000Y0391544D01*
X0410000Y0392542D02*
X0410000Y0392542D01*
X0410000Y0393541D02*
X0410000Y0393541D01*
X0409634Y0394539D02*
X0410366Y0394539D01*
X0411365Y0395538D02*
X0408635Y0395538D01*
X0407637Y0396536D02*
X0412363Y0396536D01*
X0417637Y0396536D02*
X0422363Y0396536D01*
X0421365Y0395538D02*
X0418635Y0395538D01*
X0419634Y0394539D02*
X0420366Y0394539D01*
X0420000Y0393541D02*
X0420000Y0393541D01*
X0420000Y0392542D02*
X0420000Y0392542D01*
X0420000Y0391544D02*
X0420000Y0391544D01*
X0420000Y0390545D02*
X0420000Y0390545D01*
X0419516Y0389547D02*
X0420484Y0389547D01*
X0421483Y0388548D02*
X0418517Y0388548D01*
X0417519Y0387550D02*
X0422481Y0387550D01*
X0422378Y0386551D02*
X0417622Y0386551D01*
X0418620Y0385553D02*
X0421380Y0385553D01*
X0420381Y0384554D02*
X0419619Y0384554D01*
X0420000Y0383556D02*
X0420000Y0383556D01*
X0420000Y0382557D02*
X0420000Y0382557D01*
X0420000Y0381559D02*
X0420000Y0381559D01*
X0420000Y0380560D02*
X0420000Y0380560D01*
X0419531Y0379562D02*
X0420469Y0379562D01*
X0421468Y0378563D02*
X0418532Y0378563D01*
X0417534Y0377565D02*
X0422466Y0377565D01*
X0427534Y0377565D02*
X0449421Y0377565D01*
X0449421Y0378563D02*
X0428532Y0378563D01*
X0429531Y0379562D02*
X0449421Y0379562D01*
X0449421Y0380560D02*
X0430000Y0380560D01*
X0430000Y0381559D02*
X0449421Y0381559D01*
X0449421Y0382557D02*
X0430000Y0382557D01*
X0430000Y0383556D02*
X0449421Y0383556D01*
X0449421Y0384554D02*
X0429619Y0384554D01*
X0428620Y0385553D02*
X0449421Y0385553D01*
X0449421Y0386551D02*
X0427622Y0386551D01*
X0427519Y0387550D02*
X0449421Y0387550D01*
X0449421Y0388548D02*
X0428517Y0388548D01*
X0429516Y0389547D02*
X0449421Y0389547D01*
X0449421Y0390545D02*
X0447458Y0390545D01*
X0442542Y0390545D02*
X0430000Y0390545D01*
X0430000Y0391544D02*
X0439689Y0391544D01*
X0437960Y0392542D02*
X0430000Y0392542D01*
X0430000Y0393541D02*
X0436875Y0393541D01*
X0435876Y0394539D02*
X0429634Y0394539D01*
X0428635Y0395538D02*
X0435165Y0395538D01*
X0434589Y0396536D02*
X0427637Y0396536D01*
X0449421Y0376566D02*
X0372200Y0376566D01*
X0372200Y0375568D02*
X0449421Y0375568D01*
X0449421Y0374569D02*
X0372200Y0374569D01*
X0372200Y0373571D02*
X0449421Y0373571D01*
X0449421Y0372572D02*
X0372200Y0372572D01*
X0372200Y0371574D02*
X0449421Y0371574D01*
X0437844Y0369577D02*
X0402781Y0369577D01*
X0403779Y0368578D02*
X0436846Y0368578D01*
X0436025Y0367580D02*
X0429495Y0367580D01*
X0428698Y0368377D02*
X0427175Y0368377D01*
X0427175Y0364277D01*
X0431275Y0364277D01*
X0431275Y0365800D01*
X0428698Y0368377D01*
X0427175Y0367580D02*
X0426575Y0367580D01*
X0426575Y0368377D02*
X0425052Y0368377D01*
X0422475Y0365800D01*
X0422475Y0364277D01*
X0426575Y0364277D01*
X0426575Y0363677D01*
X0427175Y0363677D01*
X0427175Y0359577D01*
X0428698Y0359577D01*
X0431275Y0362155D01*
X0431275Y0363677D01*
X0427175Y0363677D01*
X0427175Y0364277D01*
X0426575Y0364277D01*
X0426575Y0368377D01*
X0426575Y0366581D02*
X0427175Y0366581D01*
X0427175Y0365583D02*
X0426575Y0365583D01*
X0426575Y0364584D02*
X0427175Y0364584D01*
X0427175Y0363585D02*
X0426575Y0363585D01*
X0426575Y0363677D02*
X0426575Y0359577D01*
X0425052Y0359577D01*
X0422475Y0362155D01*
X0422475Y0363677D01*
X0426575Y0363677D01*
X0426575Y0362587D02*
X0427175Y0362587D01*
X0427175Y0361588D02*
X0426575Y0361588D01*
X0426575Y0360590D02*
X0427175Y0360590D01*
X0427175Y0359591D02*
X0426575Y0359591D01*
X0425038Y0359591D02*
X0418995Y0359591D01*
X0418780Y0359377D02*
X0421475Y0362072D01*
X0421475Y0365882D01*
X0418780Y0368577D01*
X0414970Y0368577D01*
X0412275Y0365882D01*
X0412275Y0362072D01*
X0412800Y0361547D01*
X0412800Y0355462D01*
X0412186Y0355208D01*
X0410788Y0353810D01*
X0410031Y0351984D01*
X0410031Y0343470D01*
X0410788Y0341644D01*
X0412186Y0340246D01*
X0414012Y0339490D01*
X0415988Y0339490D01*
X0417814Y0340246D01*
X0419212Y0341644D01*
X0419968Y0343470D01*
X0419968Y0351984D01*
X0419212Y0353810D01*
X0417814Y0355208D01*
X0417200Y0355462D01*
X0417200Y0359377D01*
X0418780Y0359377D01*
X0419993Y0360590D02*
X0424040Y0360590D01*
X0423041Y0361588D02*
X0420992Y0361588D01*
X0421475Y0362587D02*
X0422475Y0362587D01*
X0422475Y0363585D02*
X0421475Y0363585D01*
X0421475Y0364584D02*
X0422475Y0364584D01*
X0422475Y0365583D02*
X0421475Y0365583D01*
X0420776Y0366581D02*
X0423256Y0366581D01*
X0424255Y0367580D02*
X0419778Y0367580D01*
X0416875Y0363977D02*
X0415000Y0362102D01*
X0415000Y0347727D01*
X0419968Y0347609D02*
X0420031Y0347609D01*
X0420031Y0346611D02*
X0419968Y0346611D01*
X0419968Y0345612D02*
X0420031Y0345612D01*
X0420031Y0344614D02*
X0419968Y0344614D01*
X0419968Y0343615D02*
X0420031Y0343615D01*
X0420385Y0342617D02*
X0419615Y0342617D01*
X0419186Y0341618D02*
X0420814Y0341618D01*
X0421812Y0340620D02*
X0418188Y0340620D01*
X0416305Y0339621D02*
X0423695Y0339621D01*
X0425000Y0347727D02*
X0433125Y0347727D01*
X0435625Y0350227D01*
X0435625Y0358352D01*
X0432356Y0361588D02*
X0430709Y0361588D01*
X0431275Y0362587D02*
X0433355Y0362587D01*
X0431275Y0363585D02*
X0436386Y0363585D01*
X0436025Y0364584D02*
X0431275Y0364584D01*
X0431275Y0365583D02*
X0436025Y0365583D01*
X0436025Y0366581D02*
X0430494Y0366581D01*
X0429710Y0360590D02*
X0431358Y0360590D01*
X0431025Y0359591D02*
X0428712Y0359591D01*
X0431025Y0358593D02*
X0417200Y0358593D01*
X0417200Y0357594D02*
X0431025Y0357594D01*
X0431025Y0356596D02*
X0417200Y0356596D01*
X0417200Y0355597D02*
X0423127Y0355597D01*
X0421577Y0354599D02*
X0418423Y0354599D01*
X0419299Y0353600D02*
X0420701Y0353600D01*
X0420287Y0352602D02*
X0419713Y0352602D01*
X0419968Y0351603D02*
X0420031Y0351603D01*
X0420031Y0350605D02*
X0419968Y0350605D01*
X0419968Y0349606D02*
X0420031Y0349606D01*
X0420031Y0348608D02*
X0419968Y0348608D01*
X0412800Y0355597D02*
X0408751Y0355597D01*
X0409600Y0356596D02*
X0412800Y0356596D01*
X0412800Y0357594D02*
X0409600Y0357594D01*
X0409600Y0358593D02*
X0412800Y0358593D01*
X0412800Y0359591D02*
X0409600Y0359591D01*
X0409267Y0360590D02*
X0412800Y0360590D01*
X0412758Y0361588D02*
X0408269Y0361588D01*
X0407270Y0362587D02*
X0412275Y0362587D01*
X0412275Y0363585D02*
X0404239Y0363585D01*
X0404600Y0364584D02*
X0412275Y0364584D01*
X0412275Y0365583D02*
X0404600Y0365583D01*
X0404600Y0366581D02*
X0412974Y0366581D01*
X0413972Y0367580D02*
X0404600Y0367580D01*
X0400733Y0360590D02*
X0399267Y0360590D01*
X0399600Y0359591D02*
X0400400Y0359591D01*
X0400400Y0358593D02*
X0399600Y0358593D01*
X0399600Y0357594D02*
X0400400Y0357594D01*
X0400400Y0356596D02*
X0399600Y0356596D01*
X0398751Y0355597D02*
X0401249Y0355597D01*
X0402248Y0354599D02*
X0397752Y0354599D01*
X0397200Y0353600D02*
X0410701Y0353600D01*
X0410287Y0352602D02*
X0397200Y0352602D01*
X0397200Y0351603D02*
X0410031Y0351603D01*
X0410031Y0350605D02*
X0397200Y0350605D01*
X0397200Y0349606D02*
X0410031Y0349606D01*
X0410031Y0348608D02*
X0397200Y0348608D01*
X0397200Y0347609D02*
X0410031Y0347609D01*
X0410031Y0346611D02*
X0397200Y0346611D01*
X0397200Y0345612D02*
X0410031Y0345612D01*
X0410031Y0344614D02*
X0397200Y0344614D01*
X0397200Y0343615D02*
X0410031Y0343615D01*
X0410385Y0342617D02*
X0397200Y0342617D01*
X0397200Y0341618D02*
X0410814Y0341618D01*
X0411812Y0340620D02*
X0397200Y0340620D01*
X0396255Y0339621D02*
X0413695Y0339621D01*
X0421274Y0325642D02*
X0422576Y0325642D01*
X0423950Y0320650D02*
X0424115Y0320650D01*
X0423570Y0319651D02*
X0424691Y0319651D01*
X0425513Y0318652D02*
X0423020Y0318652D01*
X0422022Y0317654D02*
X0426511Y0317654D01*
X0439232Y0315657D02*
X0449421Y0315657D01*
X0449421Y0316655D02*
X0440962Y0316655D01*
X0442239Y0317654D02*
X0449421Y0317654D01*
X0449421Y0318652D02*
X0443237Y0318652D01*
X0444059Y0319651D02*
X0449421Y0319651D01*
X0449421Y0320650D02*
X0444635Y0320650D01*
X0445211Y0321648D02*
X0449421Y0321648D01*
X0449421Y0322647D02*
X0445564Y0322647D01*
X0445832Y0323645D02*
X0449421Y0323645D01*
X0449421Y0324644D02*
X0446099Y0324644D01*
X0446174Y0325642D02*
X0449421Y0325642D01*
X0449421Y0326641D02*
X0446174Y0326641D01*
X0446174Y0327639D02*
X0449421Y0327639D01*
X0449421Y0328638D02*
X0446012Y0328638D01*
X0445744Y0329636D02*
X0449421Y0329636D01*
X0449421Y0330635D02*
X0445476Y0330635D01*
X0445023Y0331633D02*
X0449421Y0331633D01*
X0449421Y0332632D02*
X0444446Y0332632D01*
X0443870Y0333630D02*
X0449421Y0333630D01*
X0449421Y0334629D02*
X0442910Y0334629D01*
X0441911Y0335627D02*
X0449421Y0335627D01*
X0449421Y0336626D02*
X0440395Y0336626D01*
X0438362Y0337624D02*
X0449421Y0337624D01*
X0432892Y0350605D02*
X0429968Y0350605D01*
X0429968Y0351603D02*
X0433425Y0351603D01*
X0433425Y0352602D02*
X0429713Y0352602D01*
X0429299Y0353600D02*
X0433425Y0353600D01*
X0432873Y0354599D02*
X0428423Y0354599D01*
X0426873Y0355597D02*
X0431874Y0355597D01*
X0448377Y0354599D02*
X0449421Y0354599D01*
X0449421Y0355597D02*
X0449376Y0355597D01*
X0411577Y0354599D02*
X0407752Y0354599D01*
X0395000Y0358352D02*
X0395000Y0341477D01*
X0392500Y0338977D01*
X0386875Y0338977D01*
X0381906Y0338623D02*
X0381843Y0338623D01*
X0381843Y0339621D02*
X0381906Y0339621D01*
X0381906Y0340620D02*
X0381843Y0340620D01*
X0381843Y0341618D02*
X0381906Y0341618D01*
X0381906Y0342617D02*
X0381843Y0342617D01*
X0381686Y0343615D02*
X0382064Y0343615D01*
X0382478Y0344614D02*
X0381272Y0344614D01*
X0380535Y0345612D02*
X0383215Y0345612D01*
X0384430Y0346611D02*
X0379320Y0346611D01*
X0379075Y0347609D02*
X0392800Y0347609D01*
X0392800Y0346611D02*
X0389320Y0346611D01*
X0390535Y0345612D02*
X0392800Y0345612D01*
X0392800Y0344614D02*
X0391272Y0344614D01*
X0391686Y0343615D02*
X0392800Y0343615D01*
X0392800Y0342617D02*
X0391843Y0342617D01*
X0391843Y0341618D02*
X0392030Y0341618D01*
X0392800Y0348608D02*
X0379075Y0348608D01*
X0379075Y0349606D02*
X0392800Y0349606D01*
X0392800Y0350605D02*
X0379075Y0350605D01*
X0379075Y0351603D02*
X0392800Y0351603D01*
X0392800Y0352602D02*
X0379075Y0352602D01*
X0379075Y0353600D02*
X0392800Y0353600D01*
X0392248Y0354599D02*
X0379075Y0354599D01*
X0379075Y0355597D02*
X0391249Y0355597D01*
X0390400Y0356596D02*
X0379075Y0356596D01*
X0379075Y0357594D02*
X0390400Y0357594D01*
X0390400Y0358593D02*
X0379075Y0358593D01*
X0379620Y0359591D02*
X0385663Y0359591D01*
X0385677Y0359577D02*
X0387200Y0359577D01*
X0387200Y0363677D01*
X0387800Y0363677D01*
X0387800Y0359577D01*
X0389323Y0359577D01*
X0391900Y0362155D01*
X0391900Y0363677D01*
X0387800Y0363677D01*
X0387800Y0364277D01*
X0391900Y0364277D01*
X0391900Y0365800D01*
X0389323Y0368377D01*
X0387800Y0368377D01*
X0387800Y0364277D01*
X0387200Y0364277D01*
X0387200Y0363677D01*
X0383100Y0363677D01*
X0383100Y0362155D01*
X0385677Y0359577D01*
X0384665Y0360590D02*
X0380618Y0360590D01*
X0381617Y0361588D02*
X0383666Y0361588D01*
X0383100Y0362587D02*
X0382100Y0362587D01*
X0382100Y0363585D02*
X0383100Y0363585D01*
X0383100Y0364277D02*
X0387200Y0364277D01*
X0387200Y0368377D01*
X0385677Y0368377D01*
X0383100Y0365800D01*
X0383100Y0364277D01*
X0383100Y0364584D02*
X0382100Y0364584D01*
X0382100Y0365583D02*
X0383100Y0365583D01*
X0383881Y0366581D02*
X0381401Y0366581D01*
X0380403Y0367580D02*
X0384880Y0367580D01*
X0387200Y0367580D02*
X0387800Y0367580D01*
X0387800Y0366581D02*
X0387200Y0366581D01*
X0387200Y0365583D02*
X0387800Y0365583D01*
X0387800Y0364584D02*
X0387200Y0364584D01*
X0387200Y0363585D02*
X0387800Y0363585D01*
X0387800Y0362587D02*
X0387200Y0362587D01*
X0387200Y0361588D02*
X0387800Y0361588D01*
X0387800Y0360590D02*
X0387200Y0360590D01*
X0387200Y0359591D02*
X0387800Y0359591D01*
X0389337Y0359591D02*
X0390400Y0359591D01*
X0390335Y0360590D02*
X0390733Y0360590D01*
X0391334Y0361588D02*
X0391731Y0361588D01*
X0391900Y0362587D02*
X0392730Y0362587D01*
X0391900Y0363585D02*
X0395761Y0363585D01*
X0395400Y0364584D02*
X0391900Y0364584D01*
X0391900Y0365583D02*
X0395400Y0365583D01*
X0395400Y0366581D02*
X0391119Y0366581D01*
X0390120Y0367580D02*
X0395400Y0367580D01*
X0377500Y0363977D02*
X0376875Y0363352D01*
X0376875Y0338977D01*
X0381843Y0337624D02*
X0381906Y0337624D01*
X0381906Y0336626D02*
X0381843Y0336626D01*
X0381843Y0335627D02*
X0381906Y0335627D01*
X0381944Y0334629D02*
X0381806Y0334629D01*
X0381392Y0333630D02*
X0382358Y0333630D01*
X0382925Y0332632D02*
X0380825Y0332632D01*
X0379826Y0331633D02*
X0383924Y0331633D01*
X0373924Y0331633D02*
X0372200Y0331633D01*
X0372200Y0332632D02*
X0372925Y0332632D01*
X0372358Y0333630D02*
X0372200Y0333630D01*
X0367800Y0333630D02*
X0363102Y0333630D01*
X0363177Y0334577D02*
X0364700Y0334577D01*
X0364700Y0338677D01*
X0360600Y0338677D01*
X0360600Y0337155D01*
X0363177Y0334577D01*
X0363126Y0334629D02*
X0362104Y0334629D01*
X0362127Y0335627D02*
X0346011Y0335627D01*
X0346845Y0335452D02*
X0344150Y0332757D01*
X0344150Y0328947D01*
X0346845Y0326252D01*
X0350655Y0326252D01*
X0353350Y0328947D01*
X0353350Y0332757D01*
X0350655Y0335452D01*
X0346845Y0335452D01*
X0346021Y0334629D02*
X0345013Y0334629D01*
X0345023Y0333630D02*
X0344014Y0333630D01*
X0344150Y0332632D02*
X0343016Y0332632D01*
X0342725Y0331633D02*
X0344150Y0331633D01*
X0344150Y0330635D02*
X0342725Y0330635D01*
X0342725Y0329636D02*
X0344150Y0329636D01*
X0344459Y0328638D02*
X0342416Y0328638D01*
X0341417Y0327639D02*
X0345458Y0327639D01*
X0346456Y0326641D02*
X0340419Y0326641D01*
X0339789Y0335627D02*
X0338155Y0335627D01*
X0339154Y0336626D02*
X0340787Y0336626D01*
X0341786Y0337624D02*
X0339600Y0337624D01*
X0339600Y0338623D02*
X0342784Y0338623D01*
X0342800Y0339621D02*
X0339600Y0339621D01*
X0339600Y0340620D02*
X0342800Y0340620D01*
X0342800Y0341618D02*
X0338864Y0341618D01*
X0337866Y0342617D02*
X0342800Y0342617D01*
X0342800Y0343615D02*
X0332749Y0343615D01*
X0332200Y0343066D02*
X0332200Y0343066D01*
X0332134Y0342617D02*
X0331751Y0342617D01*
X0331136Y0341618D02*
X0301575Y0341618D01*
X0301575Y0340620D02*
X0322906Y0340620D01*
X0321908Y0339621D02*
X0301255Y0339621D01*
X0300257Y0338623D02*
X0320909Y0338623D01*
X0319911Y0337624D02*
X0299258Y0337624D01*
X0298260Y0336626D02*
X0319050Y0336626D01*
X0319050Y0335627D02*
X0297261Y0335627D01*
X0291227Y0340620D02*
X0285648Y0340620D01*
X0286647Y0341618D02*
X0290228Y0341618D01*
X0289230Y0342617D02*
X0287645Y0342617D01*
X0287725Y0343615D02*
X0289150Y0343615D01*
X0301575Y0343615D02*
X0306639Y0343615D01*
X0306927Y0343327D02*
X0304350Y0345905D01*
X0304350Y0347427D01*
X0308450Y0347427D01*
X0309050Y0347427D01*
X0309050Y0343327D01*
X0310573Y0343327D01*
X0313150Y0345905D01*
X0313150Y0347427D01*
X0309050Y0347427D01*
X0309050Y0348027D01*
X0313150Y0348027D01*
X0313150Y0349550D01*
X0310573Y0352127D01*
X0309050Y0352127D01*
X0309050Y0348027D01*
X0308450Y0348027D01*
X0308450Y0347427D01*
X0308450Y0343327D01*
X0306927Y0343327D01*
X0308450Y0343615D02*
X0309050Y0343615D01*
X0309050Y0344614D02*
X0308450Y0344614D01*
X0308450Y0345612D02*
X0309050Y0345612D01*
X0309050Y0346611D02*
X0308450Y0346611D01*
X0308450Y0347609D02*
X0301575Y0347609D01*
X0301575Y0346611D02*
X0304350Y0346611D01*
X0304642Y0345612D02*
X0301575Y0345612D01*
X0301575Y0344614D02*
X0305641Y0344614D01*
X0304350Y0348027D02*
X0308450Y0348027D01*
X0308450Y0352127D01*
X0306927Y0352127D01*
X0304350Y0349550D01*
X0304350Y0348027D01*
X0304350Y0348608D02*
X0301575Y0348608D01*
X0301575Y0349606D02*
X0304407Y0349606D01*
X0305405Y0350605D02*
X0301575Y0350605D01*
X0301575Y0351603D02*
X0306404Y0351603D01*
X0308450Y0351603D02*
X0309050Y0351603D01*
X0309050Y0350605D02*
X0308450Y0350605D01*
X0308450Y0349606D02*
X0309050Y0349606D01*
X0309050Y0348608D02*
X0308450Y0348608D01*
X0309050Y0347609D02*
X0313997Y0347609D01*
X0313972Y0348608D02*
X0313150Y0348608D01*
X0313093Y0349606D02*
X0313972Y0349606D01*
X0313972Y0350605D02*
X0312095Y0350605D01*
X0311096Y0351603D02*
X0313972Y0351603D01*
X0314182Y0352602D02*
X0301575Y0352602D01*
X0301575Y0353600D02*
X0319050Y0353600D01*
X0316161Y0352602D02*
X0316161Y0352602D01*
X0316161Y0351603D02*
X0316161Y0351603D01*
X0316161Y0350605D02*
X0316161Y0350605D01*
X0316161Y0349606D02*
X0316161Y0349606D01*
X0316161Y0348608D02*
X0316161Y0348608D01*
X0316161Y0347609D02*
X0316161Y0347609D01*
X0316161Y0346611D02*
X0316161Y0346611D01*
X0314704Y0346611D02*
X0313150Y0346611D01*
X0312858Y0345612D02*
X0319080Y0345612D01*
X0319080Y0344614D02*
X0311859Y0344614D01*
X0310861Y0343615D02*
X0319751Y0343615D01*
X0320749Y0342617D02*
X0301575Y0342617D01*
X0301575Y0354599D02*
X0314642Y0354599D01*
X0313643Y0355597D02*
X0301575Y0355597D01*
X0301575Y0356596D02*
X0313167Y0356596D01*
X0312825Y0357594D02*
X0301575Y0357594D01*
X0302102Y0358593D02*
X0312825Y0358593D01*
X0312953Y0359591D02*
X0303101Y0359591D01*
X0304099Y0360590D02*
X0313367Y0360590D01*
X0317500Y0358352D02*
X0318750Y0358352D01*
X0321250Y0355852D01*
X0321250Y0349897D01*
X0321280Y0349868D01*
X0321280Y0345198D01*
X0322500Y0343977D01*
X0330000Y0343977D01*
X0335000Y0348977D01*
X0338141Y0345612D02*
X0342800Y0345612D01*
X0342800Y0344614D02*
X0337142Y0344614D01*
X0339139Y0346611D02*
X0342800Y0346611D01*
X0342800Y0347609D02*
X0339600Y0347609D01*
X0339600Y0348608D02*
X0342800Y0348608D01*
X0342800Y0349606D02*
X0339600Y0349606D01*
X0339600Y0350605D02*
X0342800Y0350605D01*
X0342800Y0351603D02*
X0338879Y0351603D01*
X0337881Y0352602D02*
X0342800Y0352602D01*
X0342800Y0353600D02*
X0325950Y0353600D01*
X0326166Y0352602D02*
X0332119Y0352602D01*
X0331121Y0351603D02*
X0326228Y0351603D01*
X0326228Y0350605D02*
X0330400Y0350605D01*
X0330400Y0349606D02*
X0326228Y0349606D01*
X0326228Y0348608D02*
X0330400Y0348608D01*
X0330400Y0347609D02*
X0326228Y0347609D01*
X0325643Y0346611D02*
X0329522Y0346611D01*
X0323839Y0349868D02*
X0323750Y0349956D01*
X0323750Y0354602D01*
X0326250Y0357102D01*
X0326250Y0358352D01*
X0333750Y0358352D01*
X0335000Y0359602D01*
X0339600Y0359591D02*
X0342800Y0359591D01*
X0342800Y0358593D02*
X0339600Y0358593D01*
X0339498Y0357594D02*
X0342800Y0357594D01*
X0342800Y0356596D02*
X0338499Y0356596D01*
X0337501Y0355597D02*
X0342800Y0355597D01*
X0342800Y0354599D02*
X0329108Y0354599D01*
X0330106Y0355597D02*
X0332499Y0355597D01*
X0339600Y0360590D02*
X0342800Y0360590D01*
X0342800Y0361588D02*
X0339519Y0361588D01*
X0338520Y0362587D02*
X0342800Y0362587D01*
X0343372Y0363585D02*
X0337522Y0363585D01*
X0335342Y0365583D02*
X0345369Y0365583D01*
X0346368Y0366581D02*
X0336340Y0366581D01*
X0337339Y0367580D02*
X0347366Y0367580D01*
X0348365Y0368578D02*
X0338337Y0368578D01*
X0339336Y0369577D02*
X0349363Y0369577D01*
X0350362Y0370575D02*
X0346584Y0370575D01*
X0347583Y0371574D02*
X0351360Y0371574D01*
X0352359Y0372572D02*
X0348581Y0372572D01*
X0349580Y0373571D02*
X0353357Y0373571D01*
X0354356Y0374569D02*
X0350578Y0374569D01*
X0351577Y0375568D02*
X0355354Y0375568D01*
X0356353Y0376566D02*
X0352575Y0376566D01*
X0350000Y0380560D02*
X0350000Y0380560D01*
X0350000Y0381559D02*
X0350000Y0381559D01*
X0350000Y0382557D02*
X0350000Y0382557D01*
X0350000Y0383556D02*
X0350000Y0383556D01*
X0349619Y0384554D02*
X0350381Y0384554D01*
X0345000Y0382102D02*
X0343125Y0382102D01*
X0340484Y0389547D02*
X0339516Y0389547D01*
X0340000Y0390545D02*
X0340000Y0390545D01*
X0340000Y0391544D02*
X0340000Y0391544D01*
X0340000Y0392542D02*
X0340000Y0392542D01*
X0340000Y0393541D02*
X0340000Y0393541D01*
X0339634Y0394539D02*
X0340366Y0394539D01*
X0341365Y0395538D02*
X0338635Y0395538D01*
X0337637Y0396536D02*
X0342363Y0396536D01*
X0357637Y0396536D02*
X0362363Y0396536D01*
X0361365Y0395538D02*
X0358635Y0395538D01*
X0359634Y0394539D02*
X0360366Y0394539D01*
X0360000Y0394173D02*
X0360000Y0390213D01*
X0360000Y0390213D01*
X0360000Y0394173D01*
X0360000Y0393541D02*
X0360000Y0393541D01*
X0360000Y0392542D02*
X0360000Y0392542D01*
X0360000Y0391544D02*
X0360000Y0391544D01*
X0360000Y0390545D02*
X0360000Y0390545D01*
X0372200Y0387550D02*
X0372481Y0387550D01*
X0372378Y0386551D02*
X0372200Y0386551D01*
X0372200Y0377565D02*
X0372466Y0377565D01*
X0367800Y0377565D02*
X0367534Y0377565D01*
X0367800Y0376566D02*
X0362200Y0376566D01*
X0362200Y0377565D02*
X0362466Y0377565D01*
X0361577Y0375568D02*
X0367800Y0375568D01*
X0367800Y0374569D02*
X0360578Y0374569D01*
X0359580Y0373571D02*
X0367800Y0373571D01*
X0367800Y0372572D02*
X0358581Y0372572D01*
X0357583Y0371574D02*
X0367800Y0371574D01*
X0367800Y0370575D02*
X0356584Y0370575D01*
X0355586Y0369577D02*
X0367800Y0369577D01*
X0367800Y0368578D02*
X0354587Y0368578D01*
X0353589Y0367580D02*
X0367800Y0367580D01*
X0367800Y0366581D02*
X0352590Y0366581D01*
X0351592Y0365583D02*
X0367800Y0365583D01*
X0367800Y0364584D02*
X0350593Y0364584D01*
X0344371Y0364584D02*
X0334343Y0364584D01*
X0347200Y0341618D02*
X0361419Y0341618D01*
X0360600Y0340620D02*
X0347200Y0340620D01*
X0347200Y0339621D02*
X0360600Y0339621D01*
X0360600Y0338623D02*
X0347200Y0338623D01*
X0347200Y0337624D02*
X0360600Y0337624D01*
X0361129Y0336626D02*
X0347010Y0336626D01*
X0351479Y0334629D02*
X0356646Y0334629D01*
X0357470Y0335452D02*
X0354775Y0332757D01*
X0354775Y0328947D01*
X0357470Y0326252D01*
X0361280Y0326252D01*
X0363975Y0328947D01*
X0363975Y0332757D01*
X0361280Y0335452D01*
X0357470Y0335452D01*
X0355648Y0333630D02*
X0352477Y0333630D01*
X0353350Y0332632D02*
X0354775Y0332632D01*
X0354775Y0331633D02*
X0353350Y0331633D01*
X0353350Y0330635D02*
X0354775Y0330635D01*
X0354775Y0329636D02*
X0353350Y0329636D01*
X0353041Y0328638D02*
X0355084Y0328638D01*
X0356083Y0327639D02*
X0352042Y0327639D01*
X0351044Y0326641D02*
X0357081Y0326641D01*
X0361669Y0326641D02*
X0367800Y0326641D01*
X0367800Y0327639D02*
X0362667Y0327639D01*
X0363666Y0328638D02*
X0367800Y0328638D01*
X0367800Y0329636D02*
X0363975Y0329636D01*
X0363975Y0330635D02*
X0367800Y0330635D01*
X0367800Y0331633D02*
X0363975Y0331633D01*
X0363975Y0332632D02*
X0367800Y0332632D01*
X0367800Y0334629D02*
X0366874Y0334629D01*
X0365300Y0334629D02*
X0364700Y0334629D01*
X0364700Y0335627D02*
X0365300Y0335627D01*
X0365300Y0336626D02*
X0364700Y0336626D01*
X0364700Y0337624D02*
X0365300Y0337624D01*
X0365300Y0338623D02*
X0364700Y0338623D01*
X0364700Y0339621D02*
X0365300Y0339621D01*
X0365300Y0340620D02*
X0364700Y0340620D01*
X0364700Y0341618D02*
X0365300Y0341618D01*
X0365300Y0342617D02*
X0364700Y0342617D01*
X0364700Y0344614D02*
X0365300Y0344614D01*
X0365300Y0345612D02*
X0364700Y0345612D01*
X0364700Y0346611D02*
X0365300Y0346611D01*
X0365300Y0347609D02*
X0364700Y0347609D01*
X0364700Y0348608D02*
X0365300Y0348608D01*
X0365300Y0349606D02*
X0364700Y0349606D01*
X0364700Y0350605D02*
X0365300Y0350605D01*
X0365300Y0351603D02*
X0364700Y0351603D01*
X0364700Y0352602D02*
X0365300Y0352602D01*
X0367218Y0355597D02*
X0367800Y0355597D01*
X0367800Y0363585D02*
X0367239Y0363585D01*
X0367583Y0342617D02*
X0367800Y0342617D01*
X0367800Y0325642D02*
X0326228Y0325642D01*
X0326228Y0324644D02*
X0367800Y0324644D01*
X0367800Y0323645D02*
X0326039Y0323645D01*
X0326039Y0322647D02*
X0367800Y0322647D01*
X0367800Y0321648D02*
X0325157Y0321648D01*
X0324159Y0320650D02*
X0367800Y0320650D01*
X0335000Y0338977D02*
X0324375Y0338977D01*
X0280670Y0318652D02*
X0274955Y0318652D01*
X0275953Y0317654D02*
X0279672Y0317654D01*
X0278673Y0316655D02*
X0276952Y0316655D01*
X0277100Y0315657D02*
X0278525Y0315657D01*
X0271658Y0308667D02*
X0270671Y0308667D01*
X0271549Y0307669D02*
X0271658Y0307669D01*
X0270000Y0305227D02*
X0267500Y0305227D01*
X0269921Y0302806D01*
X0269921Y0296866D01*
X0267953Y0296866D02*
X0267953Y0304774D01*
X0267500Y0305227D01*
X0265000Y0305227D01*
X0264016Y0304243D01*
X0264016Y0296866D01*
X0265984Y0296866D02*
X0265984Y0292368D01*
X0267500Y0290852D01*
X0293125Y0290852D01*
X0296875Y0287102D01*
X0296575Y0286700D02*
X0297175Y0286700D01*
X0297175Y0285702D02*
X0296575Y0285702D01*
X0296575Y0284703D02*
X0297175Y0284703D01*
X0297175Y0283705D02*
X0296575Y0283705D01*
X0296575Y0282706D02*
X0297175Y0282706D01*
X0298702Y0282706D02*
X0306849Y0282706D01*
X0307535Y0283705D02*
X0299700Y0283705D01*
X0300699Y0284703D02*
X0306486Y0284703D01*
X0305910Y0285702D02*
X0301275Y0285702D01*
X0301275Y0286700D02*
X0305648Y0286700D01*
X0305600Y0287699D02*
X0301275Y0287699D01*
X0301275Y0288697D02*
X0305811Y0288697D01*
X0306264Y0289696D02*
X0300504Y0289696D01*
X0299505Y0290694D02*
X0307120Y0290694D01*
X0309700Y0290694D02*
X0310300Y0290694D01*
X0310300Y0289696D02*
X0309700Y0289696D01*
X0309700Y0288697D02*
X0310300Y0288697D01*
X0310300Y0287699D02*
X0309700Y0287699D01*
X0297175Y0287699D02*
X0296575Y0287699D01*
X0296575Y0288697D02*
X0297175Y0288697D01*
X0297175Y0289696D02*
X0296575Y0289696D01*
X0296575Y0290694D02*
X0297175Y0290694D01*
X0294245Y0290694D02*
X0256373Y0290694D01*
X0254173Y0290650D02*
X0253750Y0290227D01*
X0250625Y0290227D01*
X0246875Y0286477D01*
X0205625Y0286477D01*
X0202500Y0289602D01*
X0202500Y0307102D01*
X0205578Y0303675D02*
X0209422Y0303675D01*
X0210300Y0302676D02*
X0204700Y0302676D01*
X0204700Y0301678D02*
X0210300Y0301678D01*
X0210300Y0300679D02*
X0204700Y0300679D01*
X0204700Y0299681D02*
X0210300Y0299681D01*
X0210300Y0298682D02*
X0204700Y0298682D01*
X0204700Y0297684D02*
X0210300Y0297684D01*
X0210300Y0296685D02*
X0204700Y0296685D01*
X0204700Y0295687D02*
X0210300Y0295687D01*
X0210300Y0294688D02*
X0204700Y0294688D01*
X0204700Y0293690D02*
X0210300Y0293690D01*
X0210300Y0292691D02*
X0204700Y0292691D01*
X0204700Y0291693D02*
X0210300Y0291693D01*
X0210797Y0290694D02*
X0204700Y0290694D01*
X0205518Y0289696D02*
X0211795Y0289696D01*
X0212794Y0288697D02*
X0206516Y0288697D01*
X0203289Y0285702D02*
X0195000Y0285702D01*
X0195000Y0286700D02*
X0202291Y0286700D01*
X0201292Y0287699D02*
X0195000Y0287699D01*
X0195000Y0288697D02*
X0200300Y0288697D01*
X0200300Y0289696D02*
X0195000Y0289696D01*
X0195000Y0290694D02*
X0200300Y0290694D01*
X0200300Y0291693D02*
X0195000Y0291693D01*
X0195000Y0292691D02*
X0200300Y0292691D01*
X0200300Y0293690D02*
X0195000Y0293690D01*
X0195000Y0294688D02*
X0200300Y0294688D01*
X0200300Y0295687D02*
X0195000Y0295687D01*
X0195000Y0296685D02*
X0200300Y0296685D01*
X0200300Y0297684D02*
X0195000Y0297684D01*
X0195000Y0298682D02*
X0200300Y0298682D01*
X0200300Y0299681D02*
X0195000Y0299681D01*
X0195000Y0300679D02*
X0200300Y0300679D01*
X0200300Y0301678D02*
X0195000Y0301678D01*
X0195000Y0302676D02*
X0200300Y0302676D01*
X0199422Y0303675D02*
X0195000Y0303675D01*
X0195000Y0304673D02*
X0198423Y0304673D01*
X0197900Y0305672D02*
X0195000Y0305672D01*
X0195000Y0306670D02*
X0197900Y0306670D01*
X0197900Y0307669D02*
X0195000Y0307669D01*
X0195000Y0308667D02*
X0197900Y0308667D01*
X0198558Y0309666D02*
X0195000Y0309666D01*
X0195000Y0310664D02*
X0199557Y0310664D01*
X0200555Y0311663D02*
X0195000Y0311663D01*
X0195000Y0312661D02*
X0197935Y0312661D01*
X0196937Y0313660D02*
X0195000Y0313660D01*
X0195000Y0314658D02*
X0195938Y0314658D01*
X0195400Y0315657D02*
X0195000Y0315657D01*
X0195000Y0316655D02*
X0195400Y0316655D01*
X0195400Y0317654D02*
X0195000Y0317654D01*
X0195000Y0318652D02*
X0195400Y0318652D01*
X0195000Y0319651D02*
X0196044Y0319651D01*
X0196700Y0320650D02*
X0195000Y0320650D01*
X0195000Y0321648D02*
X0195787Y0321648D01*
X0200128Y0326641D02*
X0215600Y0326641D01*
X0215600Y0326802D02*
X0215600Y0325280D01*
X0218177Y0322702D01*
X0219700Y0322702D01*
X0219700Y0326802D01*
X0220300Y0326802D01*
X0220300Y0322702D01*
X0221823Y0322702D01*
X0224400Y0325280D01*
X0224400Y0326802D01*
X0220300Y0326802D01*
X0220300Y0327402D01*
X0224400Y0327402D01*
X0224400Y0328925D01*
X0221823Y0331502D01*
X0220300Y0331502D01*
X0220300Y0327402D01*
X0219700Y0327402D01*
X0219700Y0326802D01*
X0215600Y0326802D01*
X0215600Y0327402D02*
X0219700Y0327402D01*
X0219700Y0331502D01*
X0218177Y0331502D01*
X0215600Y0328925D01*
X0215600Y0327402D01*
X0215600Y0327639D02*
X0199130Y0327639D01*
X0198131Y0328638D02*
X0215600Y0328638D01*
X0216312Y0329636D02*
X0197133Y0329636D01*
X0196134Y0330635D02*
X0217310Y0330635D01*
X0216823Y0332702D02*
X0215300Y0332702D01*
X0215300Y0336802D01*
X0214700Y0336802D01*
X0214700Y0332702D01*
X0213177Y0332702D01*
X0210600Y0335280D01*
X0210600Y0336802D01*
X0214700Y0336802D01*
X0214700Y0337402D01*
X0210600Y0337402D01*
X0210600Y0338925D01*
X0213177Y0341502D01*
X0214700Y0341502D01*
X0214700Y0337402D01*
X0215300Y0337402D01*
X0219400Y0337402D01*
X0219400Y0338925D01*
X0216823Y0341502D01*
X0215300Y0341502D01*
X0215300Y0337402D01*
X0215300Y0336802D01*
X0219400Y0336802D01*
X0219400Y0335280D01*
X0216823Y0332702D01*
X0217751Y0333630D02*
X0241967Y0333630D01*
X0242800Y0332632D02*
X0195000Y0332632D01*
X0195000Y0333630D02*
X0212249Y0333630D01*
X0211251Y0334629D02*
X0195000Y0334629D01*
X0195000Y0335627D02*
X0210600Y0335627D01*
X0210600Y0336626D02*
X0195000Y0336626D01*
X0195000Y0337624D02*
X0210600Y0337624D01*
X0210600Y0338623D02*
X0195000Y0338623D01*
X0195000Y0339621D02*
X0198033Y0339621D01*
X0196594Y0340620D02*
X0195000Y0340620D01*
X0195000Y0341618D02*
X0195792Y0341618D01*
X0195378Y0342617D02*
X0195000Y0342617D01*
X0195000Y0343615D02*
X0195200Y0343615D01*
X0195200Y0344614D02*
X0195000Y0344614D01*
X0195000Y0345612D02*
X0195200Y0345612D01*
X0195200Y0346611D02*
X0195000Y0346611D01*
X0195000Y0347609D02*
X0195200Y0347609D01*
X0195200Y0348608D02*
X0195000Y0348608D01*
X0195000Y0349606D02*
X0195200Y0349606D01*
X0195200Y0350605D02*
X0195000Y0350605D01*
X0195000Y0351603D02*
X0195385Y0351603D01*
X0195000Y0352602D02*
X0195799Y0352602D01*
X0195000Y0353600D02*
X0196610Y0353600D01*
X0196913Y0354599D02*
X0198072Y0354599D01*
X0198384Y0355597D02*
X0201700Y0355597D01*
X0201700Y0356596D02*
X0199199Y0356596D01*
X0199612Y0357594D02*
X0201700Y0357594D01*
X0201700Y0358593D02*
X0199800Y0358593D01*
X0199800Y0359591D02*
X0201700Y0359591D01*
X0208300Y0353600D02*
X0217996Y0353600D01*
X0219844Y0352602D02*
X0208300Y0352602D01*
X0204208Y0341618D02*
X0243011Y0341618D01*
X0242012Y0340620D02*
X0217705Y0340620D01*
X0218703Y0339621D02*
X0241014Y0339621D01*
X0240400Y0338623D02*
X0219400Y0338623D01*
X0219400Y0337624D02*
X0240400Y0337624D01*
X0240400Y0336626D02*
X0219400Y0336626D01*
X0219400Y0335627D02*
X0240400Y0335627D01*
X0240968Y0334629D02*
X0218749Y0334629D01*
X0215300Y0334629D02*
X0214700Y0334629D01*
X0214700Y0335627D02*
X0215300Y0335627D01*
X0215300Y0336626D02*
X0214700Y0336626D01*
X0214700Y0337624D02*
X0215300Y0337624D01*
X0215300Y0338623D02*
X0214700Y0338623D01*
X0214700Y0339621D02*
X0215300Y0339621D01*
X0215300Y0340620D02*
X0214700Y0340620D01*
X0212295Y0340620D02*
X0203406Y0340620D01*
X0201967Y0339621D02*
X0211297Y0339621D01*
X0214700Y0333630D02*
X0215300Y0333630D01*
X0219700Y0330635D02*
X0220300Y0330635D01*
X0220300Y0329636D02*
X0219700Y0329636D01*
X0219700Y0328638D02*
X0220300Y0328638D01*
X0220300Y0327639D02*
X0219700Y0327639D01*
X0219700Y0326641D02*
X0220300Y0326641D01*
X0220300Y0325642D02*
X0219700Y0325642D01*
X0219700Y0324644D02*
X0220300Y0324644D01*
X0220300Y0323645D02*
X0219700Y0323645D01*
X0217234Y0323645D02*
X0202933Y0323645D01*
X0203300Y0322647D02*
X0242800Y0322647D01*
X0242800Y0323645D02*
X0222766Y0323645D01*
X0223764Y0324644D02*
X0242800Y0324644D01*
X0242800Y0325642D02*
X0224400Y0325642D01*
X0224400Y0326641D02*
X0242800Y0326641D01*
X0242800Y0327639D02*
X0224400Y0327639D01*
X0224400Y0328638D02*
X0242800Y0328638D01*
X0242800Y0329636D02*
X0223688Y0329636D01*
X0222690Y0330635D02*
X0242800Y0330635D01*
X0242800Y0331633D02*
X0195136Y0331633D01*
X0201127Y0325642D02*
X0215600Y0325642D01*
X0216236Y0324644D02*
X0202125Y0324644D01*
X0203300Y0321648D02*
X0242800Y0321648D01*
X0242800Y0320650D02*
X0241708Y0320650D01*
X0242706Y0319651D02*
X0242800Y0319651D01*
X0239375Y0316477D02*
X0239375Y0303352D01*
X0242362Y0300365D01*
X0242362Y0296866D01*
X0244331Y0296866D02*
X0244331Y0293308D01*
X0242500Y0291477D01*
X0225625Y0291477D01*
X0223125Y0293977D01*
X0223125Y0307102D01*
X0226203Y0303675D02*
X0237175Y0303675D01*
X0237175Y0304673D02*
X0227202Y0304673D01*
X0227725Y0305672D02*
X0237175Y0305672D01*
X0237175Y0306670D02*
X0227725Y0306670D01*
X0227725Y0307669D02*
X0237175Y0307669D01*
X0237175Y0308667D02*
X0227725Y0308667D01*
X0227067Y0309666D02*
X0237175Y0309666D01*
X0237175Y0310664D02*
X0226068Y0310664D01*
X0225070Y0311663D02*
X0237175Y0311663D01*
X0236685Y0312661D02*
X0212065Y0312661D01*
X0211280Y0311877D02*
X0213975Y0314572D01*
X0213975Y0318382D01*
X0211280Y0321077D01*
X0207470Y0321077D01*
X0204775Y0318382D01*
X0204775Y0314572D01*
X0207470Y0311877D01*
X0211280Y0311877D01*
X0210555Y0311663D02*
X0204445Y0311663D01*
X0205443Y0310664D02*
X0209557Y0310664D01*
X0208558Y0309666D02*
X0206442Y0309666D01*
X0207100Y0308667D02*
X0207900Y0308667D01*
X0207900Y0307669D02*
X0207100Y0307669D01*
X0207100Y0306670D02*
X0207900Y0306670D01*
X0207900Y0305672D02*
X0207100Y0305672D01*
X0206577Y0304673D02*
X0208423Y0304673D01*
X0212500Y0307102D02*
X0212500Y0292102D01*
X0215625Y0288977D01*
X0246250Y0288977D01*
X0250000Y0292727D01*
X0251875Y0292727D01*
X0252205Y0293057D01*
X0252205Y0296866D01*
X0254173Y0296866D02*
X0254173Y0290650D01*
X0250236Y0296866D02*
X0250236Y0326866D01*
X0250000Y0327102D01*
X0257200Y0318652D02*
X0259420Y0318652D01*
X0258422Y0317654D02*
X0257200Y0317654D01*
X0257200Y0316655D02*
X0257423Y0316655D01*
X0257275Y0315657D02*
X0257200Y0315657D01*
X0257200Y0314658D02*
X0257275Y0314658D01*
X0257275Y0313660D02*
X0257200Y0313660D01*
X0245000Y0303977D02*
X0245000Y0337102D01*
X0257200Y0340620D02*
X0259352Y0340620D01*
X0258353Y0341618D02*
X0257200Y0341618D01*
X0257200Y0342617D02*
X0257355Y0342617D01*
X0257275Y0343615D02*
X0257200Y0343615D01*
X0257200Y0344614D02*
X0257275Y0344614D01*
X0257275Y0345612D02*
X0257200Y0345612D01*
X0257200Y0346611D02*
X0257378Y0346611D01*
X0257200Y0347609D02*
X0258377Y0347609D01*
X0259375Y0348608D02*
X0257200Y0348608D01*
X0257200Y0349606D02*
X0259675Y0349606D01*
X0259675Y0350605D02*
X0257200Y0350605D01*
X0257200Y0351603D02*
X0259675Y0351603D01*
X0259675Y0352602D02*
X0257200Y0352602D01*
X0257200Y0353600D02*
X0259675Y0353600D01*
X0259675Y0354599D02*
X0258108Y0354599D01*
X0259107Y0355597D02*
X0259675Y0355597D01*
X0272500Y0362102D02*
X0272500Y0344602D01*
X0268978Y0341618D02*
X0265397Y0341618D01*
X0266395Y0342617D02*
X0267980Y0342617D01*
X0267900Y0343615D02*
X0266475Y0343615D01*
X0264398Y0340620D02*
X0269977Y0340620D01*
X0237042Y0320650D02*
X0211708Y0320650D01*
X0212706Y0319651D02*
X0236044Y0319651D01*
X0235045Y0318652D02*
X0213705Y0318652D01*
X0213975Y0317654D02*
X0234775Y0317654D01*
X0234775Y0316655D02*
X0213975Y0316655D01*
X0213975Y0315657D02*
X0234775Y0315657D01*
X0234775Y0314658D02*
X0213975Y0314658D01*
X0213063Y0313660D02*
X0235687Y0313660D01*
X0245000Y0303977D02*
X0248268Y0300709D01*
X0248268Y0296866D01*
X0240072Y0296685D02*
X0225325Y0296685D01*
X0225325Y0295687D02*
X0240072Y0295687D01*
X0240072Y0294688D02*
X0225525Y0294688D01*
X0226524Y0293690D02*
X0240378Y0293690D01*
X0240072Y0297684D02*
X0225325Y0297684D01*
X0225325Y0298682D02*
X0240072Y0298682D01*
X0239935Y0299681D02*
X0225325Y0299681D01*
X0225325Y0300679D02*
X0238937Y0300679D01*
X0237938Y0301678D02*
X0225325Y0301678D01*
X0225325Y0302676D02*
X0237175Y0302676D01*
X0220925Y0302676D02*
X0214700Y0302676D01*
X0214700Y0301678D02*
X0220925Y0301678D01*
X0220925Y0300679D02*
X0214700Y0300679D01*
X0214700Y0299681D02*
X0220925Y0299681D01*
X0220925Y0298682D02*
X0214700Y0298682D01*
X0214700Y0297684D02*
X0220925Y0297684D01*
X0220925Y0296685D02*
X0214700Y0296685D01*
X0214700Y0295687D02*
X0220925Y0295687D01*
X0220925Y0294688D02*
X0214700Y0294688D01*
X0214700Y0293690D02*
X0220925Y0293690D01*
X0221300Y0292691D02*
X0215022Y0292691D01*
X0216021Y0291693D02*
X0222298Y0291693D01*
X0230722Y0283705D02*
X0195000Y0283705D01*
X0195000Y0284703D02*
X0204288Y0284703D01*
X0202200Y0281502D02*
X0200677Y0281502D01*
X0198100Y0278925D01*
X0198100Y0277402D01*
X0202200Y0277402D01*
X0202200Y0281502D01*
X0202200Y0280709D02*
X0202800Y0280709D01*
X0202800Y0279711D02*
X0202200Y0279711D01*
X0202200Y0278712D02*
X0202800Y0278712D01*
X0202800Y0277714D02*
X0202200Y0277714D01*
X0199884Y0280709D02*
X0195000Y0280709D01*
X0195000Y0279711D02*
X0198886Y0279711D01*
X0198100Y0278712D02*
X0195000Y0278712D01*
X0195000Y0277714D02*
X0198100Y0277714D01*
X0195000Y0281708D02*
X0229150Y0281708D01*
X0229150Y0280709D02*
X0225741Y0280709D01*
X0226739Y0279711D02*
X0229150Y0279711D01*
X0229150Y0278712D02*
X0227525Y0278712D01*
X0227525Y0277714D02*
X0229758Y0277714D01*
X0233750Y0275227D02*
X0233750Y0280227D01*
X0229724Y0282706D02*
X0195000Y0282706D01*
X0205116Y0280709D02*
X0209884Y0280709D01*
X0210677Y0281502D02*
X0208100Y0278925D01*
X0208100Y0277402D01*
X0212200Y0277402D01*
X0212200Y0281502D01*
X0210677Y0281502D01*
X0212200Y0280709D02*
X0212800Y0280709D01*
X0212800Y0279711D02*
X0212200Y0279711D01*
X0212200Y0278712D02*
X0212800Y0278712D01*
X0212800Y0277714D02*
X0212200Y0277714D01*
X0208886Y0279711D02*
X0206114Y0279711D01*
X0206900Y0278712D02*
X0208100Y0278712D01*
X0208100Y0277714D02*
X0206900Y0277714D01*
X0215116Y0280709D02*
X0220509Y0280709D01*
X0221302Y0281502D02*
X0218725Y0278925D01*
X0218725Y0277402D01*
X0222825Y0277402D01*
X0222825Y0281502D01*
X0221302Y0281502D01*
X0222825Y0280709D02*
X0223425Y0280709D01*
X0223425Y0279711D02*
X0222825Y0279711D01*
X0222825Y0278712D02*
X0223425Y0278712D01*
X0223425Y0277714D02*
X0222825Y0277714D01*
X0219511Y0279711D02*
X0216114Y0279711D01*
X0216900Y0278712D02*
X0218725Y0278712D01*
X0218725Y0277714D02*
X0216900Y0277714D01*
X0233750Y0275227D02*
X0236250Y0272727D01*
X0244375Y0272727D01*
X0246299Y0270803D01*
X0246299Y0267338D01*
X0246299Y0248401D01*
X0245625Y0247727D01*
X0239625Y0247727D01*
X0239375Y0247477D01*
X0239375Y0255477D02*
X0243375Y0255477D01*
X0244375Y0256477D01*
X0244331Y0256521D01*
X0244331Y0267338D01*
X0242362Y0267338D02*
X0242362Y0262589D01*
X0240000Y0260227D01*
X0233750Y0260227D01*
X0250236Y0267338D02*
X0250236Y0245463D01*
X0247500Y0242727D01*
X0056250Y0242727D01*
X0045000Y0231477D01*
X0045000Y0213602D01*
X0065000Y0213602D02*
X0065000Y0232727D01*
X0072500Y0240227D01*
X0248750Y0240227D01*
X0252205Y0243682D01*
X0252205Y0267338D01*
X0254173Y0267338D02*
X0254173Y0241900D01*
X0250000Y0237727D01*
X0096875Y0237727D01*
X0095000Y0235852D01*
X0095000Y0213602D01*
X0115000Y0213602D02*
X0115000Y0233352D01*
X0116875Y0235227D01*
X0252500Y0235227D01*
X0256142Y0238869D01*
X0256142Y0267338D01*
X0258110Y0267338D02*
X0258110Y0237087D01*
X0253750Y0232727D01*
X0151875Y0232727D01*
X0150000Y0230852D01*
X0150000Y0213602D01*
X0170000Y0213602D02*
X0170000Y0228352D01*
X0171875Y0230227D01*
X0255000Y0230227D01*
X0260079Y0235306D01*
X0260079Y0267338D01*
X0262047Y0267338D02*
X0262047Y0233524D01*
X0256250Y0227727D01*
X0205625Y0227727D01*
X0200000Y0222102D01*
X0200000Y0213602D01*
X0220000Y0213602D02*
X0220000Y0222102D01*
X0222500Y0224602D01*
X0260625Y0224602D01*
X0264016Y0227993D01*
X0264016Y0267338D01*
X0265984Y0267338D02*
X0265984Y0223086D01*
X0265000Y0222102D01*
X0250000Y0222102D01*
X0245000Y0217102D01*
X0245000Y0213602D01*
X0265000Y0213602D02*
X0267953Y0216555D01*
X0267953Y0267338D01*
X0269921Y0267338D02*
X0269921Y0215306D01*
X0271625Y0213602D01*
X0295000Y0213602D01*
X0310000Y0218977D02*
X0275625Y0218977D01*
X0271875Y0222727D01*
X0271875Y0267324D01*
X0271890Y0267338D01*
X0273858Y0267338D02*
X0273858Y0228244D01*
X0280000Y0222102D01*
X0328500Y0222102D01*
X0337000Y0213602D01*
X0340000Y0213602D01*
X0336250Y0218352D02*
X0355250Y0218352D01*
X0360000Y0213602D01*
X0360000Y0212102D01*
X0336250Y0218352D02*
X0330000Y0224602D01*
X0282500Y0224602D01*
X0275827Y0231275D01*
X0275827Y0267338D01*
X0265984Y0293674D02*
X0265984Y0293674D01*
X0271890Y0296866D02*
X0271890Y0303337D01*
X0270000Y0305227D01*
X0221180Y0311663D02*
X0214445Y0311663D01*
X0215443Y0310664D02*
X0220182Y0310664D01*
X0219183Y0309666D02*
X0216442Y0309666D01*
X0217100Y0308667D02*
X0218525Y0308667D01*
X0218525Y0307669D02*
X0217100Y0307669D01*
X0217100Y0306670D02*
X0218525Y0306670D01*
X0218525Y0305672D02*
X0217100Y0305672D01*
X0216577Y0304673D02*
X0219048Y0304673D01*
X0220047Y0303675D02*
X0215578Y0303675D01*
X0206685Y0312661D02*
X0202065Y0312661D01*
X0203063Y0313660D02*
X0205687Y0313660D01*
X0204775Y0314658D02*
X0204062Y0314658D01*
X0204600Y0315657D02*
X0204775Y0315657D01*
X0204775Y0316655D02*
X0204600Y0316655D01*
X0204600Y0317654D02*
X0204775Y0317654D01*
X0204600Y0318652D02*
X0205045Y0318652D01*
X0206044Y0319651D02*
X0203956Y0319651D01*
X0203300Y0320650D02*
X0207042Y0320650D01*
X0222156Y0352602D02*
X0226995Y0352602D01*
X0225996Y0353600D02*
X0224004Y0353600D01*
X0224942Y0354599D02*
X0224998Y0354599D01*
X0224948Y0359591D02*
X0224984Y0359591D01*
X0224017Y0360590D02*
X0225983Y0360590D01*
X0226981Y0361588D02*
X0222189Y0361588D01*
X0277622Y0386551D02*
X0282378Y0386551D01*
X0282481Y0387550D02*
X0277519Y0387550D01*
X0278517Y0388548D02*
X0281483Y0388548D01*
X0280484Y0389547D02*
X0279516Y0389547D01*
X0280000Y0390545D02*
X0280000Y0390545D01*
X0280000Y0391544D02*
X0280000Y0391544D01*
X0280000Y0392542D02*
X0280000Y0392542D01*
X0280000Y0393541D02*
X0280000Y0393541D01*
X0279634Y0394539D02*
X0280366Y0394539D01*
X0281365Y0395538D02*
X0278635Y0395538D01*
X0275000Y0397102D02*
X0275000Y0392102D01*
X0275000Y0397102D02*
X0280000Y0402102D01*
X0365000Y0402102D01*
X0281380Y0385553D02*
X0278620Y0385553D01*
X0279619Y0384554D02*
X0280381Y0384554D01*
X0280000Y0383556D02*
X0280000Y0383556D01*
X0280000Y0382557D02*
X0280000Y0382557D01*
X0280000Y0381559D02*
X0280000Y0381559D01*
X0280000Y0380560D02*
X0280000Y0380560D01*
X0279531Y0379562D02*
X0280469Y0379562D01*
X0310000Y0218977D02*
X0315000Y0213977D01*
X0315000Y0213602D01*
D33*
X0310250Y0287102D02*
X0310000Y0287352D01*
X0309750Y0287102D01*
X0307500Y0287102D01*
X0296875Y0287102D01*
X0310250Y0287102D02*
X0321250Y0287102D01*
X0322813Y0288665D01*
X0324375Y0290227D01*
X0386875Y0293102D02*
X0397750Y0293102D01*
X0398750Y0292102D01*
X0398750Y0293102D01*
X0416625Y0293102D01*
X0419375Y0295852D01*
X0419375Y0301477D01*
X0398750Y0292102D02*
X0398750Y0281477D01*
X0406875Y0281477D01*
X0416875Y0271477D01*
X0434375Y0271477D01*
X0225000Y0382102D02*
X0225000Y0392102D01*
D34*
X0225000Y0382102D02*
X0225000Y0377102D01*
X0220000Y0372102D01*
X0210000Y0372102D01*
X0205000Y0367102D01*
X0205000Y0357102D01*
X0221000Y0357102D01*
X0205000Y0357102D02*
X0205000Y0352102D01*
X0200000Y0347102D01*
X0190000Y0347102D02*
X0190000Y0332102D01*
X0200000Y0322102D01*
X0200000Y0317102D01*
X0190000Y0317102D02*
X0190000Y0307102D01*
X0185000Y0302102D01*
X0180000Y0302102D01*
X0170000Y0292102D01*
X0170000Y0282102D01*
X0170000Y0262102D01*
X0180000Y0252102D01*
X0155000Y0257102D02*
X0155000Y0272102D01*
X0140000Y0272102D01*
X0140000Y0252102D01*
X0135000Y0247102D01*
X0125000Y0247102D01*
X0115000Y0257102D01*
X0080000Y0257102D01*
X0035000Y0257102D01*
X0035000Y0287102D02*
X0035000Y0319602D01*
X0035000Y0352102D01*
X0035000Y0382102D02*
X0080000Y0382102D01*
X0090000Y0382102D01*
X0095000Y0377102D01*
X0130000Y0377102D01*
X0140000Y0377102D01*
X0155000Y0377102D01*
X0155000Y0367102D02*
X0145000Y0367102D01*
X0140000Y0362102D01*
X0140000Y0347102D01*
X0131875Y0347102D01*
X0155000Y0367102D02*
X0170000Y0367102D01*
X0175000Y0362102D01*
X0175000Y0352102D01*
X0180000Y0347102D01*
X0180000Y0337102D01*
X0170000Y0322102D02*
X0155000Y0322102D01*
X0155000Y0307102D02*
X0165000Y0307102D01*
X0170000Y0312102D01*
X0170000Y0322102D01*
X0155000Y0307102D02*
X0155000Y0292102D01*
X0155000Y0282102D02*
X0170000Y0282102D01*
X0155000Y0282102D02*
X0130625Y0282102D01*
X0125000Y0276477D01*
X0125000Y0267102D01*
X0125000Y0257102D01*
X0125000Y0387102D02*
X0120000Y0392102D01*
X0120000Y0397102D01*
X0125000Y0387102D02*
X0135000Y0387102D01*
X0133750Y0388352D01*
X0133750Y0392102D01*
X0135000Y0387102D02*
X0155000Y0387102D01*
X0175000Y0387102D01*
X0175000Y0402102D01*
X0301875Y0334602D02*
X0301875Y0320227D01*
X0307500Y0314602D01*
X0307500Y0287102D01*
X0301875Y0334602D02*
X0308750Y0341477D01*
X0308750Y0347727D01*
D35*
X0255000Y0304602D03*
X0310000Y0267102D03*
X0375625Y0275852D03*
D36*
X0390000Y0205602D02*
X0392125Y0205602D01*
X0400625Y0197102D01*
X0410000Y0197102D01*
X0416250Y0200852D02*
X0416250Y0192102D01*
X0415000Y0190852D01*
X0392500Y0190852D01*
X0390000Y0193352D01*
X0390000Y0197102D01*
X0410000Y0205602D02*
X0411500Y0205602D01*
X0416250Y0200852D01*
X0410000Y0167102D02*
X0410000Y0157102D01*
X0412500Y0157102D01*
X0415000Y0154602D01*
X0415000Y0147102D01*
X0405000Y0147102D01*
X0405000Y0142102D01*
X0400000Y0137102D01*
X0375000Y0137102D01*
X0385000Y0147102D02*
X0395000Y0147102D01*
X0395000Y0155852D01*
X0393750Y0157102D01*
X0390000Y0157102D01*
X0390000Y0167102D01*
X0360000Y0167102D02*
X0360000Y0157102D01*
X0360000Y0147102D01*
X0350000Y0147102D02*
X0340000Y0147102D01*
X0340000Y0157102D01*
X0340000Y0167102D01*
X0350000Y0167102D02*
X0360000Y0167102D01*
X0340000Y0147102D02*
X0330000Y0147102D01*
X0320000Y0147102D02*
X0320000Y0153977D01*
X0316875Y0157102D01*
X0315000Y0157102D01*
X0315000Y0167102D01*
X0295000Y0167102D02*
X0295000Y0157102D01*
X0295625Y0157102D01*
X0300000Y0152727D01*
X0300000Y0147102D01*
X0290000Y0147102D01*
X0280000Y0137102D02*
X0305000Y0137102D01*
X0310000Y0142102D01*
X0310000Y0147102D01*
X0320000Y0147102D01*
X0315000Y0127102D02*
X0320000Y0122102D01*
X0320000Y0117102D01*
X0325000Y0112102D01*
X0325000Y0097102D01*
X0320000Y0092102D01*
X0320000Y0082102D01*
X0315000Y0077102D01*
X0310000Y0077102D01*
X0310000Y0072102D01*
X0310000Y0077102D02*
X0300000Y0077102D01*
X0300000Y0087102D02*
X0305000Y0087102D01*
X0320000Y0102102D01*
X0320000Y0108352D01*
X0315000Y0113352D01*
X0313750Y0113352D01*
X0310000Y0117102D01*
X0315000Y0127102D02*
X0285000Y0127102D01*
X0280000Y0122102D01*
X0280000Y0117102D01*
X0290000Y0117102D02*
X0290000Y0101477D01*
X0294375Y0097102D01*
X0300000Y0097102D01*
X0305000Y0097102D01*
X0313125Y0105227D01*
X0313125Y0107102D01*
X0330000Y0127102D02*
X0335000Y0127102D01*
X0340000Y0122102D01*
X0340000Y0117102D01*
X0340000Y0082102D01*
X0343125Y0078977D01*
X0352500Y0078977D01*
X0352500Y0072102D01*
X0352500Y0078977D02*
X0354375Y0078977D01*
X0362500Y0087102D01*
X0365000Y0087102D01*
X0365000Y0097102D02*
X0350000Y0097102D01*
X0345000Y0102102D01*
X0345000Y0112102D01*
X0350000Y0117102D01*
X0360000Y0117102D02*
X0365000Y0112102D01*
X0365000Y0107102D01*
X0351875Y0107102D01*
X0375000Y0117102D02*
X0375000Y0122102D01*
X0380000Y0127102D01*
X0410000Y0127102D01*
X0415000Y0122102D01*
X0415000Y0117102D01*
X0422500Y0109602D01*
X0422500Y0102102D01*
X0414375Y0093977D01*
X0414375Y0080852D01*
X0410625Y0077102D01*
X0405000Y0077102D01*
X0405000Y0072102D01*
X0405000Y0077102D02*
X0395000Y0077102D01*
X0395000Y0087102D02*
X0399375Y0087102D01*
X0416875Y0104602D01*
X0416875Y0107102D01*
X0406875Y0117102D01*
X0405000Y0117102D01*
X0408125Y0107102D02*
X0408125Y0106477D01*
X0398750Y0097102D01*
X0395000Y0097102D01*
X0390000Y0097102D01*
X0385000Y0102102D01*
X0385000Y0117102D01*
X0321875Y0190852D02*
X0296250Y0190852D01*
X0295000Y0192102D01*
X0295000Y0197102D01*
X0295000Y0205602D02*
X0296500Y0205602D01*
X0305000Y0197102D01*
X0315000Y0197102D01*
X0322500Y0200227D02*
X0317125Y0205602D01*
X0315000Y0205602D01*
X0322500Y0200227D02*
X0322500Y0191477D01*
X0321875Y0190852D01*
X0340000Y0197102D02*
X0340000Y0205602D01*
X0360000Y0205602D02*
X0360000Y0197102D01*
X0265000Y0197102D02*
X0265000Y0205602D01*
X0245000Y0205602D02*
X0245000Y0197102D01*
X0227500Y0200852D02*
X0227500Y0192102D01*
X0225625Y0190227D01*
X0203125Y0190227D01*
X0200000Y0193352D01*
X0200000Y0197102D01*
X0200000Y0205602D02*
X0201500Y0205602D01*
X0210000Y0197102D01*
X0220000Y0197102D01*
X0227500Y0200852D02*
X0222750Y0205602D01*
X0220000Y0205602D01*
X0220000Y0167102D02*
X0220000Y0157102D01*
X0225000Y0152102D01*
X0225000Y0147102D01*
X0215000Y0147102D01*
X0215000Y0142102D01*
X0210000Y0137102D01*
X0185000Y0137102D01*
X0195000Y0147102D02*
X0205000Y0147102D01*
X0205000Y0152102D01*
X0200000Y0157102D01*
X0200000Y0167102D01*
X0170000Y0167102D02*
X0170000Y0157102D01*
X0170000Y0147102D01*
X0160000Y0147102D02*
X0150000Y0147102D01*
X0150000Y0157102D01*
X0150000Y0167102D01*
X0160000Y0167102D02*
X0170000Y0167102D01*
X0150000Y0147102D02*
X0140000Y0147102D01*
X0130000Y0147102D02*
X0120000Y0147102D01*
X0120000Y0152102D01*
X0115000Y0157102D01*
X0115000Y0167102D01*
X0100000Y0152102D02*
X0100000Y0147102D01*
X0090000Y0147102D01*
X0095000Y0157102D02*
X0100000Y0152102D01*
X0095000Y0157102D02*
X0095000Y0167102D01*
X0096875Y0190227D02*
X0095000Y0192102D01*
X0095000Y0197102D01*
X0096875Y0190227D02*
X0121250Y0190227D01*
X0122500Y0191477D01*
X0122500Y0201477D01*
X0118375Y0205602D01*
X0115000Y0205602D01*
X0115000Y0197102D02*
X0105000Y0197102D01*
X0096500Y0205602D01*
X0095000Y0205602D01*
X0065000Y0205602D02*
X0065000Y0197102D01*
X0045000Y0197102D02*
X0045000Y0205602D01*
X0045000Y0167102D02*
X0045000Y0157102D01*
X0045000Y0147102D01*
X0055000Y0147102D01*
X0065000Y0147102D02*
X0065000Y0157102D01*
X0065000Y0167102D01*
X0055000Y0167102D01*
X0045000Y0147102D02*
X0035000Y0147102D01*
X0035000Y0127102D02*
X0040000Y0127102D01*
X0045000Y0122102D01*
X0045000Y0117102D01*
X0045000Y0082102D01*
X0050000Y0077102D01*
X0057500Y0077102D01*
X0057500Y0072102D01*
X0057500Y0077102D02*
X0067500Y0087102D01*
X0070000Y0087102D01*
X0070000Y0097102D02*
X0055000Y0097102D01*
X0050000Y0102102D01*
X0050000Y0112102D01*
X0055000Y0117102D01*
X0065000Y0117102D02*
X0070000Y0112102D01*
X0070000Y0107102D01*
X0056250Y0107102D01*
X0090000Y0102102D02*
X0090000Y0117102D01*
X0090000Y0102102D02*
X0095000Y0097102D01*
X0100000Y0097102D01*
X0105625Y0097102D01*
X0113125Y0104602D01*
X0113125Y0107102D01*
X0120000Y0108352D02*
X0112500Y0115852D01*
X0111250Y0115852D01*
X0110000Y0117102D01*
X0120000Y0117102D02*
X0125000Y0112102D01*
X0125000Y0097102D01*
X0120000Y0092102D01*
X0120000Y0082102D01*
X0115000Y0077102D01*
X0110000Y0077102D01*
X0110000Y0072102D01*
X0110000Y0077102D02*
X0100000Y0077102D01*
X0100000Y0087102D02*
X0105000Y0087102D01*
X0120000Y0102102D01*
X0120000Y0108352D01*
X0120000Y0117102D02*
X0120000Y0122102D01*
X0125000Y0127102D01*
X0130000Y0127102D01*
X0140000Y0127102D02*
X0145000Y0127102D01*
X0150000Y0122102D01*
X0150000Y0117102D01*
X0150000Y0082102D01*
X0153750Y0078352D01*
X0162500Y0078352D01*
X0162500Y0072102D01*
X0162500Y0078352D02*
X0171250Y0087102D01*
X0175000Y0087102D01*
X0175000Y0097102D02*
X0160000Y0097102D01*
X0155000Y0102102D01*
X0155000Y0112102D01*
X0160000Y0117102D01*
X0170000Y0117102D02*
X0175000Y0112102D01*
X0175000Y0107102D01*
X0161250Y0107102D01*
X0185000Y0117102D02*
X0185000Y0122102D01*
X0190000Y0127102D01*
X0220000Y0127102D01*
X0225000Y0122102D01*
X0225000Y0117102D01*
X0230625Y0111477D01*
X0230625Y0101477D01*
X0225000Y0095852D01*
X0225000Y0081477D01*
X0220625Y0077102D01*
X0215000Y0077102D01*
X0215000Y0072102D01*
X0215000Y0077102D02*
X0205000Y0077102D01*
X0205000Y0087102D02*
X0208750Y0087102D01*
X0226250Y0104602D01*
X0226250Y0107102D01*
X0217500Y0115852D01*
X0216250Y0115852D01*
X0215000Y0117102D01*
X0218125Y0107102D02*
X0218125Y0105227D01*
X0210000Y0097102D01*
X0205000Y0097102D01*
X0200000Y0097102D01*
X0195000Y0102102D01*
X0195000Y0117102D01*
X0235000Y0127102D02*
X0241875Y0127102D01*
X0245000Y0123977D01*
X0245000Y0117102D01*
X0245000Y0082102D01*
X0250000Y0077102D01*
X0257500Y0077102D01*
X0257500Y0071477D01*
X0257500Y0077102D02*
X0267500Y0087102D01*
X0270000Y0087102D01*
X0270000Y0097102D02*
X0255000Y0097102D01*
X0250000Y0102102D01*
X0250000Y0112102D01*
X0255000Y0117102D01*
X0265000Y0117102D02*
X0270000Y0112102D01*
X0270000Y0107102D01*
X0256875Y0107102D01*
X0255000Y0147102D02*
X0245000Y0147102D01*
X0245000Y0157102D01*
X0245000Y0167102D01*
X0255000Y0167102D02*
X0265000Y0167102D01*
X0265000Y0157102D01*
X0265000Y0147102D01*
X0245000Y0147102D02*
X0235000Y0147102D01*
X0170000Y0197102D02*
X0170000Y0205602D01*
X0150000Y0205602D02*
X0150000Y0197102D01*
X0120000Y0147102D02*
X0110000Y0147102D01*
X0090000Y0062102D02*
X0090000Y0049602D01*
X0195000Y0049602D02*
X0195000Y0062102D01*
X0290000Y0062102D02*
X0290000Y0049602D01*
M02*
