G75*
%MOIN*%
%OFA0B0*%
%FSLAX25Y25*%
%IPPOS*%
%LPD*%
%AMOC8*
5,1,8,0,0,1.08239X$1,22.5*
%
%ADD10C,0.00600*%
%ADD11R,0.15024X0.15024*%
%ADD12R,0.02600X0.05000*%
%ADD13OC8,0.08500*%
%ADD14OC8,0.06300*%
%ADD15C,0.06300*%
%ADD16C,0.01600*%
%ADD17C,0.05750*%
D10*
X0140416Y0046300D02*
X0141484Y0045232D01*
X0142551Y0045232D01*
X0140416Y0046300D02*
X0140416Y0051637D01*
X0143619Y0051637D01*
X0144687Y0050570D01*
X0144687Y0048435D01*
X0143619Y0047367D01*
X0140416Y0047367D01*
X0146862Y0047367D02*
X0146862Y0050570D01*
X0147929Y0051637D01*
X0151132Y0051637D01*
X0151132Y0047367D01*
X0153294Y0047367D02*
X0155429Y0047367D01*
X0154361Y0047367D02*
X0154361Y0051637D01*
X0155429Y0051637D01*
X0157591Y0051637D02*
X0159726Y0051637D01*
X0158658Y0052705D02*
X0158658Y0048435D01*
X0157591Y0047367D01*
X0161901Y0047367D02*
X0161901Y0050570D01*
X0162969Y0051637D01*
X0166172Y0051637D01*
X0166172Y0047367D01*
X0168347Y0047367D02*
X0168347Y0051637D01*
X0172617Y0051637D02*
X0172617Y0048435D01*
X0171549Y0047367D01*
X0168347Y0047367D01*
X0174792Y0048435D02*
X0175860Y0047367D01*
X0177995Y0047367D01*
X0179063Y0048435D01*
X0179063Y0050570D01*
X0177995Y0051637D01*
X0175860Y0051637D01*
X0174792Y0050570D01*
X0174792Y0048435D01*
X0181238Y0047367D02*
X0181238Y0050570D01*
X0182305Y0051637D01*
X0183373Y0050570D01*
X0183373Y0047367D01*
X0185508Y0047367D02*
X0185508Y0051637D01*
X0184440Y0051637D01*
X0183373Y0050570D01*
X0194129Y0052705D02*
X0195196Y0053773D01*
X0198399Y0053773D01*
X0198399Y0047367D01*
X0195196Y0047367D01*
X0194129Y0048435D01*
X0194129Y0052705D01*
X0200574Y0052705D02*
X0201642Y0053773D01*
X0203777Y0053773D01*
X0204845Y0052705D01*
X0204845Y0048435D01*
X0203777Y0047367D01*
X0201642Y0047367D01*
X0200574Y0048435D01*
X0207020Y0047367D02*
X0211290Y0047367D01*
X0211290Y0053773D01*
X0154361Y0053773D02*
X0154361Y0054840D01*
X0131796Y0053773D02*
X0131796Y0047367D01*
X0128593Y0047367D01*
X0127525Y0048435D01*
X0127525Y0050570D01*
X0128593Y0051637D01*
X0131796Y0051637D01*
X0125350Y0050570D02*
X0125350Y0048435D01*
X0124282Y0047367D01*
X0122147Y0047367D01*
X0121080Y0048435D01*
X0121080Y0050570D01*
X0122147Y0051637D01*
X0124282Y0051637D01*
X0125350Y0050570D01*
X0118905Y0048435D02*
X0117837Y0049502D01*
X0114634Y0049502D01*
X0114634Y0050570D02*
X0114634Y0047367D01*
X0117837Y0047367D01*
X0118905Y0048435D01*
X0115702Y0051637D02*
X0114634Y0050570D01*
X0115702Y0051637D02*
X0117837Y0051637D01*
X0112459Y0051637D02*
X0112459Y0047367D01*
X0107088Y0048435D02*
X0107088Y0050570D01*
X0106020Y0051637D01*
X0102818Y0051637D01*
X0102818Y0053773D02*
X0102818Y0047367D01*
X0106020Y0047367D01*
X0107088Y0048435D01*
X0110324Y0051637D02*
X0112459Y0049502D01*
X0110324Y0051637D02*
X0109256Y0051637D01*
D11*
X0359067Y0074047D03*
X0359067Y0015317D03*
D12*
X0222817Y0007817D03*
X0217817Y0007817D03*
X0212817Y0007817D03*
X0207817Y0007817D03*
X0202817Y0007817D03*
X0197817Y0007817D03*
X0192817Y0007817D03*
X0187817Y0007817D03*
D13*
X0045942Y0025942D03*
X0045942Y0040942D03*
X0045942Y0055942D03*
X0045942Y0070942D03*
D14*
X0375942Y0050942D03*
D15*
X0375942Y0040942D03*
D16*
X0031684Y0015942D02*
X0031019Y0011742D01*
X0033267Y0011742D01*
X0033267Y0013773D01*
X0033736Y0014242D01*
X0039107Y0014242D01*
X0034526Y0018823D01*
X0034526Y0018823D01*
X0033823Y0019526D01*
X0033442Y0020445D01*
X0033442Y0066439D01*
X0033823Y0067358D01*
X0039526Y0073062D01*
X0040092Y0073296D01*
X0040092Y0073365D01*
X0043519Y0076792D01*
X0048365Y0076792D01*
X0051715Y0073442D01*
X0223314Y0073442D01*
X0224233Y0073062D01*
X0224937Y0072358D01*
X0225317Y0071439D01*
X0225317Y0017817D01*
X0349955Y0017817D01*
X0349955Y0023492D01*
X0350893Y0024429D01*
X0356567Y0024429D01*
X0356567Y0032689D01*
X0356948Y0033608D01*
X0357651Y0034312D01*
X0366401Y0043062D01*
X0367320Y0043442D01*
X0371836Y0043442D01*
X0371915Y0043633D01*
X0373251Y0044969D01*
X0374997Y0045692D01*
X0376887Y0045692D01*
X0378633Y0044969D01*
X0379969Y0043633D01*
X0380692Y0041887D01*
X0380692Y0039997D01*
X0379969Y0038251D01*
X0378633Y0036915D01*
X0376887Y0036192D01*
X0374997Y0036192D01*
X0373251Y0036915D01*
X0371915Y0038251D01*
X0371836Y0038442D01*
X0368853Y0038442D01*
X0361567Y0031157D01*
X0361567Y0024429D01*
X0367242Y0024429D01*
X0368179Y0023492D01*
X0368179Y0011742D01*
X0370865Y0011742D01*
X0370200Y0015942D01*
X0370200Y0015942D01*
X0370970Y0020807D01*
X0370970Y0020807D01*
X0373206Y0025195D01*
X0373206Y0025195D01*
X0376689Y0028678D01*
X0376689Y0028678D01*
X0381078Y0030914D01*
X0381078Y0030914D01*
X0385942Y0031684D01*
X0385942Y0031684D01*
X0390807Y0030914D01*
X0390807Y0030914D01*
X0393843Y0029367D01*
X0393843Y0067518D01*
X0390807Y0065970D01*
X0390807Y0065970D01*
X0385942Y0065200D01*
X0385942Y0065200D01*
X0381078Y0065970D01*
X0376689Y0068206D01*
X0373206Y0071689D01*
X0373206Y0071689D01*
X0370970Y0076078D01*
X0370970Y0076078D01*
X0370200Y0080942D01*
X0370200Y0080942D01*
X0370560Y0083218D01*
X0367306Y0083218D01*
X0367684Y0083000D01*
X0368019Y0082664D01*
X0368256Y0082254D01*
X0368379Y0081796D01*
X0368379Y0074847D01*
X0359867Y0074847D01*
X0359867Y0073247D01*
X0359867Y0064736D01*
X0366816Y0064736D01*
X0367274Y0064858D01*
X0367684Y0065095D01*
X0368019Y0065430D01*
X0368256Y0065841D01*
X0368379Y0066299D01*
X0368379Y0073247D01*
X0359867Y0073247D01*
X0358267Y0073247D01*
X0358267Y0064736D01*
X0351318Y0064736D01*
X0350861Y0064858D01*
X0350450Y0065095D01*
X0350115Y0065430D01*
X0349878Y0065841D01*
X0349755Y0066299D01*
X0349755Y0073247D01*
X0358267Y0073247D01*
X0358267Y0074847D01*
X0349755Y0074847D01*
X0349755Y0081796D01*
X0349878Y0082254D01*
X0350115Y0082664D01*
X0350450Y0083000D01*
X0350828Y0083218D01*
X0031324Y0083218D01*
X0031684Y0080942D01*
X0030914Y0076078D01*
X0030914Y0076078D01*
X0028678Y0071689D01*
X0028678Y0071689D01*
X0025195Y0068206D01*
X0025195Y0068206D01*
X0020807Y0065970D01*
X0020807Y0065970D01*
X0015942Y0065200D01*
X0015942Y0065200D01*
X0011742Y0065865D01*
X0011742Y0031019D01*
X0015942Y0031684D01*
X0015942Y0031684D01*
X0020807Y0030914D01*
X0020807Y0030914D01*
X0025195Y0028678D01*
X0025195Y0028678D01*
X0028678Y0025195D01*
X0028678Y0025195D01*
X0030914Y0020807D01*
X0030914Y0020807D01*
X0031684Y0015942D01*
X0031619Y0015533D02*
X0037816Y0015533D01*
X0040942Y0015942D02*
X0035942Y0020942D01*
X0035942Y0065942D01*
X0040942Y0070942D01*
X0045942Y0070942D01*
X0222817Y0070942D01*
X0222817Y0015942D01*
X0223442Y0015317D01*
X0359067Y0015317D01*
X0359067Y0032192D01*
X0367817Y0040942D01*
X0375942Y0040942D01*
X0380692Y0041109D02*
X0393843Y0041109D01*
X0393843Y0039511D02*
X0380491Y0039511D01*
X0379630Y0037912D02*
X0393843Y0037912D01*
X0393843Y0036314D02*
X0377181Y0036314D01*
X0374703Y0036314D02*
X0366724Y0036314D01*
X0368323Y0037912D02*
X0372254Y0037912D01*
X0362850Y0039511D02*
X0225317Y0039511D01*
X0225317Y0041109D02*
X0364449Y0041109D01*
X0366047Y0042708D02*
X0225317Y0042708D01*
X0225317Y0044306D02*
X0372589Y0044306D01*
X0373892Y0045992D02*
X0370992Y0048892D01*
X0370992Y0050942D01*
X0375942Y0050942D01*
X0375942Y0050942D01*
X0375942Y0050942D01*
X0375942Y0045992D01*
X0373892Y0045992D01*
X0375942Y0045992D02*
X0377992Y0045992D01*
X0380892Y0048892D01*
X0380892Y0050942D01*
X0375942Y0050942D01*
X0370992Y0050942D01*
X0370992Y0052992D01*
X0373892Y0055892D01*
X0375942Y0055892D01*
X0375942Y0050942D01*
X0375942Y0045992D01*
X0379295Y0044306D02*
X0393843Y0044306D01*
X0393843Y0045905D02*
X0225317Y0045905D01*
X0225317Y0047503D02*
X0372380Y0047503D01*
X0370992Y0049102D02*
X0225317Y0049102D01*
X0225317Y0050700D02*
X0370992Y0050700D01*
X0375942Y0050700D02*
X0375942Y0050700D01*
X0375942Y0050942D02*
X0375942Y0050942D01*
X0375942Y0050942D01*
X0375942Y0055892D01*
X0377992Y0055892D01*
X0380892Y0052992D01*
X0380892Y0050942D01*
X0375942Y0050942D01*
X0380892Y0050700D02*
X0393843Y0050700D01*
X0393843Y0049102D02*
X0380892Y0049102D01*
X0379504Y0047503D02*
X0393843Y0047503D01*
X0375942Y0047503D02*
X0375942Y0047503D01*
X0375942Y0049102D02*
X0375942Y0049102D01*
X0375942Y0052299D02*
X0375942Y0052299D01*
X0375942Y0053897D02*
X0375942Y0053897D01*
X0371897Y0053897D02*
X0225317Y0053897D01*
X0225317Y0052299D02*
X0370992Y0052299D01*
X0379987Y0053897D02*
X0393843Y0053897D01*
X0393843Y0052299D02*
X0380892Y0052299D01*
X0378389Y0055496D02*
X0393843Y0055496D01*
X0393843Y0057094D02*
X0225317Y0057094D01*
X0225317Y0055496D02*
X0373496Y0055496D01*
X0375942Y0055496D02*
X0375942Y0055496D01*
X0393843Y0058693D02*
X0225317Y0058693D01*
X0225317Y0060292D02*
X0393843Y0060292D01*
X0393843Y0061890D02*
X0225317Y0061890D01*
X0225317Y0063489D02*
X0393843Y0063489D01*
X0393843Y0065087D02*
X0367670Y0065087D01*
X0368379Y0066686D02*
X0379674Y0066686D01*
X0376612Y0068284D02*
X0368379Y0068284D01*
X0368379Y0069883D02*
X0375013Y0069883D01*
X0373415Y0071481D02*
X0368379Y0071481D01*
X0368379Y0073080D02*
X0372498Y0073080D01*
X0371684Y0074678D02*
X0359867Y0074678D01*
X0358267Y0074678D02*
X0050479Y0074678D01*
X0048881Y0076277D02*
X0349755Y0076277D01*
X0349755Y0077875D02*
X0031198Y0077875D01*
X0030945Y0076277D02*
X0043003Y0076277D01*
X0041405Y0074678D02*
X0030201Y0074678D01*
X0029386Y0073080D02*
X0039570Y0073080D01*
X0037946Y0071481D02*
X0028470Y0071481D01*
X0026871Y0069883D02*
X0036347Y0069883D01*
X0034749Y0068284D02*
X0025273Y0068284D01*
X0022210Y0066686D02*
X0033544Y0066686D01*
X0033442Y0065087D02*
X0011742Y0065087D01*
X0011742Y0063489D02*
X0033442Y0063489D01*
X0038442Y0063489D02*
X0220317Y0063489D01*
X0220317Y0065087D02*
X0038623Y0065087D01*
X0038442Y0064907D02*
X0041073Y0067538D01*
X0043519Y0065092D01*
X0048365Y0065092D01*
X0051715Y0068442D01*
X0220317Y0068442D01*
X0220317Y0011742D01*
X0220317Y0015814D01*
X0219937Y0016733D01*
X0219233Y0017437D01*
X0194653Y0042017D01*
X0216273Y0042017D01*
X0216742Y0042486D01*
X0216742Y0059330D01*
X0216273Y0059798D01*
X0095611Y0059798D01*
X0095142Y0059330D01*
X0095142Y0043442D01*
X0051715Y0043442D01*
X0048365Y0046792D01*
X0043519Y0046792D01*
X0040092Y0043365D01*
X0040092Y0038519D01*
X0043519Y0035092D01*
X0048365Y0035092D01*
X0051715Y0038442D01*
X0191157Y0038442D01*
X0201157Y0028442D01*
X0051715Y0028442D01*
X0048365Y0031792D01*
X0043519Y0031792D01*
X0040092Y0028365D01*
X0040092Y0023519D01*
X0043519Y0020092D01*
X0048365Y0020092D01*
X0051715Y0023442D01*
X0200532Y0023442D01*
X0210317Y0013657D01*
X0210317Y0011742D01*
X0210238Y0011742D01*
X0210222Y0011757D01*
X0209812Y0011994D01*
X0209354Y0012117D01*
X0207817Y0012117D01*
X0206280Y0012117D01*
X0205822Y0011994D01*
X0205412Y0011757D01*
X0205397Y0011742D01*
X0205317Y0011742D01*
X0205317Y0013939D01*
X0204937Y0014858D01*
X0204233Y0015562D01*
X0201733Y0018062D01*
X0200814Y0018442D01*
X0041978Y0018442D01*
X0038442Y0021978D01*
X0038442Y0064907D01*
X0040221Y0066686D02*
X0041926Y0066686D01*
X0049959Y0066686D02*
X0220317Y0066686D01*
X0220317Y0068284D02*
X0051557Y0068284D01*
X0048448Y0061992D02*
X0046142Y0061992D01*
X0046142Y0056142D01*
X0051992Y0056142D01*
X0051992Y0058448D01*
X0048448Y0061992D01*
X0048550Y0061890D02*
X0220317Y0061890D01*
X0220317Y0060292D02*
X0050149Y0060292D01*
X0051747Y0058693D02*
X0095142Y0058693D01*
X0095142Y0057094D02*
X0051992Y0057094D01*
X0051992Y0055742D02*
X0046142Y0055742D01*
X0046142Y0049892D01*
X0048448Y0049892D01*
X0051992Y0053436D01*
X0051992Y0055742D01*
X0051992Y0055496D02*
X0095142Y0055496D01*
X0095142Y0053897D02*
X0051992Y0053897D01*
X0050855Y0052299D02*
X0095142Y0052299D01*
X0095142Y0050700D02*
X0049256Y0050700D01*
X0046142Y0050700D02*
X0045742Y0050700D01*
X0045742Y0049892D02*
X0043436Y0049892D01*
X0039892Y0053436D01*
X0039892Y0055742D01*
X0045742Y0055742D01*
X0046142Y0055742D01*
X0046142Y0056142D01*
X0045742Y0056142D01*
X0045742Y0055742D01*
X0045742Y0049892D01*
X0042628Y0050700D02*
X0038442Y0050700D01*
X0033442Y0050700D02*
X0011742Y0050700D01*
X0011742Y0049102D02*
X0033442Y0049102D01*
X0033442Y0047503D02*
X0011742Y0047503D01*
X0011742Y0045905D02*
X0033442Y0045905D01*
X0033442Y0044306D02*
X0011742Y0044306D01*
X0011742Y0042708D02*
X0033442Y0042708D01*
X0038442Y0042708D02*
X0040092Y0042708D01*
X0040092Y0041109D02*
X0038442Y0041109D01*
X0038442Y0039511D02*
X0040092Y0039511D01*
X0033442Y0039511D02*
X0011742Y0039511D01*
X0011742Y0041109D02*
X0033442Y0041109D01*
X0033442Y0037912D02*
X0011742Y0037912D01*
X0011742Y0036314D02*
X0033442Y0036314D01*
X0038442Y0036314D02*
X0042297Y0036314D01*
X0040699Y0037912D02*
X0038442Y0037912D01*
X0038442Y0034715D02*
X0194883Y0034715D01*
X0193285Y0036314D02*
X0049587Y0036314D01*
X0051185Y0037912D02*
X0191686Y0037912D01*
X0197159Y0039511D02*
X0220317Y0039511D01*
X0220317Y0041109D02*
X0195560Y0041109D01*
X0192192Y0040942D02*
X0217817Y0015317D01*
X0217817Y0007817D01*
X0222817Y0007817D02*
X0222817Y0015942D01*
X0220317Y0015533D02*
X0220317Y0015533D01*
X0220317Y0013935D02*
X0220317Y0013935D01*
X0220317Y0012336D02*
X0220317Y0012336D01*
X0220317Y0011742D02*
X0220317Y0011742D01*
X0210317Y0012336D02*
X0205317Y0012336D01*
X0205317Y0013935D02*
X0210039Y0013935D01*
X0207817Y0012192D02*
X0207817Y0007817D01*
X0202817Y0007817D02*
X0202817Y0013442D01*
X0200317Y0015942D01*
X0188442Y0015942D01*
X0187817Y0015317D01*
X0187817Y0007817D01*
X0207192Y0012817D02*
X0207817Y0012192D01*
X0207817Y0012117D02*
X0207817Y0011742D01*
X0207817Y0011742D01*
X0207817Y0012117D01*
X0212817Y0014692D02*
X0212817Y0007817D01*
X0212817Y0014692D02*
X0201567Y0025942D01*
X0045942Y0025942D01*
X0040092Y0026723D02*
X0038442Y0026723D01*
X0033442Y0026723D02*
X0027150Y0026723D01*
X0028714Y0025124D02*
X0033442Y0025124D01*
X0033442Y0023526D02*
X0029528Y0023526D01*
X0030343Y0021927D02*
X0033442Y0021927D01*
X0033490Y0020329D02*
X0030989Y0020329D01*
X0031243Y0018730D02*
X0034619Y0018730D01*
X0036217Y0017132D02*
X0031496Y0017132D01*
X0040091Y0020329D02*
X0043282Y0020329D01*
X0041684Y0021927D02*
X0038493Y0021927D01*
X0038442Y0023526D02*
X0040092Y0023526D01*
X0040092Y0025124D02*
X0038442Y0025124D01*
X0050200Y0021927D02*
X0202046Y0021927D01*
X0203645Y0020329D02*
X0048602Y0020329D01*
X0041690Y0018730D02*
X0205243Y0018730D01*
X0206842Y0017132D02*
X0202663Y0017132D01*
X0204262Y0015533D02*
X0208441Y0015533D01*
X0217940Y0018730D02*
X0220317Y0018730D01*
X0220317Y0017132D02*
X0219538Y0017132D01*
X0225317Y0018730D02*
X0349955Y0018730D01*
X0349955Y0020329D02*
X0225317Y0020329D01*
X0225317Y0021927D02*
X0349955Y0021927D01*
X0349989Y0023526D02*
X0225317Y0023526D01*
X0225317Y0025124D02*
X0356567Y0025124D01*
X0361567Y0025124D02*
X0373170Y0025124D01*
X0372356Y0023526D02*
X0368145Y0023526D01*
X0368179Y0021927D02*
X0371541Y0021927D01*
X0370895Y0020329D02*
X0368179Y0020329D01*
X0368179Y0018730D02*
X0370642Y0018730D01*
X0370388Y0017132D02*
X0368179Y0017132D01*
X0368179Y0015533D02*
X0370265Y0015533D01*
X0370518Y0013935D02*
X0368179Y0013935D01*
X0368179Y0012336D02*
X0370771Y0012336D01*
X0374734Y0026723D02*
X0361567Y0026723D01*
X0356567Y0026723D02*
X0225317Y0026723D01*
X0225317Y0028321D02*
X0356567Y0028321D01*
X0356567Y0029920D02*
X0225317Y0029920D01*
X0225317Y0031518D02*
X0356567Y0031518D01*
X0356744Y0033117D02*
X0225317Y0033117D01*
X0225317Y0034715D02*
X0358055Y0034715D01*
X0365126Y0034715D02*
X0393843Y0034715D01*
X0393843Y0033117D02*
X0363527Y0033117D01*
X0361929Y0031518D02*
X0384894Y0031518D01*
X0386990Y0031518D02*
X0393843Y0031518D01*
X0393843Y0029920D02*
X0392757Y0029920D01*
X0379127Y0029920D02*
X0361567Y0029920D01*
X0361567Y0028321D02*
X0376333Y0028321D01*
X0359653Y0036314D02*
X0225317Y0036314D01*
X0225317Y0037912D02*
X0361252Y0037912D01*
X0380352Y0042708D02*
X0393843Y0042708D01*
X0359867Y0065087D02*
X0358267Y0065087D01*
X0358267Y0066686D02*
X0359867Y0066686D01*
X0359867Y0068284D02*
X0358267Y0068284D01*
X0358267Y0069883D02*
X0359867Y0069883D01*
X0359867Y0071481D02*
X0358267Y0071481D01*
X0358267Y0073080D02*
X0359867Y0073080D01*
X0349755Y0073080D02*
X0224190Y0073080D01*
X0225300Y0071481D02*
X0349755Y0071481D01*
X0349755Y0069883D02*
X0225317Y0069883D01*
X0225317Y0068284D02*
X0349755Y0068284D01*
X0349755Y0066686D02*
X0225317Y0066686D01*
X0225317Y0065087D02*
X0350464Y0065087D01*
X0392210Y0066686D02*
X0393843Y0066686D01*
X0370939Y0076277D02*
X0368379Y0076277D01*
X0368379Y0077875D02*
X0370686Y0077875D01*
X0370433Y0079474D02*
X0368379Y0079474D01*
X0368379Y0081072D02*
X0370221Y0081072D01*
X0370474Y0082671D02*
X0368013Y0082671D01*
X0350121Y0082671D02*
X0031410Y0082671D01*
X0031664Y0081072D02*
X0349755Y0081072D01*
X0349755Y0079474D02*
X0031452Y0079474D01*
X0033442Y0061890D02*
X0011742Y0061890D01*
X0011742Y0060292D02*
X0033442Y0060292D01*
X0033442Y0058693D02*
X0011742Y0058693D01*
X0011742Y0057094D02*
X0033442Y0057094D01*
X0033442Y0055496D02*
X0011742Y0055496D01*
X0011742Y0053897D02*
X0033442Y0053897D01*
X0033442Y0052299D02*
X0011742Y0052299D01*
X0038442Y0052299D02*
X0041029Y0052299D01*
X0039892Y0053897D02*
X0038442Y0053897D01*
X0038442Y0055496D02*
X0039892Y0055496D01*
X0039892Y0056142D02*
X0045742Y0056142D01*
X0045742Y0061992D01*
X0043436Y0061992D01*
X0039892Y0058448D01*
X0039892Y0056142D01*
X0039892Y0057094D02*
X0038442Y0057094D01*
X0038442Y0058693D02*
X0040137Y0058693D01*
X0041736Y0060292D02*
X0038442Y0060292D01*
X0038442Y0061890D02*
X0043334Y0061890D01*
X0045742Y0061890D02*
X0046142Y0061890D01*
X0046142Y0060292D02*
X0045742Y0060292D01*
X0045742Y0058693D02*
X0046142Y0058693D01*
X0046142Y0057094D02*
X0045742Y0057094D01*
X0045742Y0055496D02*
X0046142Y0055496D01*
X0046142Y0053897D02*
X0045742Y0053897D01*
X0045742Y0052299D02*
X0046142Y0052299D01*
X0038442Y0049102D02*
X0095142Y0049102D01*
X0095142Y0047503D02*
X0038442Y0047503D01*
X0038442Y0045905D02*
X0042632Y0045905D01*
X0041033Y0044306D02*
X0038442Y0044306D01*
X0049252Y0045905D02*
X0095142Y0045905D01*
X0095142Y0044306D02*
X0050851Y0044306D01*
X0045942Y0040942D02*
X0192192Y0040942D01*
X0198757Y0037912D02*
X0220317Y0037912D01*
X0220317Y0036314D02*
X0200356Y0036314D01*
X0201954Y0034715D02*
X0220317Y0034715D01*
X0220317Y0033117D02*
X0203553Y0033117D01*
X0205151Y0031518D02*
X0220317Y0031518D01*
X0220317Y0029920D02*
X0206750Y0029920D01*
X0208348Y0028321D02*
X0220317Y0028321D01*
X0220317Y0026723D02*
X0209947Y0026723D01*
X0211546Y0025124D02*
X0220317Y0025124D01*
X0220317Y0023526D02*
X0213144Y0023526D01*
X0214743Y0021927D02*
X0220317Y0021927D01*
X0220317Y0020329D02*
X0216341Y0020329D01*
X0188442Y0015942D02*
X0040942Y0015942D01*
X0033428Y0013935D02*
X0031366Y0013935D01*
X0031113Y0012336D02*
X0033267Y0012336D01*
X0033442Y0028321D02*
X0025552Y0028321D01*
X0022757Y0029920D02*
X0033442Y0029920D01*
X0038442Y0029920D02*
X0041647Y0029920D01*
X0040092Y0028321D02*
X0038442Y0028321D01*
X0038442Y0031518D02*
X0043245Y0031518D01*
X0038442Y0033117D02*
X0196482Y0033117D01*
X0198080Y0031518D02*
X0048639Y0031518D01*
X0050238Y0029920D02*
X0199679Y0029920D01*
X0216742Y0042708D02*
X0220317Y0042708D01*
X0220317Y0044306D02*
X0216742Y0044306D01*
X0216742Y0045905D02*
X0220317Y0045905D01*
X0220317Y0047503D02*
X0216742Y0047503D01*
X0216742Y0049102D02*
X0220317Y0049102D01*
X0220317Y0050700D02*
X0216742Y0050700D01*
X0216742Y0052299D02*
X0220317Y0052299D01*
X0220317Y0053897D02*
X0216742Y0053897D01*
X0216742Y0055496D02*
X0220317Y0055496D01*
X0220317Y0057094D02*
X0216742Y0057094D01*
X0216742Y0058693D02*
X0220317Y0058693D01*
X0033442Y0034715D02*
X0011742Y0034715D01*
X0011742Y0033117D02*
X0033442Y0033117D01*
X0033442Y0031518D02*
X0016990Y0031518D01*
X0014894Y0031518D02*
X0011742Y0031518D01*
D17*
X0060942Y0060942D03*
X0060942Y0080942D03*
M02*
