G75*
%MOIN*%
%OFA0B0*%
%FSLAX25Y25*%
%IPPOS*%
%LPD*%
%AMOC8*
5,1,8,0,0,1.08239X$1,22.5*
%
%ADD10R,0.01102X0.04213*%
%ADD11R,0.20000X0.10000*%
%ADD12R,0.01200X0.03900*%
%ADD13R,0.01378X0.03937*%
%ADD14R,0.06299X0.07098*%
D10*
X0233362Y0267338D03*
X0235331Y0267338D03*
X0237299Y0267338D03*
X0239268Y0267338D03*
X0241236Y0267338D03*
X0243205Y0267338D03*
X0245173Y0267338D03*
X0247142Y0267338D03*
X0249110Y0267338D03*
X0251079Y0267338D03*
X0253047Y0267338D03*
X0255016Y0267338D03*
X0256984Y0267338D03*
X0258953Y0267338D03*
X0260921Y0267338D03*
X0262890Y0267338D03*
X0264858Y0267338D03*
X0266827Y0267338D03*
X0268795Y0267338D03*
X0270764Y0267338D03*
X0272732Y0267338D03*
X0274701Y0267338D03*
X0276669Y0267338D03*
X0278638Y0267338D03*
X0278638Y0296866D03*
X0276669Y0296866D03*
X0274701Y0296866D03*
X0272732Y0296866D03*
X0270764Y0296866D03*
X0268795Y0296866D03*
X0266827Y0296866D03*
X0264858Y0296866D03*
X0262890Y0296866D03*
X0260921Y0296866D03*
X0258953Y0296866D03*
X0256984Y0296866D03*
X0255016Y0296866D03*
X0253047Y0296866D03*
X0251079Y0296866D03*
X0249110Y0296866D03*
X0247142Y0296866D03*
X0245173Y0296866D03*
X0243205Y0296866D03*
X0241236Y0296866D03*
X0239268Y0296866D03*
X0237299Y0296866D03*
X0235331Y0296866D03*
X0233362Y0296866D03*
D11*
X0256000Y0282102D03*
D12*
X0324366Y0291089D03*
X0326925Y0291089D03*
X0329484Y0291089D03*
X0332043Y0291089D03*
X0334602Y0291089D03*
X0337161Y0291089D03*
X0339720Y0291089D03*
X0342280Y0291089D03*
X0344839Y0291089D03*
X0347398Y0291089D03*
X0349957Y0291089D03*
X0352516Y0291089D03*
X0355075Y0291089D03*
X0357634Y0291089D03*
X0357634Y0268115D03*
X0355075Y0268115D03*
X0352516Y0268115D03*
X0349957Y0268115D03*
X0347398Y0268115D03*
X0344839Y0268115D03*
X0342280Y0268115D03*
X0339720Y0268115D03*
X0337161Y0268115D03*
X0334602Y0268115D03*
X0332043Y0268115D03*
X0329484Y0268115D03*
X0326925Y0268115D03*
X0324366Y0268115D03*
D13*
X0314839Y0326836D03*
X0312280Y0326836D03*
X0309720Y0326836D03*
X0307161Y0326836D03*
X0307161Y0349868D03*
X0309720Y0349868D03*
X0312280Y0349868D03*
X0314839Y0349868D03*
D14*
X0368527Y0352102D03*
X0379723Y0352102D03*
M02*
