G75*
%MOIN*%
%OFA0B0*%
%FSLAX25Y25*%
%IPPOS*%
%LPD*%
%AMOC8*
5,1,8,0,0,1.08239X$1,22.5*
%
%ADD10C,0.00000*%
%ADD11C,0.00600*%
%ADD12C,0.00500*%
D10*
X0001000Y0002000D02*
X0001000Y0098201D01*
X0275921Y0098201D01*
X0275921Y0002000D01*
X0001000Y0002000D01*
D11*
X0013500Y0012000D02*
X0016000Y0009500D01*
X0021000Y0009500D01*
X0023500Y0012000D01*
X0026000Y0009500D01*
X0031000Y0009500D01*
X0033500Y0012000D01*
X0036000Y0009500D01*
X0041000Y0009500D01*
X0043500Y0012000D01*
X0046000Y0009500D01*
X0051000Y0009500D01*
X0053500Y0012000D01*
X0056000Y0009500D01*
X0061000Y0009500D01*
X0063500Y0012000D01*
X0066000Y0009500D01*
X0071000Y0009500D01*
X0073500Y0012000D01*
X0076000Y0009500D01*
X0081000Y0009500D01*
X0083500Y0012000D01*
X0086000Y0009500D01*
X0091000Y0009500D01*
X0093500Y0012000D01*
X0096000Y0009500D01*
X0101000Y0009500D01*
X0103500Y0012000D01*
X0106000Y0009500D01*
X0111000Y0009500D01*
X0113500Y0012000D01*
X0116000Y0009500D01*
X0121000Y0009500D01*
X0123500Y0012000D01*
X0126000Y0009500D01*
X0131000Y0009500D01*
X0133500Y0012000D01*
X0136000Y0009500D01*
X0141000Y0009500D01*
X0143500Y0012000D01*
X0146000Y0009500D01*
X0151000Y0009500D01*
X0153500Y0012000D01*
X0156000Y0009500D01*
X0161000Y0009500D01*
X0163500Y0012000D01*
X0166000Y0009500D01*
X0171000Y0009500D01*
X0173500Y0012000D01*
X0176000Y0009500D01*
X0181000Y0009500D01*
X0183500Y0012000D01*
X0186000Y0009500D01*
X0191000Y0009500D01*
X0193500Y0012000D01*
X0196000Y0009500D01*
X0201000Y0009500D01*
X0203500Y0012000D01*
X0206000Y0009500D01*
X0211000Y0009500D01*
X0213500Y0012000D01*
X0216000Y0009500D01*
X0221000Y0009500D01*
X0223500Y0012000D01*
X0226000Y0009500D01*
X0231000Y0009500D01*
X0233500Y0012000D01*
X0236000Y0009500D01*
X0241000Y0009500D01*
X0243500Y0012000D01*
X0243500Y0027000D01*
X0241000Y0029500D01*
X0236000Y0029500D01*
X0233500Y0027000D01*
X0231000Y0029500D01*
X0226000Y0029500D01*
X0223500Y0027000D01*
X0221000Y0029500D01*
X0216000Y0029500D01*
X0213500Y0027000D01*
X0211000Y0029500D01*
X0206000Y0029500D01*
X0203500Y0027000D01*
X0201000Y0029500D01*
X0196000Y0029500D01*
X0193500Y0027000D01*
X0191000Y0029500D01*
X0186000Y0029500D01*
X0183500Y0027000D01*
X0181000Y0029500D01*
X0176000Y0029500D01*
X0173500Y0027000D01*
X0171000Y0029500D01*
X0166000Y0029500D01*
X0163500Y0027000D01*
X0161000Y0029500D01*
X0156000Y0029500D01*
X0153500Y0027000D01*
X0151000Y0029500D01*
X0146000Y0029500D01*
X0143500Y0027000D01*
X0141000Y0029500D01*
X0136000Y0029500D01*
X0133500Y0027000D01*
X0131000Y0029500D01*
X0126000Y0029500D01*
X0123500Y0027000D01*
X0121000Y0029500D01*
X0116000Y0029500D01*
X0113500Y0027000D01*
X0111000Y0029500D01*
X0106000Y0029500D01*
X0103500Y0027000D01*
X0101000Y0029500D01*
X0096000Y0029500D01*
X0093500Y0027000D01*
X0091000Y0029500D01*
X0086000Y0029500D01*
X0083500Y0027000D01*
X0081000Y0029500D01*
X0076000Y0029500D01*
X0073500Y0027000D01*
X0071000Y0029500D01*
X0066000Y0029500D01*
X0063500Y0027000D01*
X0061000Y0029500D01*
X0056000Y0029500D01*
X0053500Y0027000D01*
X0051000Y0029500D01*
X0046000Y0029500D01*
X0043500Y0027000D01*
X0041000Y0029500D01*
X0036000Y0029500D01*
X0033500Y0027000D01*
X0031000Y0029500D01*
X0026000Y0029500D01*
X0023500Y0027000D01*
X0021000Y0029500D01*
X0016000Y0029500D01*
X0013500Y0027000D01*
X0013500Y0012000D01*
X0036000Y0069500D02*
X0041000Y0069500D01*
X0043500Y0072000D01*
X0046000Y0069500D01*
X0051000Y0069500D01*
X0053500Y0072000D01*
X0056000Y0069500D01*
X0061000Y0069500D01*
X0063500Y0072000D01*
X0066000Y0069500D01*
X0071000Y0069500D01*
X0073500Y0072000D01*
X0076000Y0069500D01*
X0081000Y0069500D01*
X0083500Y0072000D01*
X0086000Y0069500D01*
X0091000Y0069500D01*
X0093500Y0072000D01*
X0096000Y0069500D01*
X0101000Y0069500D01*
X0103500Y0072000D01*
X0106000Y0069500D01*
X0111000Y0069500D01*
X0113500Y0072000D01*
X0116000Y0069500D01*
X0121000Y0069500D01*
X0123500Y0072000D01*
X0126000Y0069500D01*
X0131000Y0069500D01*
X0133500Y0072000D01*
X0136000Y0069500D01*
X0141000Y0069500D01*
X0143500Y0072000D01*
X0146000Y0069500D01*
X0151000Y0069500D01*
X0153500Y0072000D01*
X0156000Y0069500D01*
X0161000Y0069500D01*
X0163500Y0072000D01*
X0166000Y0069500D01*
X0171000Y0069500D01*
X0173500Y0072000D01*
X0176000Y0069500D01*
X0181000Y0069500D01*
X0183500Y0072000D01*
X0186000Y0069500D01*
X0191000Y0069500D01*
X0193500Y0072000D01*
X0196000Y0069500D01*
X0201000Y0069500D01*
X0203500Y0072000D01*
X0206000Y0069500D01*
X0211000Y0069500D01*
X0213500Y0072000D01*
X0216000Y0069500D01*
X0221000Y0069500D01*
X0223500Y0072000D01*
X0226000Y0069500D01*
X0231000Y0069500D01*
X0233500Y0072000D01*
X0236000Y0069500D01*
X0241000Y0069500D01*
X0243500Y0072000D01*
X0246000Y0069500D01*
X0251000Y0069500D01*
X0253500Y0072000D01*
X0256000Y0069500D01*
X0261000Y0069500D01*
X0263500Y0072000D01*
X0263500Y0087000D01*
X0261000Y0089500D01*
X0256000Y0089500D01*
X0253500Y0087000D01*
X0251000Y0089500D01*
X0246000Y0089500D01*
X0243500Y0087000D01*
X0241000Y0089500D01*
X0236000Y0089500D01*
X0233500Y0087000D01*
X0231000Y0089500D01*
X0226000Y0089500D01*
X0223500Y0087000D01*
X0221000Y0089500D01*
X0216000Y0089500D01*
X0213500Y0087000D01*
X0211000Y0089500D01*
X0206000Y0089500D01*
X0203500Y0087000D01*
X0201000Y0089500D01*
X0196000Y0089500D01*
X0193500Y0087000D01*
X0191000Y0089500D01*
X0186000Y0089500D01*
X0183500Y0087000D01*
X0181000Y0089500D01*
X0176000Y0089500D01*
X0173500Y0087000D01*
X0171000Y0089500D01*
X0166000Y0089500D01*
X0163500Y0087000D01*
X0161000Y0089500D01*
X0156000Y0089500D01*
X0153500Y0087000D01*
X0151000Y0089500D01*
X0146000Y0089500D01*
X0143500Y0087000D01*
X0141000Y0089500D01*
X0136000Y0089500D01*
X0133500Y0087000D01*
X0131000Y0089500D01*
X0126000Y0089500D01*
X0123500Y0087000D01*
X0121000Y0089500D01*
X0116000Y0089500D01*
X0113500Y0087000D01*
X0111000Y0089500D01*
X0106000Y0089500D01*
X0103500Y0087000D01*
X0101000Y0089500D01*
X0096000Y0089500D01*
X0093500Y0087000D01*
X0091000Y0089500D01*
X0086000Y0089500D01*
X0083500Y0087000D01*
X0081000Y0089500D01*
X0076000Y0089500D01*
X0073500Y0087000D01*
X0071000Y0089500D01*
X0066000Y0089500D01*
X0063500Y0087000D01*
X0061000Y0089500D01*
X0056000Y0089500D01*
X0053500Y0087000D01*
X0051000Y0089500D01*
X0046000Y0089500D01*
X0043500Y0087000D01*
X0041000Y0089500D01*
X0036000Y0089500D01*
X0033500Y0087000D01*
X0033500Y0072000D01*
X0036000Y0069500D01*
D12*
X0038251Y0067754D02*
X0038251Y0063250D01*
X0036750Y0063250D02*
X0039753Y0063250D01*
X0036750Y0066253D02*
X0038251Y0067754D01*
X0038354Y0091250D02*
X0041356Y0094253D01*
X0041356Y0095003D01*
X0040606Y0095754D01*
X0039105Y0095754D01*
X0038354Y0095003D01*
X0036753Y0095003D02*
X0036753Y0093502D01*
X0036002Y0092751D01*
X0033750Y0092751D01*
X0033750Y0091250D02*
X0033750Y0095754D01*
X0036002Y0095754D01*
X0036753Y0095003D01*
X0038354Y0091250D02*
X0041356Y0091250D01*
X0019855Y0035754D02*
X0019855Y0031250D01*
X0018354Y0031250D02*
X0021356Y0031250D01*
X0016753Y0033502D02*
X0016002Y0032751D01*
X0013750Y0032751D01*
X0016753Y0033502D02*
X0016753Y0035003D01*
X0016002Y0035754D01*
X0013750Y0035754D01*
X0013750Y0031250D01*
X0018354Y0034253D02*
X0019855Y0035754D01*
X0018251Y0007754D02*
X0018251Y0003250D01*
X0016750Y0003250D02*
X0019753Y0003250D01*
X0016750Y0006253D02*
X0018251Y0007754D01*
X0233750Y0033502D02*
X0236753Y0033502D01*
X0238354Y0033502D02*
X0238354Y0032001D01*
X0239105Y0031250D01*
X0240606Y0031250D01*
X0241356Y0032001D01*
X0241356Y0032751D01*
X0240606Y0033502D01*
X0238354Y0033502D01*
X0239855Y0035003D01*
X0241356Y0035754D01*
X0236002Y0035754D02*
X0233750Y0033502D01*
X0236002Y0031250D02*
X0236002Y0035754D01*
X0256002Y0091250D02*
X0256002Y0095754D01*
X0253750Y0093502D01*
X0256753Y0093502D01*
X0258354Y0093502D02*
X0259855Y0095003D01*
X0261356Y0095754D01*
X0260606Y0093502D02*
X0258354Y0093502D01*
X0258354Y0092001D01*
X0259105Y0091250D01*
X0260606Y0091250D01*
X0261356Y0092001D01*
X0261356Y0092751D01*
X0260606Y0093502D01*
M02*
