G75*
%MOIN*%
%OFA0B0*%
%FSLAX25Y25*%
%IPPOS*%
%LPD*%
%AMOC8*
5,1,8,0,0,1.08239X$1,22.5*
%
%ADD10OC8,0.07400*%
D10*
X0018500Y0014500D03*
X0028500Y0014500D03*
X0038500Y0014500D03*
X0048500Y0014500D03*
X0058500Y0014500D03*
X0068500Y0014500D03*
X0078500Y0014500D03*
X0088500Y0014500D03*
X0098500Y0014500D03*
X0108500Y0014500D03*
X0118500Y0014500D03*
X0128500Y0014500D03*
X0138500Y0014500D03*
X0148500Y0014500D03*
X0158500Y0014500D03*
X0168500Y0014500D03*
X0178500Y0014500D03*
X0188500Y0014500D03*
X0198500Y0014500D03*
X0208500Y0014500D03*
X0218500Y0014500D03*
X0228500Y0014500D03*
X0238500Y0014500D03*
X0238500Y0024500D03*
X0228500Y0024500D03*
X0218500Y0024500D03*
X0208500Y0024500D03*
X0198500Y0024500D03*
X0188500Y0024500D03*
X0178500Y0024500D03*
X0168500Y0024500D03*
X0158500Y0024500D03*
X0148500Y0024500D03*
X0138500Y0024500D03*
X0128500Y0024500D03*
X0118500Y0024500D03*
X0108500Y0024500D03*
X0098500Y0024500D03*
X0088500Y0024500D03*
X0078500Y0024500D03*
X0068500Y0024500D03*
X0058500Y0024500D03*
X0048500Y0024500D03*
X0038500Y0024500D03*
X0028500Y0024500D03*
X0018500Y0024500D03*
X0038500Y0074500D03*
X0048500Y0074500D03*
X0058500Y0074500D03*
X0068500Y0074500D03*
X0078500Y0074500D03*
X0088500Y0074500D03*
X0098500Y0074500D03*
X0108500Y0074500D03*
X0118500Y0074500D03*
X0128500Y0074500D03*
X0138500Y0074500D03*
X0148500Y0074500D03*
X0158500Y0074500D03*
X0168500Y0074500D03*
X0178500Y0074500D03*
X0188500Y0074500D03*
X0198500Y0074500D03*
X0208500Y0074500D03*
X0218500Y0074500D03*
X0228500Y0074500D03*
X0238500Y0074500D03*
X0248500Y0074500D03*
X0258500Y0074500D03*
X0258500Y0084500D03*
X0248500Y0084500D03*
X0238500Y0084500D03*
X0228500Y0084500D03*
X0218500Y0084500D03*
X0208500Y0084500D03*
X0198500Y0084500D03*
X0188500Y0084500D03*
X0178500Y0084500D03*
X0168500Y0084500D03*
X0158500Y0084500D03*
X0148500Y0084500D03*
X0138500Y0084500D03*
X0128500Y0084500D03*
X0118500Y0084500D03*
X0108500Y0084500D03*
X0098500Y0084500D03*
X0088500Y0084500D03*
X0078500Y0084500D03*
X0068500Y0084500D03*
X0058500Y0084500D03*
X0048500Y0084500D03*
X0038500Y0084500D03*
M02*
