%
M48
M72
T01C0.04000
%
T01
X18500Y14500
X28500Y14500
X38500Y14500
X48500Y14500
X58500Y14500
X68500Y14500
X78500Y14500
X88500Y14500
X98500Y14500
X108500Y14500
X118500Y14500
X128500Y14500
X138500Y14500
X148500Y14500
X158500Y14500
X168500Y14500
X178500Y14500
X188500Y14500
X198500Y14500
X208500Y14500
X218500Y14500
X228500Y14500
X238500Y14500
X238500Y24500
X228500Y24500
X218500Y24500
X208500Y24500
X198500Y24500
X188500Y24500
X178500Y24500
X168500Y24500
X158500Y24500
X148500Y24500
X138500Y24500
X128500Y24500
X118500Y24500
X108500Y24500
X98500Y24500
X88500Y24500
X78500Y24500
X68500Y24500
X58500Y24500
X48500Y24500
X38500Y24500
X28500Y24500
X18500Y24500
X38500Y74500
X48500Y74500
X58500Y74500
X68500Y74500
X78500Y74500
X88500Y74500
X98500Y74500
X108500Y74500
X118500Y74500
X128500Y74500
X138500Y74500
X148500Y74500
X158500Y74500
X168500Y74500
X178500Y74500
X188500Y74500
X198500Y74500
X208500Y74500
X218500Y74500
X228500Y74500
X238500Y74500
X248500Y74500
X258500Y74500
X258500Y84500
X248500Y84500
X238500Y84500
X228500Y84500
X218500Y84500
X208500Y84500
X198500Y84500
X188500Y84500
X178500Y84500
X168500Y84500
X158500Y84500
X148500Y84500
X138500Y84500
X128500Y84500
X118500Y84500
X108500Y84500
X98500Y84500
X88500Y84500
X78500Y84500
X68500Y84500
X58500Y84500
X48500Y84500
X38500Y84500
M30
