G75*
%MOIN*%
%OFA0B0*%
%FSLAX25Y25*%
%IPPOS*%
%LPD*%
%AMOC8*
5,1,8,0,0,1.08239X$1,22.5*
%
%ADD10C,0.13398*%
%ADD11OC8,0.06600*%
%ADD12R,0.01220X0.04370*%
%ADD13R,0.27030X0.13449*%
%ADD14C,0.06600*%
%ADD15C,0.06600*%
%ADD16C,0.07400*%
%ADD17C,0.10800*%
%ADD18OC8,0.10800*%
%ADD19C,0.07731*%
%ADD20OC8,0.07100*%
%ADD21C,0.07100*%
%ADD22R,0.02000X0.04700*%
%ADD23OC8,0.07000*%
%ADD24C,0.06550*%
%ADD25R,0.01575X0.04232*%
%ADD26C,0.07337*%
%ADD27R,0.07400X0.07400*%
%ADD28OC8,0.07400*%
%ADD29C,0.08600*%
%ADD30R,0.07099X0.07898*%
%ADD31OC8,0.06550*%
D10*
X0016000Y0027102D03*
X0016000Y0402102D03*
X0425375Y0326477D03*
X0425375Y0296477D03*
X0436000Y0402102D03*
X0436000Y0027102D03*
D11*
X0396000Y0042102D03*
X0376000Y0062102D03*
X0356000Y0062102D03*
X0343500Y0072102D03*
X0342875Y0087102D03*
X0342875Y0107102D03*
X0341000Y0117102D03*
X0351000Y0117102D03*
X0366000Y0117102D03*
X0376000Y0117102D03*
X0386000Y0117102D03*
X0396000Y0117102D03*
X0406000Y0117102D03*
X0399125Y0107102D03*
X0399125Y0087102D03*
X0396000Y0072102D03*
X0343500Y0042102D03*
X0301000Y0042102D03*
X0281000Y0062102D03*
X0301000Y0072102D03*
X0304125Y0087102D03*
X0304125Y0107102D03*
X0301000Y0117102D03*
X0291000Y0117102D03*
X0281000Y0117102D03*
X0271000Y0117102D03*
X0256000Y0117102D03*
X0246000Y0117102D03*
X0236000Y0117102D03*
X0247875Y0107102D03*
X0247875Y0087102D03*
X0248500Y0071477D03*
X0261000Y0062102D03*
X0248500Y0041477D03*
X0206000Y0042102D03*
X0186000Y0062102D03*
X0166000Y0062102D03*
X0153500Y0072102D03*
X0152250Y0087102D03*
X0152250Y0107102D03*
X0151000Y0117102D03*
X0141000Y0117102D03*
X0131000Y0127102D03*
X0121000Y0127102D03*
X0111000Y0117102D03*
X0104125Y0107102D03*
X0101000Y0117102D03*
X0091000Y0117102D03*
X0081000Y0117102D03*
X0056000Y0117102D03*
X0047250Y0107102D03*
X0046000Y0117102D03*
X0036000Y0117102D03*
X0026000Y0127102D03*
X0026000Y0147102D03*
X0036000Y0147102D03*
X0046000Y0147102D03*
X0036000Y0157102D03*
X0036000Y0167102D03*
X0046000Y0167102D03*
X0056000Y0167102D03*
X0056000Y0157102D03*
X0056000Y0147102D03*
X0081000Y0147102D03*
X0091000Y0147102D03*
X0101000Y0147102D03*
X0106000Y0157102D03*
X0106000Y0167102D03*
X0111000Y0147102D03*
X0121000Y0147102D03*
X0131000Y0147102D03*
X0141000Y0147102D03*
X0151000Y0147102D03*
X0161000Y0147102D03*
X0161000Y0157102D03*
X0161000Y0167102D03*
X0151000Y0167102D03*
X0141000Y0167102D03*
X0141000Y0157102D03*
X0176000Y0137102D03*
X0186000Y0147102D03*
X0196000Y0147102D03*
X0206000Y0147102D03*
X0216000Y0147102D03*
X0211000Y0157102D03*
X0211000Y0167102D03*
X0191000Y0167102D03*
X0191000Y0157102D03*
X0226000Y0147102D03*
X0236000Y0147102D03*
X0246000Y0147102D03*
X0256000Y0147102D03*
X0256000Y0157102D03*
X0256000Y0167102D03*
X0246000Y0167102D03*
X0236000Y0167102D03*
X0236000Y0157102D03*
X0226000Y0127102D03*
X0216000Y0117102D03*
X0206000Y0117102D03*
X0196000Y0117102D03*
X0186000Y0117102D03*
X0176000Y0117102D03*
X0161000Y0117102D03*
X0206000Y0072102D03*
X0209125Y0087102D03*
X0209125Y0107102D03*
X0271000Y0137102D03*
X0281000Y0147102D03*
X0291000Y0147102D03*
X0301000Y0147102D03*
X0311000Y0147102D03*
X0321000Y0147102D03*
X0331000Y0147102D03*
X0331000Y0157102D03*
X0331000Y0167102D03*
X0341000Y0167102D03*
X0351000Y0167102D03*
X0351000Y0157102D03*
X0351000Y0147102D03*
X0341000Y0147102D03*
X0366000Y0137102D03*
X0376000Y0147102D03*
X0386000Y0147102D03*
X0381000Y0157102D03*
X0381000Y0167102D03*
X0396000Y0147102D03*
X0406000Y0147102D03*
X0401000Y0157102D03*
X0401000Y0167102D03*
X0401000Y0197102D03*
X0401000Y0213602D03*
X0381000Y0213602D03*
X0381000Y0197102D03*
X0351000Y0197102D03*
X0341000Y0197102D03*
X0331000Y0197102D03*
X0331000Y0213602D03*
X0351000Y0213602D03*
X0346625Y0237727D03*
X0332875Y0247727D03*
X0326625Y0237727D03*
X0312875Y0247727D03*
X0312875Y0256477D03*
X0315375Y0270227D03*
X0301000Y0279352D03*
X0287875Y0287102D03*
X0287875Y0267727D03*
X0287875Y0247727D03*
X0286000Y0213602D03*
X0286000Y0197102D03*
X0306000Y0197102D03*
X0306000Y0213602D03*
X0342875Y0256477D03*
X0315375Y0290227D03*
X0324125Y0300852D03*
X0334750Y0300852D03*
X0345375Y0300852D03*
X0345375Y0330852D03*
X0356000Y0338977D03*
X0356000Y0348977D03*
X0356000Y0359602D03*
X0368500Y0363977D03*
X0378500Y0363977D03*
X0389125Y0358352D03*
X0394125Y0365852D03*
X0399125Y0358352D03*
X0377875Y0301102D03*
X0389750Y0281477D03*
X0385375Y0271477D03*
X0409750Y0281477D03*
X0425375Y0271477D03*
X0334750Y0330852D03*
X0324125Y0330852D03*
X0326000Y0338977D03*
X0326000Y0348977D03*
X0326000Y0359602D03*
X0299750Y0347727D03*
X0284750Y0344602D03*
X0274125Y0344602D03*
X0263500Y0344602D03*
X0252875Y0344602D03*
X0241000Y0336477D03*
X0236000Y0326477D03*
X0230375Y0316477D03*
X0214125Y0307102D03*
X0203500Y0307102D03*
X0193500Y0307102D03*
X0191000Y0317102D03*
X0200375Y0316477D03*
X0206000Y0326477D03*
X0211000Y0336477D03*
X0181000Y0317102D03*
X0166000Y0334602D03*
X0156000Y0344602D03*
X0156000Y0354602D03*
X0166000Y0354602D03*
X0166625Y0382102D03*
X0156625Y0382102D03*
X0141000Y0369602D03*
X0126000Y0354602D03*
X0126000Y0334602D03*
X0101000Y0369602D03*
X0116000Y0392102D03*
X0126000Y0392102D03*
X0126000Y0402102D03*
X0116000Y0402102D03*
X0156625Y0402102D03*
X0166625Y0402102D03*
X0252875Y0314602D03*
X0263500Y0314602D03*
X0274125Y0314602D03*
X0284750Y0314602D03*
X0287875Y0307102D03*
X0299750Y0327727D03*
X0223500Y0280227D03*
X0214125Y0277102D03*
X0203500Y0277102D03*
X0193500Y0277102D03*
X0171000Y0272102D03*
X0171000Y0282102D03*
X0127875Y0292102D03*
X0117875Y0292102D03*
X0119750Y0282102D03*
X0119750Y0262102D03*
X0121625Y0252102D03*
X0101625Y0252102D03*
X0106000Y0213602D03*
X0106000Y0197102D03*
X0086000Y0197102D03*
X0086000Y0213602D03*
X0056000Y0213602D03*
X0056000Y0197102D03*
X0046000Y0197102D03*
X0036000Y0197102D03*
X0036000Y0213602D03*
X0086000Y0167102D03*
X0086000Y0157102D03*
X0141000Y0197102D03*
X0151000Y0197102D03*
X0161000Y0197102D03*
X0161000Y0213602D03*
X0141000Y0213602D03*
X0191000Y0213602D03*
X0191000Y0197102D03*
X0211000Y0197102D03*
X0211000Y0213602D03*
X0236000Y0213602D03*
X0236000Y0197102D03*
X0246000Y0197102D03*
X0256000Y0197102D03*
X0256000Y0213602D03*
X0232250Y0247477D03*
X0223500Y0260227D03*
X0286000Y0167102D03*
X0286000Y0157102D03*
X0306000Y0157102D03*
X0306000Y0167102D03*
X0321000Y0127102D03*
X0311000Y0117102D03*
X0331000Y0117102D03*
X0153500Y0042102D03*
X0104125Y0087102D03*
X0101000Y0072102D03*
X0081000Y0062102D03*
X0061000Y0062102D03*
X0048500Y0072102D03*
X0047250Y0087102D03*
X0048500Y0042102D03*
X0101000Y0042102D03*
X0045375Y0369602D03*
X0045375Y0379602D03*
D12*
X0233362Y0296866D03*
X0235331Y0296866D03*
X0237299Y0296866D03*
X0239268Y0296866D03*
X0241236Y0296866D03*
X0243205Y0296866D03*
X0245173Y0296866D03*
X0247142Y0296866D03*
X0249110Y0296866D03*
X0251079Y0296866D03*
X0253047Y0296866D03*
X0255016Y0296866D03*
X0256984Y0296866D03*
X0258953Y0296866D03*
X0260921Y0296866D03*
X0262890Y0296866D03*
X0264858Y0296866D03*
X0266827Y0296866D03*
X0268795Y0296866D03*
X0270764Y0296866D03*
X0272732Y0296866D03*
X0274701Y0296866D03*
X0276669Y0296866D03*
X0278638Y0296866D03*
X0278638Y0267338D03*
X0276669Y0267338D03*
X0274701Y0267338D03*
X0272732Y0267338D03*
X0270764Y0267338D03*
X0268795Y0267338D03*
X0266827Y0267338D03*
X0264858Y0267338D03*
X0262890Y0267338D03*
X0260921Y0267338D03*
X0258953Y0267338D03*
X0256984Y0267338D03*
X0255016Y0267338D03*
X0253047Y0267338D03*
X0251079Y0267338D03*
X0249110Y0267338D03*
X0247142Y0267338D03*
X0245173Y0267338D03*
X0243205Y0267338D03*
X0241236Y0267338D03*
X0239268Y0267338D03*
X0237299Y0267338D03*
X0235331Y0267338D03*
X0233362Y0267338D03*
D13*
X0255985Y0282080D03*
D14*
X0232250Y0255477D03*
X0236000Y0205602D03*
X0256000Y0205602D03*
X0286000Y0205602D03*
X0306000Y0205602D03*
X0331000Y0205602D03*
X0351000Y0205602D03*
X0381000Y0205602D03*
X0401000Y0205602D03*
X0377875Y0293102D03*
X0301000Y0287352D03*
X0211000Y0205602D03*
X0191000Y0205602D03*
X0161000Y0205602D03*
X0141000Y0205602D03*
X0106000Y0205602D03*
X0086000Y0205602D03*
X0056000Y0205602D03*
X0036000Y0205602D03*
D15*
X0058100Y0107102D02*
X0063900Y0107102D01*
X0063900Y0097102D02*
X0058100Y0097102D01*
X0058100Y0087102D02*
X0063900Y0087102D01*
X0063900Y0077102D02*
X0058100Y0077102D01*
X0088100Y0077102D02*
X0093900Y0077102D01*
X0093900Y0087102D02*
X0088100Y0087102D01*
X0088100Y0097102D02*
X0093900Y0097102D01*
X0093900Y0107102D02*
X0088100Y0107102D01*
X0163100Y0107102D02*
X0168900Y0107102D01*
X0168900Y0097102D02*
X0163100Y0097102D01*
X0163100Y0087102D02*
X0168900Y0087102D01*
X0168900Y0077102D02*
X0163100Y0077102D01*
X0193100Y0077102D02*
X0198900Y0077102D01*
X0198900Y0087102D02*
X0193100Y0087102D01*
X0193100Y0097102D02*
X0198900Y0097102D01*
X0198900Y0107102D02*
X0193100Y0107102D01*
X0258100Y0107102D02*
X0263900Y0107102D01*
X0263900Y0097102D02*
X0258100Y0097102D01*
X0258100Y0087102D02*
X0263900Y0087102D01*
X0263900Y0077102D02*
X0258100Y0077102D01*
X0288100Y0077102D02*
X0293900Y0077102D01*
X0293900Y0087102D02*
X0288100Y0087102D01*
X0288100Y0097102D02*
X0293900Y0097102D01*
X0293900Y0107102D02*
X0288100Y0107102D01*
X0353100Y0107102D02*
X0358900Y0107102D01*
X0358900Y0097102D02*
X0353100Y0097102D01*
X0353100Y0087102D02*
X0358900Y0087102D01*
X0358900Y0077102D02*
X0353100Y0077102D01*
X0383100Y0077102D02*
X0388900Y0077102D01*
X0388900Y0087102D02*
X0383100Y0087102D01*
X0383100Y0097102D02*
X0388900Y0097102D01*
X0388900Y0107102D02*
X0383100Y0107102D01*
D16*
X0144300Y0272102D02*
X0137700Y0272102D01*
X0137700Y0282102D02*
X0144300Y0282102D01*
X0144300Y0292102D02*
X0137700Y0292102D01*
X0137700Y0334602D02*
X0144300Y0334602D01*
X0144300Y0344602D02*
X0137700Y0344602D01*
X0137700Y0354602D02*
X0144300Y0354602D01*
X0144300Y0382102D02*
X0137700Y0382102D01*
X0137700Y0392102D02*
X0144300Y0392102D01*
X0144300Y0402102D02*
X0137700Y0402102D01*
X0199125Y0357902D02*
X0199125Y0351302D01*
X0209125Y0351302D02*
X0209125Y0357902D01*
X0219125Y0357902D02*
X0219125Y0351302D01*
X0229125Y0351302D02*
X0229125Y0357902D01*
X0046175Y0351630D02*
X0039575Y0351630D01*
X0039575Y0331930D02*
X0046175Y0331930D01*
X0046175Y0312130D02*
X0039575Y0312130D01*
X0039575Y0292530D02*
X0046175Y0292530D01*
D17*
X0082250Y0295227D03*
X0082250Y0353977D03*
D18*
X0082250Y0333977D03*
X0082250Y0275227D03*
D19*
X0111000Y0319602D03*
X0116000Y0329602D03*
X0141000Y0319602D03*
X0129750Y0282102D03*
X0161000Y0282102D03*
X0161000Y0252102D03*
X0129750Y0252102D03*
X0116000Y0359602D03*
X0086000Y0392102D03*
X0086000Y0402102D03*
X0056000Y0402102D03*
X0056000Y0392102D03*
D20*
X0101000Y0402102D03*
X0163500Y0363977D03*
X0171000Y0320852D03*
X0164750Y0292102D03*
X0171000Y0256477D03*
X0126000Y0049602D03*
X0226000Y0049602D03*
X0326000Y0049602D03*
D21*
X0326000Y0059602D03*
X0226000Y0059602D03*
X0126000Y0059602D03*
X0181000Y0256477D03*
X0164750Y0302102D03*
X0161000Y0320852D03*
X0163500Y0373977D03*
X0101000Y0392102D03*
D22*
X0324366Y0291089D03*
X0326925Y0291089D03*
X0329484Y0291089D03*
X0332043Y0291089D03*
X0334602Y0291089D03*
X0337161Y0291089D03*
X0339720Y0291089D03*
X0342280Y0291089D03*
X0344839Y0291089D03*
X0347398Y0291089D03*
X0349957Y0291089D03*
X0352516Y0291089D03*
X0355075Y0291089D03*
X0357634Y0291089D03*
X0357634Y0268115D03*
X0355075Y0268115D03*
X0352516Y0268115D03*
X0349957Y0268115D03*
X0347398Y0268115D03*
X0344839Y0268115D03*
X0342280Y0268115D03*
X0339720Y0268115D03*
X0337161Y0268115D03*
X0334602Y0268115D03*
X0332043Y0268115D03*
X0329484Y0268115D03*
X0326925Y0268115D03*
X0324366Y0268115D03*
D23*
X0356000Y0252102D03*
X0356000Y0242102D03*
X0366000Y0242102D03*
X0366000Y0252102D03*
D24*
X0340375Y0283977D03*
X0306000Y0312102D03*
X0308500Y0358352D03*
X0317250Y0358352D03*
X0258500Y0305227D03*
X0410375Y0301477D03*
X0410375Y0311477D03*
X0410375Y0321477D03*
X0281000Y0049602D03*
X0186000Y0049602D03*
X0081000Y0049602D03*
D25*
X0307161Y0326787D03*
X0309720Y0326787D03*
X0312280Y0326787D03*
X0314839Y0326787D03*
X0314839Y0349917D03*
X0312280Y0349917D03*
X0309720Y0349917D03*
X0307161Y0349917D03*
D26*
X0290375Y0032871D02*
X0290375Y0026334D01*
X0280375Y0026334D02*
X0280375Y0032871D01*
X0267250Y0032871D02*
X0267250Y0026334D01*
X0257250Y0026334D02*
X0257250Y0032871D01*
X0196625Y0032871D02*
X0196625Y0026334D01*
X0186625Y0026334D02*
X0186625Y0032871D01*
X0172875Y0032871D02*
X0172875Y0026334D01*
X0162875Y0026334D02*
X0162875Y0032871D01*
X0091625Y0032871D02*
X0091625Y0026334D01*
X0081625Y0026334D02*
X0081625Y0032871D01*
X0068500Y0032871D02*
X0068500Y0026334D01*
X0058500Y0026334D02*
X0058500Y0032871D01*
X0352250Y0032871D02*
X0352250Y0026334D01*
X0362250Y0026334D02*
X0362250Y0032871D01*
X0375375Y0032871D02*
X0375375Y0026334D01*
X0385375Y0026334D02*
X0385375Y0032871D01*
D27*
X0196000Y0382102D03*
D28*
X0206000Y0382102D03*
X0216000Y0382102D03*
X0216000Y0392102D03*
X0206000Y0392102D03*
X0196000Y0392102D03*
X0226000Y0392102D03*
X0226000Y0382102D03*
X0236000Y0382102D03*
X0246000Y0382102D03*
X0256000Y0382102D03*
X0266000Y0382102D03*
X0276000Y0382102D03*
X0276000Y0392102D03*
X0266000Y0392102D03*
X0256000Y0392102D03*
X0246000Y0392102D03*
X0236000Y0392102D03*
X0286000Y0392102D03*
X0286000Y0382102D03*
X0296000Y0382102D03*
X0306000Y0382102D03*
X0316000Y0382102D03*
X0326000Y0382102D03*
X0336000Y0382102D03*
X0336000Y0392102D03*
X0326000Y0392102D03*
X0316000Y0392102D03*
X0306000Y0392102D03*
X0296000Y0392102D03*
X0346000Y0392102D03*
X0346000Y0382102D03*
X0356000Y0382102D03*
X0366000Y0382102D03*
X0376000Y0382102D03*
X0386000Y0382102D03*
X0386000Y0392102D03*
X0376000Y0392102D03*
X0366000Y0392102D03*
X0356000Y0392102D03*
X0396000Y0392102D03*
X0396000Y0382102D03*
X0406000Y0382102D03*
X0416000Y0382102D03*
X0416000Y0392102D03*
X0406000Y0392102D03*
D29*
X0019900Y0351702D02*
X0012100Y0351702D01*
X0012100Y0331902D02*
X0019900Y0331902D01*
X0019900Y0312302D02*
X0012100Y0312302D01*
X0012100Y0292502D02*
X0019900Y0292502D01*
D30*
X0368527Y0352102D03*
X0379723Y0352102D03*
D31*
X0331000Y0374602D03*
X0246000Y0304602D03*
X0301000Y0267102D03*
X0366625Y0275852D03*
M02*
