%
M48
M72
T01C0.03150
T02C0.03200
T03C0.03600
T04C0.03937
T05C0.04000
T06C0.04331
T07C0.05200
T08C0.12598
%
T01
X81000Y49602
X186000Y49602
X281000Y49602
X301000Y267102
X340375Y283977
X366625Y275852
X410375Y301477
X410375Y311477
X410375Y321477
X331000Y374602
X317250Y358352
X308500Y358352
X306000Y312102
X258500Y305227
X246000Y304602
T02
X252875Y314602
X263500Y314602
X274125Y314602
X284750Y314602
X287875Y307102
X287875Y287102
X301000Y287352
X301000Y279352
X315375Y270227
X312875Y256477
X312875Y247727
X326625Y237727
X332875Y247727
X342875Y256477
X346625Y237727
X351000Y213602
X351000Y205602
X351000Y197102
X341000Y197102
X331000Y197102
X331000Y205602
X331000Y213602
X306000Y213602
X306000Y205602
X306000Y197102
X286000Y197102
X286000Y205602
X286000Y213602
X256000Y213602
X256000Y205602
X256000Y197102
X246000Y197102
X236000Y197102
X236000Y205602
X236000Y213602
X211000Y213602
X211000Y205602
X211000Y197102
X191000Y197102
X191000Y205602
X191000Y213602
X161000Y213602
X161000Y205602
X161000Y197102
X151000Y197102
X141000Y197102
X141000Y205602
X141000Y213602
X106000Y213602
X106000Y205602
X106000Y197102
X86000Y197102
X86000Y205602
X86000Y213602
X56000Y213602
X56000Y205602
X56000Y197102
X46000Y197102
X36000Y197102
X36000Y205602
X36000Y213602
X36000Y167102
X36000Y157102
X36000Y147102
X26000Y147102
X26000Y127102
X36000Y117102
X46000Y117102
X47250Y107102
X56000Y117102
X61000Y107102
X61000Y97102
X61000Y87102
X61000Y77102
X48500Y72102
X61000Y62102
X81000Y62102
X91000Y77102
X91000Y87102
X91000Y97102
X91000Y107102
X91000Y117102
X81000Y117102
X101000Y117102
X104125Y107102
X111000Y117102
X121000Y127102
X131000Y127102
X141000Y117102
X151000Y117102
X161000Y117102
X166000Y107102
X166000Y97102
X166000Y87102
X166000Y77102
X153500Y72102
X166000Y62102
X186000Y62102
X196000Y77102
X196000Y87102
X196000Y97102
X196000Y107102
X196000Y117102
X186000Y117102
X176000Y117102
X176000Y137102
X186000Y147102
X196000Y147102
X206000Y147102
X216000Y147102
X211000Y157102
X211000Y167102
X191000Y167102
X191000Y157102
X161000Y157102
X161000Y147102
X151000Y147102
X141000Y147102
X131000Y147102
X121000Y147102
X111000Y147102
X106000Y157102
X106000Y167102
X101000Y147102
X91000Y147102
X81000Y147102
X86000Y157102
X86000Y167102
X56000Y167102
X56000Y157102
X56000Y147102
X46000Y147102
X46000Y167102
X47250Y87102
X48500Y42102
X101000Y42102
X126000Y49602
X126000Y59602
X101000Y72102
X104125Y87102
X152250Y87102
X152250Y107102
X141000Y157102
X141000Y167102
X151000Y167102
X161000Y167102
X206000Y117102
X216000Y117102
X209125Y107102
X209125Y87102
X206000Y72102
X226000Y59602
X226000Y49602
X248500Y41477
X261000Y62102
X248500Y71477
X261000Y77102
X261000Y87102
X261000Y97102
X261000Y107102
X256000Y117102
X246000Y117102
X236000Y117102
X247875Y107102
X247875Y87102
X271000Y117102
X281000Y117102
X291000Y117102
X291000Y107102
X291000Y97102
X291000Y87102
X291000Y77102
X301000Y72102
X304125Y87102
X304125Y107102
X301000Y117102
X311000Y117102
X321000Y127102
X331000Y117102
X341000Y117102
X351000Y117102
X356000Y107102
X356000Y97102
X356000Y87102
X356000Y77102
X343500Y72102
X356000Y62102
X376000Y62102
X386000Y77102
X386000Y87102
X386000Y97102
X386000Y107102
X386000Y117102
X376000Y117102
X366000Y117102
X366000Y137102
X376000Y147102
X386000Y147102
X381000Y157102
X381000Y167102
X396000Y147102
X406000Y147102
X401000Y157102
X401000Y167102
X401000Y197102
X401000Y205602
X401000Y213602
X381000Y213602
X381000Y205602
X381000Y197102
X351000Y167102
X351000Y157102
X351000Y147102
X341000Y147102
X331000Y147102
X321000Y147102
X311000Y147102
X301000Y147102
X291000Y147102
X281000Y147102
X286000Y157102
X286000Y167102
X306000Y167102
X306000Y157102
X331000Y157102
X331000Y167102
X341000Y167102
X396000Y117102
X406000Y117102
X399125Y107102
X399125Y87102
X396000Y72102
X396000Y42102
X343500Y42102
X326000Y49602
X326000Y59602
X301000Y42102
X281000Y62102
X342875Y87102
X342875Y107102
X271000Y137102
X256000Y147102
X246000Y147102
X236000Y147102
X226000Y147102
X236000Y157102
X236000Y167102
X246000Y167102
X256000Y167102
X256000Y157102
X226000Y127102
X206000Y42102
X153500Y42102
X232250Y247477
X232250Y255477
X223500Y260227
X214125Y277102
X223500Y280227
X203500Y277102
X193500Y277102
X171000Y272102
X171000Y282102
X164750Y292102
X164750Y302102
X181000Y317102
X191000Y317102
X200375Y316477
X206000Y326477
X211000Y336477
X230375Y316477
X236000Y326477
X241000Y336477
X252875Y344602
X263500Y344602
X274125Y344602
X284750Y344602
X299750Y347727
X299750Y327727
X324125Y330852
X326000Y338977
X326000Y348977
X326000Y359602
X334750Y330852
X345375Y330852
X356000Y338977
X356000Y348977
X356000Y359602
X368500Y363977
X378500Y363977
X389125Y358352
X394125Y365852
X399125Y358352
X377875Y301102
X377875Y293102
X389750Y281477
X385375Y271477
X409750Y281477
X425375Y271477
X345375Y300852
X334750Y300852
X324125Y300852
X315375Y290227
X287875Y267727
X287875Y247727
X214125Y307102
X203500Y307102
X193500Y307102
X171000Y320852
X161000Y320852
X166000Y334602
X156000Y344602
X156000Y354602
X163500Y363977
X166000Y354602
X163500Y373977
X166625Y382102
X156625Y382102
X141000Y369602
X126000Y354602
X126000Y334602
X101000Y369602
X101000Y392102
X101000Y402102
X116000Y402102
X126000Y402102
X126000Y392102
X116000Y392102
X156625Y402102
X166625Y402102
X127875Y292102
X117875Y292102
X119750Y282102
X119750Y262102
X121625Y252102
X101625Y252102
X171000Y256477
X181000Y256477
X45375Y369602
X45375Y379602
T03
X356000Y252102
X356000Y242102
X366000Y242102
X366000Y252102
T04
X362250Y29602
X352250Y29602
X375375Y29602
X385375Y29602
X290375Y29602
X280375Y29602
X267250Y29602
X257250Y29602
X196625Y29602
X186625Y29602
X172875Y29602
X162875Y29602
X91625Y29602
X81625Y29602
X68500Y29602
X58500Y29602
T05
X82250Y275227
X82250Y295227
X82250Y333977
X82250Y353977
X42875Y351630
X42875Y331930
X42875Y312130
X42875Y292530
X141000Y292102
X141000Y282102
X141000Y272102
X141000Y334602
X141000Y344602
X141000Y354602
X141000Y382102
X141000Y392102
X141000Y402102
X196000Y392102
X196000Y382102
X206000Y382102
X216000Y382102
X216000Y392102
X206000Y392102
X226000Y392102
X226000Y382102
X236000Y382102
X246000Y382102
X256000Y382102
X266000Y382102
X276000Y382102
X276000Y392102
X266000Y392102
X256000Y392102
X246000Y392102
X236000Y392102
X229125Y354602
X219125Y354602
X209125Y354602
X199125Y354602
X286000Y382102
X296000Y382102
X306000Y382102
X316000Y382102
X326000Y382102
X336000Y382102
X336000Y392102
X326000Y392102
X316000Y392102
X306000Y392102
X296000Y392102
X286000Y392102
X346000Y392102
X346000Y382102
X356000Y382102
X366000Y382102
X376000Y382102
X386000Y382102
X386000Y392102
X376000Y392102
X366000Y392102
X356000Y392102
X396000Y392102
X396000Y382102
X406000Y382102
X416000Y382102
X416000Y392102
X406000Y392102
T06
X161000Y282102
X129750Y282102
X129750Y252102
X161000Y252102
X141000Y319602
X116000Y329602
X111000Y319602
X116000Y359602
X86000Y392102
X86000Y402102
X56000Y402102
X56000Y392102
T07
X16000Y351702
X16000Y331902
X16000Y312302
X16000Y292502
T08
X16000Y27102
X16000Y402102
X425375Y326477
X425375Y296477
X436000Y402102
X436000Y27102
M30
